<?xml version="1.0" encoding="UTF-8" standalone="no"?>
<!-- Created with matplotlib (http://matplotlib.org/) -->

<svg
   xmlns:dc="http://purl.org/dc/elements/1.1/"
   xmlns:cc="http://creativecommons.org/ns#"
   xmlns:rdf="http://www.w3.org/1999/02/22-rdf-syntax-ns#"
   xmlns:svg="http://www.w3.org/2000/svg"
   xmlns="http://www.w3.org/2000/svg"
   xmlns:xlink="http://www.w3.org/1999/xlink"
   xmlns:sodipodi="http://sodipodi.sourceforge.net/DTD/sodipodi-0.dtd"
   xmlns:inkscape="http://www.inkscape.org/namespaces/inkscape"
   height="360pt"
   version="1.1"
   viewBox="0 0 576 360"
   width="576pt"
   id="svg2"
   inkscape:version="0.48.4 r9939"
   sodipodi:docname="angle.svg">
  <metadata
     id="metadata180">
    <rdf:RDF>
      <cc:Work
         rdf:about="">
        <dc:format>image/svg+xml</dc:format>
        <dc:type
           rdf:resource="http://purl.org/dc/dcmitype/StillImage" />
      </cc:Work>
    </rdf:RDF>
  </metadata>
  <sodipodi:namedview
     pagecolor="#ffffff"
     bordercolor="#666666"
     borderopacity="1"
     objecttolerance="10"
     gridtolerance="10"
     guidetolerance="10"
     inkscape:pageopacity="0"
     inkscape:pageshadow="2"
     inkscape:window-width="640"
     inkscape:window-height="480"
     id="namedview178"
     showgrid="false"
     inkscape:zoom="0.42361111"
     inkscape:cx="360"
     inkscape:cy="225"
     inkscape:window-x="0"
     inkscape:window-y="0"
     inkscape:window-maximized="0"
     inkscape:current-layer="svg2" />
  <defs
     id="defs4">
    <style
       type="text/css"
       id="style6">
*{stroke-linecap:butt;stroke-linejoin:round;}
  </style>
  </defs>
  <g
     style="stroke-linecap:butt;stroke-linejoin:round"
     id="patch_1">
    <path
       inkscape:connector-curvature="0"
       id="path10"
       style="fill:#ffffff;stroke-linecap:butt;stroke-linejoin:round"
       d="M 0,360 576,360 576,0 0,0 z" />
  </g>
  <g
     style="stroke-linecap:butt;stroke-linejoin:round"
     id="axes_1">
    <g
       style="stroke-linecap:butt;stroke-linejoin:round"
       id="patch_2">
      <path
         inkscape:connector-curvature="0"
         id="path14"
         style="fill:#ffffff;stroke-linecap:butt;stroke-linejoin:round"
         d="m 72,324 446.4,0 0,-288 L 72,36 z" />
    </g>
    <g
       style="stroke-linecap:butt;stroke-linejoin:round"
       id="line2d_1">
      <path
         inkscape:connector-curvature="0"
         id="path17"
         style="fill:none;stroke:#008000;stroke-width:2.5;stroke-linecap:square;stroke-linejoin:round"
         d="m 96.8,60.8276 7.294,17.1817 7.294,16.4945 5.836,12.7002 5.835,12.261 5.835,11.821 5.835,11.382 5.836,10.941 5.835,10.501 5.835,10.062 5.836,9.622 5.835,9.182 5.835,8.742 5.835,8.302 5.836,7.862 5.835,7.423 5.835,6.982 5.836,6.543 4.376,4.619 4.377,4.371 4.376,4.123 4.377,3.876 4.376,3.629 4.376,3.382 4.377,3.134 4.376,2.886 4.377,2.639 4.376,2.392 4.377,2.144 4.376,1.897 4.377,1.65 4.376,1.402 4.377,1.154 4.376,0.907 4.377,0.66 4.376,0.412 4.377,0.165 4.376,-0.082 4.377,-0.33 4.376,-0.577 4.376,-0.825 4.377,-1.072 4.376,-1.32 4.377,-1.567 4.376,-1.814 4.377,-2.062 4.376,-2.309 4.377,-2.557 4.376,-2.804 4.377,-3.051 4.376,-3.299 4.377,-3.546 4.376,-3.794 4.377,-4.041 4.376,-4.289 4.377,-4.536 4.376,-4.783 5.835,-6.763 5.836,-7.203 5.835,-7.642 5.835,-8.082 5.835,-8.522 5.836,-8.962 5.835,-9.402 5.835,-9.842 5.836,-10.281 5.835,-10.722 5.835,-11.161 5.836,-11.601 5.835,-12.041 5.835,-12.481 5.835,-12.9205 5.836,-13.3606 5.835,-13.8003 0,0"
         clip-path="url(#p44692e4afb)" />
    </g>
    <g
       style="stroke-linecap:butt;stroke-linejoin:round"
       id="line2d_2">
      <path
         inkscape:connector-curvature="0"
         id="path20"
         style="fill:none;stroke:#008000;stroke-linecap:butt;stroke-linejoin:round;stroke-dasharray:6, 6;stroke-dashoffset:0"
         d="m 282.8,284.276 0,-198.6208"
         clip-path="url(#p44692e4afb)" />
    </g>
    <g
       style="stroke-linecap:butt;stroke-linejoin:round"
       id="matplotlib.axis_1">
      <g
         style="stroke-linecap:butt;stroke-linejoin:round"
         id="xtick_1">
        <g
           style="stroke-linecap:butt;stroke-linejoin:round"
           id="line2d_3">
          <defs
             id="defs25">
            <path
               inkscape:connector-curvature="0"
               style="stroke:#000000;stroke-width:0.5;stroke-linecap:butt;stroke-linejoin:round"
               id="mc7db9fdffb"
               d="M 0,0 0,-4" />
          </defs>
          <g
             style="stroke-linecap:butt;stroke-linejoin:round"
             id="g28">
            <use
               height="360"
               width="576"
               id="use30"
               y="284.27585"
               xlink:href="#mc7db9fdffb"
               x="96.800003"
               style="stroke:#000000;stroke-width:0.5;stroke-linecap:butt;stroke-linejoin:round" />
          </g>
        </g>
        <g
           style="stroke-linecap:butt;stroke-linejoin:round"
           id="text_1">
          <!-- $-\pi/2$ -->
          <defs
             id="defs33">
            <path
               style="stroke-linecap:butt;stroke-linejoin:round"
               inkscape:connector-curvature="0"
               id="Cmmi10-3d"
               d="m 5.60938,-23 q 0,0.2969 0.10937,0.3906 L 40.4844,73.7812 q 0.1875,0.5782 0.6718,0.8907 0.5,0.3281 1.125,0.3281 0.8907,0 1.4376,-0.5469 Q 44.2812,73.9219 44.2812,73 l 0,-0.3906 L 9.51562,-23.7812 Q 8.9375,-25 7.625,-25 6.78125,-25 6.1875,-24.4062 5.60938,-23.8281 5.60938,-23" />
            <path
               style="stroke-linecap:butt;stroke-linejoin:round"
               inkscape:connector-curvature="0"
               id="Cmr10-32"
               d="m 4.98438,0 0,2.6875 q 0,0.25 0.1875,0.53125 L 20.7031,20.4062 q 3.5157,3.8126 5.7031,6.3907 2.2032,2.5937 4.3438,5.9687 2.1562,3.375 3.4062,6.8594 1.25,3.4844 1.25,7.3906 0,4.1094 -1.5156,7.8438 -1.5156,3.7344 -4.5156,5.9844 -3,2.25 -7.25,2.25 -4.3438,0 -7.8125,-2.625 -3.4687,-2.6094 -4.89062,-6.75 0.39062,0.0937 1.07812,0.0937 2.25,0 3.8281,-1.5156 1.5938,-1.5157 1.5938,-3.9063 0,-2.2968 -1.5938,-3.8906 Q 12.75,42.9219 10.5,42.9219 q -2.34375,0 -3.9375,1.625 -1.57812,1.6406 -1.57812,3.8437 0,3.7656 1.40624,7.0469 1.42188,3.2969 4.07818,5.8594 2.6718,2.5781 6.0156,3.9375 3.3437,1.375 7.0937,1.375 5.7188,0 10.6407,-2.4219 4.9374,-2.4219 7.8124,-6.8437 2.8907,-4.4063 2.8907,-10.3282 0,-4.3437 -1.9063,-8.25 -1.9062,-3.9062 -4.8906,-7.1094 -2.9688,-3.1874 -7.6094,-7.25 Q 25.875,20.3594 24.4219,19 L 13.0938,8.10938 l 9.6093,0 q 7.0781,0 11.8438,0.10937 4.7656,0.125 5.0469,0.375 Q 40.7656,9.85938 42,17.8281 l 2.9219,0 L 42.0938,0 z" />
            <path
               style="stroke-linecap:butt;stroke-linejoin:round"
               inkscape:connector-curvature="0"
               id="Cmmi10-bc"
               d="m 10.1094,1.70312 q 0,0.54688 0.3906,1.625 2.7812,5.79688 5.1875,11.39068 2.4219,5.5937 4.3437,10.8906 1.9376,5.2968 3.5469,11.3125 l -6.3906,0 q -3.6563,0 -6.8437,-2.2969 Q 7.17188,32.3281 5.07812,28.8125 4.89062,28.4219 4.5,28.4219 l -1.17188,0 q -0.9375,0 -0.9375,0.9687 0,0.2032 0.20313,0.5938 3.26563,5.5625 7,9.3437 3.73435,3.7813 8.42185,3.7813 l 36.2813,0 q 1.0312,0 1.75,-0.6875 0.7343,-0.6719 0.7343,-1.8438 0,-1.4687 -1.0468,-2.5625 -1.0469,-1.0937 -2.5156,-1.0937 l -12.7344,0 q -1.6094,-7.875 -1.7656,-15.3438 0,-9.6093 3.375,-17.37498 0.2968,-0.59374 0.2968,-1.21874 0,-1.07813 -0.6406,-2.01563 -0.6406,-0.921875 -1.6406,-1.5 -1,-0.59375 -2.125,-0.59375 -2.625,0 -3.6094,4.29688 -0.9688,4.29687 -0.9688,8.35932 0,5.7032 0.9688,11 0.9844,5.2969 3.125,14.3907 l -10.8906,0 Q 18.7031,4.89062 17.0938,1.60938 15.6719,-1.125 13.1875,-1.125 q -1.2187,0 -2.1563,0.8125 -0.9218,0.796875 -0.9218,2.01562" />
            <path
               style="stroke-linecap:butt;stroke-linejoin:round"
               inkscape:connector-curvature="0"
               id="Cmsy10-a1"
               d="M 10.2031,23 Q 9.375,23 8.82812,23.625 8.29688,24.2656 8.29688,25 q 0,0.7344 0.53124,1.3594 Q 9.375,27 10.2031,27 l 57.375,0 q 0.7813,0 1.2969,-0.6406 0.5156,-0.625 0.5156,-1.3594 0,-0.7344 -0.5156,-1.375 Q 68.3594,23 67.5781,23 z" />
          </defs>
          <g
             style="stroke-linecap:butt;stroke-linejoin:round"
             id="g39"
             transform="matrix(0.12,0,0,-0.12,82.7,297.27586)">
            <use
               height="360"
               width="576"
               y="0"
               x="0"
               style="stroke-linecap:butt;stroke-linejoin:round"
               id="use41"
               xlink:href="#Cmsy10-a1" />
            <use
               height="360"
               width="576"
               y="0"
               x="0"
               style="stroke-linecap:butt;stroke-linejoin:round"
               id="use43"
               xlink:href="#Cmmi10-bc"
               transform="translate(77.685547,0)" />
            <use
               height="360"
               width="576"
               y="0"
               x="0"
               style="stroke-linecap:butt;stroke-linejoin:round"
               id="use45"
               xlink:href="#Cmmi10-3d"
               transform="translate(134.66797,0)" />
            <use
               height="360"
               width="576"
               y="0"
               x="0"
               style="stroke-linecap:butt;stroke-linejoin:round"
               id="use47"
               xlink:href="#Cmr10-32"
               transform="translate(184.66797,0)" />
          </g>
        </g>
      </g>
      <g
         style="stroke-linecap:butt;stroke-linejoin:round"
         id="xtick_2">
        <g
           style="stroke-linecap:butt;stroke-linejoin:round"
           id="line2d_4">
          <g
             style="stroke-linecap:butt;stroke-linejoin:round"
             id="g51">
            <use
               height="360"
               width="576"
               id="use53"
               y="284.27585"
               xlink:href="#mc7db9fdffb"
               x="220.8"
               style="stroke:#000000;stroke-width:0.5;stroke-linecap:butt;stroke-linejoin:round" />
          </g>
        </g>
        <g
           style="stroke-linecap:butt;stroke-linejoin:round"
           id="text_2">
          <!-- $0$ -->
          <defs
             id="defs56">
            <path
               style="stroke-linecap:butt;stroke-linejoin:round"
               inkscape:connector-curvature="0"
               id="Cmr10-30"
               d="m 25,-2.20312 q -12.25,0 -16.67188,10.07812 -4.42187,10.0938 -4.42187,24.0156 0,8.6875 1.57813,16.3438 Q 7.07812,55.9062 11.7812,61.25 16.5,66.6094 25,66.6094 q 6.5938,0 10.7812,-3.2344 4.2032,-3.2188 6.4063,-8.3281 2.2031,-5.0938 3,-10.9375 Q 46,38.2812 46,31.8906 46,23.2969 44.4062,15.7969 42.8281,8.29688 38.1875,3.04688 33.5469,-2.20312 25,-2.20312 m 0,2.593745 q 5.5625,0 8.2969,5.703125 2.7343,5.71875 3.375,12.65625 0.6406,6.9375 0.6406,14.75 0,7.5156 -0.6406,13.8594 -0.6407,6.3594 -3.3594,11.5 -2.7031,5.1562 -8.3125,5.1562 -5.6562,0 -8.3906,-5.1875 -2.7344,-5.1719 -3.375,-11.5 -0.6406,-6.3125 -0.6406,-13.8281 0,-5.5625 0.2656,-10.5 0.2812,-4.9375 1.4531,-10.1875 1.1719,-5.25 3.7813,-8.84375 Q 20.7031,0.390625 25,0.390625" />
          </defs>
          <g
             style="stroke-linecap:butt;stroke-linejoin:round"
             id="g59"
             transform="matrix(0.12,0,0,-0.12,217.8,297.39399)">
            <use
               height="360"
               width="576"
               y="0"
               x="0"
               style="stroke-linecap:butt;stroke-linejoin:round"
               id="use61"
               xlink:href="#Cmr10-30"
               transform="translate(0,0.390625)" />
          </g>
        </g>
      </g>
      <g
         style="stroke-linecap:butt;stroke-linejoin:round"
         id="xtick_3">
        <g
           style="stroke-linecap:butt;stroke-linejoin:round"
           id="line2d_5">
          <g
             style="stroke-linecap:butt;stroke-linejoin:round"
             id="g65">
            <use
               height="360"
               width="576"
               id="use67"
               y="284.27585"
               xlink:href="#mc7db9fdffb"
               x="344.79999"
               style="stroke:#000000;stroke-width:0.5;stroke-linecap:butt;stroke-linejoin:round" />
          </g>
        </g>
        <g
           style="stroke-linecap:butt;stroke-linejoin:round"
           id="text_3">
          <!-- $\pi/2$ -->
          <g
             style="stroke-linecap:butt;stroke-linejoin:round"
             id="g70"
             transform="matrix(0.12,0,0,-0.12,335.38,297.27586)">
            <use
               height="360"
               width="576"
               y="0"
               x="0"
               style="stroke-linecap:butt;stroke-linejoin:round"
               id="use72"
               xlink:href="#Cmmi10-bc" />
            <use
               height="360"
               width="576"
               y="0"
               x="0"
               style="stroke-linecap:butt;stroke-linejoin:round"
               id="use74"
               xlink:href="#Cmmi10-3d"
               transform="translate(56.982422,0)" />
            <use
               height="360"
               width="576"
               y="0"
               x="0"
               style="stroke-linecap:butt;stroke-linejoin:round"
               id="use76"
               xlink:href="#Cmr10-32"
               transform="translate(106.98242,0)" />
          </g>
        </g>
      </g>
      <g
         style="stroke-linecap:butt;stroke-linejoin:round"
         id="xtick_4">
        <g
           style="stroke-linecap:butt;stroke-linejoin:round"
           id="line2d_6">
          <g
             style="stroke-linecap:butt;stroke-linejoin:round"
             id="g80">
            <use
               height="360"
               width="576"
               id="use82"
               y="284.27585"
               xlink:href="#mc7db9fdffb"
               x="468.79999"
               style="stroke:#000000;stroke-width:0.5;stroke-linecap:butt;stroke-linejoin:round" />
          </g>
        </g>
        <g
           style="stroke-linecap:butt;stroke-linejoin:round"
           id="text_4">
          <!-- $\pi$ -->
          <g
             style="stroke-linecap:butt;stroke-linejoin:round"
             id="g85"
             transform="matrix(0.12,0,0,-0.12,465.38,297.39399)">
            <use
               height="360"
               width="576"
               y="0"
               x="0"
               style="stroke-linecap:butt;stroke-linejoin:round"
               id="use87"
               xlink:href="#Cmmi10-bc"
               transform="translate(0,0.890625)" />
          </g>
        </g>
      </g>
      <g
         style="stroke-linecap:butt;stroke-linejoin:round"
         id="xtick_5">
        <g
           style="stroke-linecap:butt;stroke-linejoin:round"
           id="line2d_7">
          <g
             style="stroke-linecap:butt;stroke-linejoin:round"
             id="g91">
            <use
               height="360"
               width="576"
               id="use93"
               y="284.27585"
               xlink:href="#mc7db9fdffb"
               x="282.79999"
               style="stroke:#000000;stroke-width:0.5;stroke-linecap:butt;stroke-linejoin:round" />
          </g>
        </g>
        <g
           style="stroke-linecap:butt;stroke-linejoin:round"
           id="text_5">
          <!-- $\theta_0$ -->
          <defs
             id="defs96">
            <path
               style="stroke-linecap:butt;stroke-linejoin:round"
               inkscape:connector-curvature="0"
               id="Cmmi10-b5"
               d="m 16.1094,-1.125 q -4.5313,0 -7.26565,3.3125 Q 6.10938,5.51562 5.04688,10.2031 4,14.8906 4,19.4844 l 0,0.0937 q 0,4.9844 0.95312,10.3438 0.95313,5.375 2.75,10.7187 1.8125,5.3594 3.92188,9.5625 1.4688,2.9219 3.7812,6.5313 2.3126,3.625 5.1719,6.7656 2.8594,3.1562 6.1563,5.0781 3.2968,1.9375 6.6718,1.9375 l 0.0938,0 q 3.6094,0 6.0156,-2.0156 2.4219,-2 3.7656,-5.125 1.3438,-3.125 1.875,-6.6875 0.5469,-3.5625 0.5469,-6.7813 0,-7.5781 -2.0469,-15.4687 -2.0468,-7.875 -5.6718,-15.25 Q 36.625,16.4062 34.2031,12.6406 31.7812,8.89062 29.0781,5.90625 26.375,2.9375 23,0.90625 19.625,-1.125 16.2188,-1.125 z m 0.2031,2.64062 q 3.3125,0 6.3594,3.53126 3.0625,3.54687 5.3593,8.59372 2.2969,5.0625 4.0313,10.3594 1.7344,5.2969 2.5625,9.0156 l -20.4219,0 q -1.5625,-6.3125 -2.4375,-10.875 -0.875,-4.5625 -0.875,-8.9531 0,-11.67188 5.4219,-11.67188 m -1.3281,35.01558 20.5156,0 q 1.0781,4.3907 1.7031,7.3438 0.6407,2.9531 1.0781,6.2188 0.4376,3.2812 0.4376,6.1093 0,11.7188 -5.3126,11.7188 -6.3593,0 -10.9687,-10.2344 -4.6094,-10.2187 -7.4531,-21.1563" />
          </defs>
          <g
             style="stroke-linecap:butt;stroke-linejoin:round"
             id="g99"
             transform="matrix(0.12,0,0,-0.12,276.98,296.79586)">
            <use
               height="360"
               width="576"
               y="0"
               x="0"
               style="stroke-linecap:butt;stroke-linejoin:round"
               id="use101"
               xlink:href="#Cmmi10-b5"
               transform="translate(0,0.484375)" />
            <use
               height="360"
               width="576"
               y="0"
               x="0"
               style="stroke-linecap:butt;stroke-linejoin:round"
               id="use103"
               xlink:href="#Cmr10-30"
               transform="matrix(0.7,0,0,0.7,46.923828,-25.025)" />
          </g>
        </g>
      </g>
    </g>
    <g
       style="stroke-linecap:butt;stroke-linejoin:round"
       id="matplotlib.axis_2" />
    <g
       style="stroke-linecap:butt;stroke-linejoin:round"
       id="patch_3">
      <path
         inkscape:connector-curvature="0"
         id="path107"
         style="fill:none;stroke:#000000;stroke-linecap:butt;stroke-linejoin:round"
         d="m 220.8,324 0,-288" />
    </g>
    <g
       style="stroke-linecap:butt;stroke-linejoin:round"
       id="patch_4">
      <path
         inkscape:connector-curvature="0"
         id="path110"
         style="fill:none;stroke:#000000;stroke-linecap:butt;stroke-linejoin:round"
         d="m 72,284.276 446.4,0" />
    </g>
    <g
       style="stroke-linecap:butt;stroke-linejoin:round"
       id="patch_5">
      <path
         inkscape:connector-curvature="0"
         id="path113"
         style="fill:none;stroke-linecap:butt;stroke-linejoin:round"
         d="m 518.4,324 0,-288" />
    </g>
    <g
       style="stroke-linecap:butt;stroke-linejoin:round"
       id="patch_6">
      <path
         inkscape:connector-curvature="0"
         id="path116"
         style="fill:none;stroke-linecap:butt;stroke-linejoin:round"
         d="m 72,36 446.4,0" />
    </g>
    <g
       style="stroke-linecap:butt;stroke-linejoin:round"
       id="legend_1">
      <g
         style="stroke-linecap:butt;stroke-linejoin:round"
         id="patch_7">
        <path
           inkscape:connector-curvature="0"
           id="path120"
           style="fill:#ffffff;stroke:#000000;stroke-linecap:butt;stroke-linejoin:round"
           d="m 340.704,74.448 170.496,0 0,-31.248 -170.496,0 0,31.248 z" />
      </g>
      <g
         style="stroke-linecap:butt;stroke-linejoin:round"
         id="line2d_8">
        <path
           inkscape:connector-curvature="0"
           id="path123"
           style="fill:none;stroke:#008000;stroke-width:2.5;stroke-linecap:square;stroke-linejoin:round"
           d="m 350.784,57.888 20.16,0" />
      </g>
      <g
         style="stroke-linecap:butt;stroke-linejoin:round"
         id="line2d_9" />
      <g
         style="stroke-linecap:butt;stroke-linejoin:round"
         id="text_6">
        <!-- $V_{angle} = K_\theta(\theta-\theta_0)^2$ -->
        <defs
           id="defs127">
          <path
             style="stroke-linecap:butt;stroke-linejoin:round"
             inkscape:connector-curvature="0"
             id="Cmmi10-4b"
             d="m 4.6875,0 q -0.96875,0 -0.96875,1.3125 0.04687,0.25 0.1875,0.85938 0.14063,0.60937 0.40625,0.96874 0.28125,0.375 0.67188,0.375 6.09372,0 8.50002,0.6875 1.3125,0.4375 1.8906,2.6875 L 29.1094,61.8125 q 0.1875,0.9844 0.1875,1.375 0,1.0781 -1.2188,1.2187 -1.8593,0.3907 -7.1719,0.3907 -0.9843,0 -0.9843,1.3125 0.3437,1.2812 0.5312,1.7344 0.2031,0.4687 1.125,0.4687 l 26.9063,0 q 1.0312,0 1.0312,-1.3125 -0.0468,-0.25 -0.2031,-0.8438 -0.1406,-0.5781 -0.3906,-0.9687 -0.2344,-0.3906 -0.7344,-0.3906 -6.0937,0 -8.4844,-0.6875 Q 38.375,63.625 37.7969,61.375 L 29.6875,29 68.8906,59.2812 q 0.1094,0.1876 1.25,1.3282 1.1563,1.1562 1.1563,2.2812 0,1.9063 -3.375,1.9063 -1.0313,0 -1.0313,1.3125 0.2032,0.7812 0.3125,1.2187 0.125,0.4531 0.4375,0.7188 0.3282,0.2656 0.9688,0.2656 l 19.375,0 q 0.5468,0 0.7812,-0.3906 0.25,-0.3907 0.25,-0.9219 -0.0468,-0.25 -0.2187,-0.8906 -0.1719,-0.625 -0.4375,-0.9688 -0.2656,-0.3437 -0.7656,-0.3437 -7.3126,0 -16.0157,-6.7813 -0.0469,-0.0625 -0.1406,-0.0937 -0.0937,-0.0157 -0.2031,-0.0469 -0.0938,-0.0156 -0.1406,-0.0625 l -20.6094,-16.0156 15,-35.1094 Q 66.8438,4.5 68.4062,4 q 1.5626,-0.48438 4.7813,-0.48438 1.0313,0 1.0313,-1.3125 Q 73.9219,1.03125 73.625,0.515625 73.3438,0 72.5156,0 L 49.3125,0 q -0.9219,0 -0.9219,1.3125 0.1406,1.03125 0.3282,1.60938 0.2031,0.59374 0.9843,0.59374 2.5469,0 4.3281,0.51563 1.7813,0.51563 1.7813,2.35937 0,0.6875 -0.0937,1.03126 L 43.3125,36.2812 28.7188,25 24.125,6.5 q -0.25,-1.21875 -0.25,-1.42188 0,-1.03124 1.2188,-1.17187 Q 27,3.51562 32.3281,3.51562 q 0.9688,0 0.9688,-1.3125 Q 32.9531,0.78125 32.75,0.390625 32.5625,0 31.5938,0 z" />
          <path
             style="stroke-linecap:butt;stroke-linejoin:round"
             inkscape:connector-curvature="0"
             id="Cmmi10-6c"
             d="m 4.39062,8.10938 q 0,0.29687 0.07813,0.875 0.07813,0.59374 0.14063,1.14062 0.07812,0.5625 0.07812,0.8594 L 17.0938,60.5 q 0.3906,1.7031 0.4843,2.6875 0,1.6094 -6.5,1.6094 -0.9687,0 -0.9687,1.3125 0.0468,0.25 0.2187,0.875 0.1719,0.6406 0.4375,0.9844 0.2656,0.3437 0.7656,0.3437 L 25,69.3906 q 1.2188,0 1.2188,-1.2812 L 11.8125,10.5938 q -0.7344,-1.60942 -0.7344,-4.7813 0,-4.29688 2.9375,-4.29688 3.0782,0 4.6094,3.82813 1.5469,3.84375 2.7656,9.35935 0.1875,0.5781 0.8282,0.5781 l 1.1718,0 q 0.3906,0 0.6563,-0.3124 0.2656,-0.3126 0.2656,-0.6563 Q 23.1406,9.46875 22.1875,6.65625 21.2344,3.85938 19.1406,1.35938 17.0469,-1.125 13.8125,-1.125 q -4,0 -6.71875,2.57812 -2.70313,2.59376 -2.70313,6.65626" />
          <path
             style="stroke-linecap:butt;stroke-linejoin:round"
             inkscape:connector-curvature="0"
             id="Cmmi10-56"
             d="m 22.0156,-1.125 -8,63.7188 q -0.7344,2.2031 -7.5156,2.2031 -0.98438,0 -0.98438,1.3125 Q 5.71875,67.1875 6,67.75 q 0.29688,0.5625 1.17188,0.5625 l 24.42192,0 q 0.5312,0 0.7812,-0.3906 0.25,-0.3907 0.25,-0.9219 -0.3906,-2.2031 -1.3281,-2.2031 -7.8125,0 -8.2969,-2.6875 L 29.5938,9.8125 60.4062,58.9844 q 0.875,1.6562 0.875,2.6406 0,1.75 -1.5937,2.4531 -1.5781,0.7188 -3.6875,0.7188 -1.0156,0 -1.0156,1.3125 0.1875,0.7812 0.3281,1.2187 0.1563,0.4531 0.4531,0.7188 0.2969,0.2656 0.9219,0.2656 l 19.2969,0 q 0.9218,0 0.9218,-1.3125 -0.3906,-2.2031 -1.3124,-2.2031 -7.5313,0 -11.7813,-6.5938 -0.1875,-0.1875 -0.3281,-0.1875 L 26.6094,-1.125 Q 25.875,-2.20312 24.7031,-2.20312 l -1.4062,0 q -1.125,0 -1.2813,1.07812" />
          <path
             style="stroke-linecap:butt;stroke-linejoin:round"
             inkscape:connector-curvature="0"
             id="Cmmi10-67"
             d="m 1.42188,-14.3125 q 0,2.4531 1.67187,4.2813 1.6875,1.82808 4.07813,1.82808 1.625,0 2.71874,-1 1.09378,-0.99998 1.09378,-2.60938 0,-1.8125 -1.03128,-3.25 -1.01562,-1.4375 -2.625,-2.0313 2.68748,-0.8281 8.39068,-0.8281 4.5937,0 8.4062,3.5469 3.8125,3.5312 4.9844,8.17188 l 2.875,11.71874 Q 26.5625,0 20.7031,0 16.4062,0 13.3438,2.1875 10.2969,4.39062 8.6875,8.04688 7.07812,11.7188 7.07812,15.8281 q 0,4.5781 1.875,9.6094 1.89068,5.0313 5.28128,9.3281 3.3906,4.2969 7.7812,6.8594 4.4063,2.5625 9.2813,2.5625 2.9375,0 5.2812,-1.6094 2.3438,-1.6093 3.7031,-4.2969 0.9844,3.9063 4.2969,3.9063 1.2657,0 2.1407,-0.7656 0.8906,-0.75 0.8906,-2.0157 0,-0.2968 -0.0313,-0.4531 -0.0156,-0.1406 -0.0625,-0.3281 L 36.0781,-6.78125 q -0.7812,-3.125 -2.875,-5.71875 -2.0937,-2.5938 -4.9375,-4.3281 -2.8281,-1.7344 -6.2031,-2.7031 -3.3594,-0.9844 -6.4844,-0.9844 -5.71872,0 -9.93748,1.1094 -4.21874,1.0937 -4.21874,5.0937 M 20.9062,2.59375 q 6.3907,0 12.5938,8.78125 l 5.5156,21.8281 q -0.6875,3.4688 -2.7344,5.9375 -2.0468,2.4688 -5.1718,2.4688 -3.3282,0 -6.2813,-2.7188 -2.9531,-2.7031 -4.9062,-6.4687 -1.8594,-3.6094 -3.5938,-10.375 -1.7343,-6.7657 -1.7343,-10.6719 0,-3.42188 1.5624,-6.10938 1.5626,-2.67187 4.75,-2.67187" />
          <path
             style="stroke-linecap:butt;stroke-linejoin:round"
             inkscape:connector-curvature="0"
             id="Cmr10-28"
             d="m 31,-24.8125 q -5.5625,4.4063 -9.5938,10.0937 -4.0156,5.68755 -6.5937,12.14068 Q 12.25,3.85938 10.9844,10.8906 9.71875,17.9219 9.71875,25 q 0,7.1719 1.26565,14.2031 1.2656,7.0313 3.875,13.5313 2.625,6.5 6.6718,12.1562 Q 25.5938,70.5625 31,74.8125 31,75 31.5,75 l 0.9219,0 q 0.2969,0 0.5312,-0.2656 0.25,-0.2656 0.25,-0.6094 0,-0.4375 -0.1875,-0.6406 Q 28.125,68.7031 24.875,63.2344 21.625,57.7656 19.6406,51.5781 17.6719,45.4062 16.7969,38.7812 15.9219,32.1719 15.9219,25 q 0,-31.78125 16.9843,-48.2969 0.2969,-0.2812 0.2969,-0.8281 0,-0.2344 -0.2656,-0.5469 Q 32.6719,-25 32.4219,-25 L 31.5,-25 q -0.5,0 -0.5,0.1875" />
          <path
             style="stroke-linecap:butt;stroke-linejoin:round"
             inkscape:connector-curvature="0"
             id="Cmr10-3d"
             d="m 7.51562,13.2812 q -0.82812,0 -1.375,0.625 -0.53124,0.6407 -0.53124,1.375 0,0.8282 0.53124,1.4063 0.54688,0.5937 1.375,0.5937 l 62.79688,0 q 0.7344,0 1.2656,-0.5937 0.5469,-0.5781 0.5469,-1.4063 0,-0.7343 -0.5469,-1.375 -0.5312,-0.625 -1.2656,-0.625 z m 0,19.4376 q -0.82812,0 -1.375,0.5781 -0.53124,0.5937 -0.53124,1.4219 0,0.7343 0.53124,1.3593 0.54688,0.6407 1.375,0.6407 l 62.79688,0 q 0.7344,0 1.2656,-0.6407 0.5469,-0.625 0.5469,-1.3593 0,-0.8282 -0.5469,-1.4219 -0.5312,-0.5781 -1.2656,-0.5781 z" />
          <path
             style="stroke-linecap:butt;stroke-linejoin:round"
             inkscape:connector-curvature="0"
             id="Cmmi10-6e"
             d="m 7.71875,1.70312 q 0,0.59376 0.09375,0.89063 l 7.4687,29.82815 q 0.7344,2.7812 0.7344,4.8906 0,4.2969 -2.9218,4.2969 -3.12505,0 -4.64068,-3.75 -1.51562,-3.7344 -2.9375,-9.4375 0,-0.2969 -0.29687,-0.4688 Q 4.9375,27.7812 4.6875,27.7812 l -1.17188,0 q -0.34374,0 -0.59374,0.3594 -0.23438,0.375 -0.23438,0.6719 1.07812,4.3437 2.07812,7.3594 1,3.0312 3.125,5.5156 2.12498,2.5 5.29688,2.5 3.75,0 6.625,-2.375 2.8906,-2.3594 2.8906,-6.0156 2.9844,3.9062 6.9844,6.1406 4,2.25 8.5,2.25 3.5625,0 6.1406,-1.2187 2.5938,-1.2188 4.0313,-3.6876 1.4531,-2.4687 1.4531,-5.875 0,-4.1093 -1.8437,-9.9218 Q 46.1406,17.6719 43.4062,10.5 42,7.23438 42,4.5 q 0,-2.98438 2.2812,-2.98438 3.9063,0 6.5157,4.1875 2.625,4.20313 3.7031,8.99998 0.1875,0.5781 0.8281,0.5781 l 1.1719,0 q 0.3906,0 0.6562,-0.25 0.2657,-0.2343 0.2657,-0.625 0,-0.0937 -0.0938,-0.2968 Q 55.9531,8.45312 52.5625,3.65625 49.1719,-1.125 44.0938,-1.125 q -3.5157,0 -6.0157,2.42188 -2.4843,2.42187 -2.4843,5.875 0,1.85937 0.7812,3.90622 1.2656,3.2813 2.9062,7.8125 1.6407,4.5469 2.6876,8.6875 1.0468,4.1563 1.0468,7.3281 0,2.7969 -1.1562,4.75 -1.1406,1.9532 -3.875,1.9532 -3.6563,0 -6.7344,-1.625 -3.0781,-1.6094 -5.375,-4.2656 -2.2969,-2.6563 -4.1875,-6.3282 L 14.8906,2.20312 Q 14.5469,0.828125 13.3438,-0.140625 12.1562,-1.125 10.6875,-1.125 q -1.21875,0 -2.09375,0.78125 -0.875,0.78125 -0.875,2.04687" />
          <path
             style="stroke-linecap:butt;stroke-linejoin:round"
             inkscape:connector-curvature="0"
             id="Cmmi10-61"
             d="m 17.3906,-1.125 q -6.3125,0 -9.9531,4.76562 -3.625,4.76563 -3.625,11.24998 0,6.4063 3.3125,13.2813 3.3281,6.8906 8.9688,11.4531 5.6406,4.5625 12.125,4.5625 2.9843,0 5.3281,-1.6094 2.3437,-1.6093 3.6562,-4.3906 1.125,4 4.4063,4 1.2656,0 2.1094,-0.7656 0.8593,-0.75 0.8593,-2.0157 0,-0.2968 -0.0312,-0.4531 -0.0157,-0.1406 -0.0625,-0.3281 L 37.5,10.6875 q -0.6875,-2.96875 -0.6875,-4.875 0,-4.29688 2.8906,-4.29688 3.125,0 4.75,3.96876 1.6407,3.98437 2.7657,9.21872 0.1874,0.5781 0.7812,0.5781 l 1.2188,0 q 0.3906,0 0.625,-0.3437 0.25,-0.3437 0.25,-0.625 Q 48.3438,7.32812 46.2656,3.09375 44.1875,-1.125 39.5,-1.125 q -3.3594,0 -5.9531,1.96875 Q 30.9531,2.82812 30.3281,6.10938 23.875,-1.125 17.3906,-1.125 m 0.0938,2.64062 q 3.6094,0 7,2.70313 3.3906,2.71875 5.8437,6.37505 0.0938,0.0937 0.0938,0.2968 l 5.375,21.7344 0.0937,0.2812 q -0.5937,3.5626 -2.5781,6.125 -1.9687,2.5782 -5.3281,2.5782 -3.375,0 -6.2813,-2.7656 -2.9062,-2.7657 -4.9062,-6.5157 -1.9531,-4 -3.7344,-10.9843 -1.7813,-6.9844 -1.7813,-10.8438 0,-3.46875 1.4844,-6.23438 1.5,-2.75 4.7188,-2.75" />
          <path
             style="stroke-linecap:butt;stroke-linejoin:round"
             inkscape:connector-curvature="0"
             id="Cmmi10-65"
             d="m 20.125,-1.125 q -4.7969,0 -8.3906,2.48438 -3.57815,2.5 -5.46878,6.71874 -1.875,4.23438 -1.875,8.92188 0,7.125 3.59376,13.3906 3.59372,6.2813 9.73442,10.0313 6.1562,3.7656 13.1874,3.7656 4.2969,0 7.5,-2.2187 3.2032,-2.2188 3.2032,-6.375 0,-5.7657 -4.5938,-8.5782 -4.5937,-2.7968 -10.3594,-3.4531 -5.75,-0.6563 -12.7343,-0.6563 l -0.2969,0 q -1.6094,-5.9687 -1.6094,-10.2031 0,-4.4531 2.0469,-7.8281 2.0469,-3.35938 6.25,-3.35938 5.9531,0 11.4375,2.73438 5.5,2.73438 8.9688,7.5625 0.2968,0.2969 0.7812,0.2969 0.5,0 1,-0.5625 0.5156,-0.5625 0.5156,-1.0469 0,-0.3906 -0.1875,-0.59375 -3.6719,-5.125 -9.875,-8.07813 Q 26.7656,-1.125 20.125,-1.125 m -5.9219,26.6094 q 5.8125,0 10.75,0.5312 4.9375,0.5469 8.9375,2.7188 4,2.1718 4,6.7656 0,1.8594 -1.0312,3.25 -1.0156,1.3906 -2.6563,2.125 -1.6406,0.7344 -3.3906,0.7344 -4.25,0 -7.6406,-2.2969 -3.3907,-2.2969 -5.5938,-5.9844 -2.2031,-3.6875 -3.375,-7.8437" />
          <path
             style="stroke-linecap:butt;stroke-linejoin:round"
             inkscape:connector-curvature="0"
             id="Cmr10-29"
             d="m 6.5,-25 q -0.89062,0 -0.89062,0.875 0,0.4375 0.20312,0.6406 Q 22.9062,-6.78125 22.9062,25 22.9062,56.7812 6,73.2969 5.60938,73.5312 5.60938,74.125 q 0,0.3438 0.26562,0.6094 Q 6.15625,75 6.5,75 l 0.92188,0 q 0.29687,0 0.48437,-0.1875 7.18755,-5.6719 11.96875,-13.7813 4.7812,-8.0937 7,-17.2812 2.2344,-9.1719 2.2344,-18.75 0,-7.0781 -1.2032,-13.9375 Q 26.7031,4.20312 24.0938,-2.45312 21.4844,-9.125 17.4844,-14.7656 q -4,-5.6406 -9.57815,-10.0469 Q 7.71875,-25 7.42188,-25 z" />
        </defs>
        <g
           style="stroke-linecap:butt;stroke-linejoin:round"
           id="g139"
           transform="matrix(0.144,0,0,-0.144,386.784,62.928)">
          <use
             height="360"
             width="576"
             y="0"
             x="0"
             style="stroke-linecap:butt;stroke-linejoin:round"
             id="use141"
             xlink:href="#Cmmi10-56"
             transform="translate(0,0.8828125)" />
          <use
             height="360"
             width="576"
             y="0"
             x="0"
             style="stroke-linecap:butt;stroke-linejoin:round"
             id="use143"
             xlink:href="#Cmmi10-61"
             transform="matrix(0.7,0,0,0.7,58.300781,-24.626563)" />
          <use
             height="360"
             width="576"
             y="0"
             x="0"
             style="stroke-linecap:butt;stroke-linejoin:round"
             id="use145"
             xlink:href="#Cmmi10-6e"
             transform="matrix(0.7,0,0,0.7,95.249023,-24.626563)" />
          <use
             height="360"
             width="576"
             y="0"
             x="0"
             style="stroke-linecap:butt;stroke-linejoin:round"
             id="use147"
             xlink:href="#Cmmi10-67"
             transform="matrix(0.7,0,0,0.7,137.25586,-24.626563)" />
          <use
             height="360"
             width="576"
             y="0"
             x="0"
             style="stroke-linecap:butt;stroke-linejoin:round"
             id="use149"
             xlink:href="#Cmmi10-6c"
             transform="matrix(0.7,0,0,0.7,170.64941,-24.626563)" />
          <use
             height="360"
             width="576"
             y="0"
             x="0"
             style="stroke-linecap:butt;stroke-linejoin:round"
             id="use151"
             xlink:href="#Cmmi10-65"
             transform="matrix(0.7,0,0,0.7,191.49902,-24.626563)" />
          <use
             height="360"
             width="576"
             y="0"
             x="0"
             style="stroke-linecap:butt;stroke-linejoin:round"
             id="use153"
             xlink:href="#Cmr10-3d"
             transform="translate(241.59668,0.8828125)" />
          <use
             height="360"
             width="576"
             y="0"
             x="0"
             style="stroke-linecap:butt;stroke-linejoin:round"
             id="use155"
             xlink:href="#Cmmi10-4b"
             transform="translate(325.65527,0.8828125)" />
          <use
             height="360"
             width="576"
             y="0"
             x="0"
             style="stroke-linecap:butt;stroke-linejoin:round"
             id="use157"
             xlink:href="#Cmmi10-b5"
             transform="matrix(0.7,0,0,0.7,410.56738,-24.626563)" />
          <use
             height="360"
             width="576"
             y="0"
             x="0"
             style="stroke-linecap:butt;stroke-linejoin:round"
             id="use159"
             xlink:href="#Cmr10-28"
             transform="translate(457.49121,0.8828125)" />
          <use
             height="360"
             width="576"
             y="0"
             x="0"
             style="stroke-linecap:butt;stroke-linejoin:round"
             id="use161"
             xlink:href="#Cmmi10-b5"
             transform="translate(496.30957,0.8828125)" />
          <use
             height="360"
             width="576"
             y="0"
             x="0"
             style="stroke-linecap:butt;stroke-linejoin:round"
             id="use163"
             xlink:href="#Cmsy10-a1"
             transform="translate(543.2334,0.8828125)" />
          <use
             height="360"
             width="576"
             y="0"
             x="0"
             style="stroke-linecap:butt;stroke-linejoin:round"
             id="use165"
             xlink:href="#Cmmi10-b5"
             transform="translate(620.91895,0.8828125)" />
          <use
             height="360"
             width="576"
             y="0"
             x="0"
             style="stroke-linecap:butt;stroke-linejoin:round"
             id="use167"
             xlink:href="#Cmr10-30"
             transform="matrix(0.7,0,0,0.7,667.84277,-24.626563)" />
          <use
             height="360"
             width="576"
             y="0"
             x="0"
             style="stroke-linecap:butt;stroke-linejoin:round"
             id="use169"
             xlink:href="#Cmr10-29"
             transform="translate(717.84277,0.8828125)" />
          <use
             height="360"
             width="576"
             y="0"
             x="0"
             style="stroke-linecap:butt;stroke-linejoin:round"
             id="use171"
             xlink:href="#Cmr10-32"
             transform="matrix(0.7,0,0,0.7,756.66113,50.373438)" />
        </g>
      </g>
    </g>
  </g>
  <defs
     id="defs173">
    <clipPath
       id="p44692e4afb">
      <rect
         height="288.0"
         width="446.4"
         x="72.0"
         y="36.0"
         id="rect176" />
    </clipPath>
  </defs>
</svg>
