<?xml version="1.0" encoding="utf-8" standalone="no"?>
<!DOCTYPE svg PUBLIC "-//W3C//DTD SVG 1.1//EN"
  "http://www.w3.org/Graphics/SVG/1.1/DTD/svg11.dtd">
<!-- Created with matplotlib (http://matplotlib.sourceforge.net/) -->
<svg height="360pt" version="1.1" viewBox="0 0 576 360" width="576pt" xmlns="http://www.w3.org/2000/svg" xmlns:xlink="http://www.w3.org/1999/xlink">
 <defs>
  <style type="text/css">
*{stroke-linecap:square;stroke-linejoin:round;}
  </style>
 </defs>
 <g id="figure_1">
  <g id="patch_1">
   <path d="
M0 360
L576 360
L576 0
L0 0
z
" style="fill:#ffffff;"/>
  </g>
  <g id="axes_1">
   <g id="patch_2">
    <path d="
M72 324
L518.4 324
L518.4 36
L72 36
z
" style="fill:#ffffff;"/>
   </g>
   <g id="line2d_1">
    <path clip-path="url(#p44692e4afb)" d="
M90.4463 188.745
L95.2206 187.353
L99.9949 186.274
L104.769 185.514
L109.544 185.078
L114.318 184.97
L119.092 185.19
L123.867 185.737
L128.641 186.606
L133.415 187.793
L138.19 189.29
L142.964 191.085
L147.738 193.169
L152.513 195.526
L157.287 198.142
L162.061 200.999
L166.836 204.078
L173.201 208.494
L179.567 213.216
L187.524 219.466
L197.073 227.322
L225.719 251.196
L233.676 257.368
L240.042 262.01
L246.408 266.331
L251.182 269.33
L255.956 272.099
L260.731 274.621
L265.505 276.879
L270.279 278.857
L275.054 280.543
L279.828 281.925
L284.602 282.995
L289.377 283.745
L294.151 284.171
L298.925 284.269
L303.7 284.039
L308.474 283.483
L313.248 282.604
L318.023 281.407
L322.797 279.902
L327.571 278.097
L332.346 276.005
L337.12 273.639
L341.894 271.016
L346.669 268.152
L351.443 265.067
L357.809 260.644
L364.175 255.915
L372.132 249.659
L381.681 241.799
L408.735 219.204
L416.692 212.968
L423.058 208.26
L429.424 203.861
L434.198 200.797
L438.972 197.956
L443.747 195.357
L448.521 193.018
L453.295 190.954
L458.07 189.178
L462.844 187.702
L467.618 186.537
L472.393 185.689
L477.167 185.165
L481.941 184.967
L486.716 185.098
L491.49 185.556
L496.264 186.337
L496.264 186.337" style="fill:none;stroke:#0000ff;stroke-dasharray:6.000000,6.000000;stroke-dashoffset:0.0;stroke-linecap:butt;stroke-width:1.5;"/>
   </g>
   <g id="line2d_2">
    <path clip-path="url(#p44692e4afb)" d="
M90.4463 215.618
L92.0377 211.955
L93.6292 208.442
L96.8121 201.956
L98.4035 199.026
L99.9949 196.331
L101.586 193.89
L103.178 191.718
L104.769 189.829
L106.361 188.236
L107.952 186.95
L109.544 185.979
L111.135 185.329
L112.726 185.005
L114.318 185.008
L115.909 185.34
L117.501 185.997
L119.092 186.976
L120.684 188.269
L122.275 189.869
L123.867 191.764
L125.458 193.943
L127.049 196.39
L128.641 199.09
L131.824 205.175
L135.007 212.037
L138.19 219.495
L142.964 231.365
L149.33 247.369
L152.513 254.971
L155.695 262.036
L158.878 268.377
L160.47 271.223
L162.061 273.828
L163.653 276.173
L165.244 278.244
L166.836 280.026
L168.427 281.509
L170.018 282.681
L171.61 283.536
L173.201 284.068
L174.793 284.273
L176.384 284.15
L177.976 283.7
L179.567 282.925
L181.159 281.831
L182.75 280.426
L184.341 278.717
L185.933 276.717
L187.524 274.439
L189.116 271.898
L190.707 269.11
L193.89 262.872
L197.073 255.887
L200.256 248.342
L206.622 232.373
L211.396 220.459
L214.579 212.94
L217.762 205.994
L220.945 199.802
L222.536 197.042
L224.128 194.53
L225.719 192.283
L227.31 190.315
L228.902 188.641
L230.493 187.27
L232.085 186.212
L233.676 185.474
L235.268 185.061
L236.859 184.975
L238.451 185.217
L240.042 185.786
L241.633 186.677
L243.225 187.886
L244.816 189.403
L246.408 191.219
L247.999 193.321
L249.591 195.697
L251.182 198.33
L254.365 204.296
L257.548 211.062
L260.731 218.45
L265.505 230.268
L273.462 250.183
L276.645 257.612
L279.828 264.435
L283.011 270.47
L284.602 273.143
L286.194 275.56
L287.785 277.707
L289.377 279.57
L290.968 281.135
L292.56 282.393
L294.151 283.335
L295.743 283.956
L297.334 284.25
L298.925 284.216
L300.517 283.855
L302.108 283.168
L303.7 282.161
L305.291 280.839
L306.883 279.212
L308.474 277.291
L310.066 275.087
L311.657 272.616
L313.248 269.894
L316.431 263.77
L319.614 256.877
L322.797 249.397
L327.571 237.51
L333.937 221.518
L337.12 213.936
L340.303 206.9
L343.486 200.596
L345.077 197.771
L346.669 195.189
L348.26 192.868
L349.852 190.823
L351.443 189.068
L353.035 187.613
L354.626 186.469
L356.217 185.643
L357.809 185.141
L359.4 184.966
L360.992 185.119
L362.583 185.599
L364.175 186.402
L365.766 187.525
L367.358 188.959
L368.949 190.694
L370.54 192.72
L372.132 195.023
L373.723 197.587
L375.315 200.396
L378.498 206.672
L381.681 213.686
L384.863 221.253
L391.229 237.235
L396.004 249.134
L399.186 256.631
L402.369 263.547
L405.552 269.7
L407.144 272.438
L408.735 274.927
L410.326 277.149
L411.918 279.091
L413.509 280.738
L415.101 282.081
L416.692 283.11
L418.284 283.819
L419.875 284.202
L421.467 284.258
L423.058 283.986
L424.649 283.388
L426.241 282.467
L427.832 281.231
L429.424 279.686
L431.015 277.843
L432.607 275.715
L434.198 273.316
L435.79 270.66
L438.972 264.654
L442.155 257.856
L445.338 250.444
L450.113 238.608
L458.07 218.71
L461.253 211.304
L464.436 204.514
L467.618 198.518
L469.21 195.868
L470.801 193.475
L472.393 191.353
L473.984 189.517
L475.576 187.979
L477.167 186.75
L478.759 185.836
L480.35 185.246
L481.941 184.981
L483.533 185.044
L485.124 185.435
L486.716 186.151
L488.307 187.188
L489.899 188.537
L491.49 190.192
L493.082 192.14
L494.673 194.368
L496.264 196.863
L496.264 196.863" style="fill:none;stroke:#ff0000;stroke-dasharray:6.000000,6.000000;stroke-dashoffset:0.0;stroke-linecap:butt;stroke-width:1.5;"/>
   </g>
   <g id="line2d_3">
    <path clip-path="url(#p44692e4afb)" d="
M90.4463 154.417
L92.0377 152.087
L93.6292 149.866
L96.8121 145.798
L99.9949 142.302
L101.586 140.792
L103.178 139.452
L104.769 138.291
L106.361 137.313
L107.952 136.524
L109.544 135.93
L111.135 135.532
L112.726 135.334
L114.318 135.337
L115.909 135.539
L117.501 135.941
L119.092 136.54
L120.684 137.333
L122.275 138.315
L123.867 139.481
L125.458 140.824
L127.049 142.338
L130.232 145.842
L133.415 149.915
L136.598 154.471
L139.781 159.411
L144.555 167.311
L155.695 186.123
L158.878 191.119
L162.061 195.775
L165.244 200.012
L168.427 203.767
L171.61 206.989
L174.793 209.646
L176.384 210.757
L177.976 211.722
L179.567 212.541
L181.159 213.216
L182.75 213.75
L184.341 214.146
L185.933 214.41
L187.524 214.547
L189.116 214.564
L192.299 214.266
L195.482 213.586
L198.664 212.604
L203.439 210.758
L211.396 207.492
L214.579 206.403
L217.762 205.579
L220.945 205.103
L222.536 205.019
L224.128 205.048
L225.719 205.199
L227.31 205.478
L228.902 205.89
L230.493 206.44
L232.085 207.131
L233.676 207.967
L235.268 208.948
L236.859 210.075
L238.451 211.348
L241.633 214.323
L244.816 217.847
L247.999 221.878
L251.182 226.357
L254.365 231.213
L259.139 239.016
L271.871 260.465
L275.054 265.386
L278.237 269.916
L281.42 273.96
L284.602 277.429
L286.194 278.923
L287.785 280.247
L289.377 281.392
L290.968 282.353
L292.56 283.124
L294.151 283.701
L295.743 284.08
L297.334 284.26
L298.925 284.239
L300.517 284.019
L302.108 283.599
L303.7 282.982
L305.291 282.172
L306.883 281.173
L308.474 279.99
L310.066 278.631
L311.657 277.102
L314.84 273.571
L318.023 269.474
L321.206 264.899
L324.389 259.944
L329.163 252.03
L340.303 233.23
L343.486 228.247
L346.669 223.609
L349.852 219.392
L353.035 215.661
L356.217 212.464
L359.4 209.833
L360.992 208.735
L362.583 207.784
L364.175 206.978
L365.766 206.316
L367.358 205.795
L368.949 205.41
L370.54 205.158
L372.132 205.033
L373.723 205.027
L376.906 205.343
L380.089 206.039
L383.272 207.033
L388.046 208.888
L396.004 212.148
L399.186 213.227
L402.369 214.037
L405.552 214.496
L407.144 214.57
L408.735 214.529
L410.326 214.367
L411.918 214.076
L413.509 213.652
L415.101 213.089
L416.692 212.385
L418.284 211.536
L419.875 210.542
L421.467 209.401
L423.058 208.115
L426.241 205.114
L429.424 201.566
L432.607 197.514
L435.79 193.016
L438.972 188.145
L443.747 180.327
L456.478 158.891
L459.661 153.985
L462.844 149.475
L466.027 145.456
L469.21 142.015
L470.801 140.536
L472.393 139.228
L473.984 138.099
L475.576 137.155
L477.167 136.402
L478.759 135.843
L480.35 135.482
L481.941 135.32
L483.533 135.359
L485.124 135.598
L486.716 136.036
L488.307 136.67
L489.899 137.497
L491.49 138.513
L493.082 139.712
L494.673 141.087
L496.264 142.631
L496.264 142.631" style="fill:none;stroke:#008000;stroke-width:2.5;"/>
   </g>
   <g id="line2d_4">
    <path clip-path="url(#p44692e4afb)" d="
M297.967 284.276
L297.967 125.379" style="fill:none;stroke:#008000;stroke-dasharray:6.000000,6.000000;stroke-dashoffset:0.0;stroke-linecap:butt;"/>
   </g>
   <g id="matplotlib.axis_1">
    <g id="xtick_1">
     <g id="line2d_5">
      <defs>
       <path d="
M0 0
L0 -4" id="m0012dd4eef" style="stroke:#000000;stroke-linecap:butt;stroke-width:0.5;"/>
      </defs>
      <g>
       <use style="stroke:#000000;stroke-linecap:butt;stroke-width:0.5;" x="90.4462809917" xlink:href="#m0012dd4eef" y="284.275862069"/>
      </g>
     </g>
     <g id="text_1">
      <!-- $-\pi$ -->
      <defs>
       <path d="
M10.2031 23
Q9.375 23 8.82812 23.625
Q8.29688 24.2656 8.29688 25
Q8.29688 25.7344 8.82812 26.3594
Q9.375 27 10.2031 27
L67.5781 27
Q68.3594 27 68.875 26.3594
Q69.3906 25.7344 69.3906 25
Q69.3906 24.2656 68.875 23.625
Q68.3594 23 67.5781 23
z
" id="Cmsy10-a1"/>
       <path d="
M10.1094 1.70312
Q10.1094 2.25 10.5 3.32812
Q13.2812 9.125 15.6875 14.7188
Q18.1094 20.3125 20.0312 25.6094
Q21.9688 30.9062 23.5781 36.9219
L17.1875 36.9219
Q13.5312 36.9219 10.3438 34.625
Q7.17188 32.3281 5.07812 28.8125
Q4.89062 28.4219 4.5 28.4219
L3.32812 28.4219
Q2.39062 28.4219 2.39062 29.3906
Q2.39062 29.5938 2.59375 29.9844
Q5.85938 35.5469 9.59375 39.3281
Q13.3281 43.1094 18.0156 43.1094
L54.2969 43.1094
Q55.3281 43.1094 56.0469 42.4219
Q56.7812 41.75 56.7812 40.5781
Q56.7812 39.1094 55.7344 38.0156
Q54.6875 36.9219 53.2188 36.9219
L40.4844 36.9219
Q38.875 29.0469 38.7188 21.5781
Q38.7188 11.9688 42.0938 4.20312
Q42.3906 3.60938 42.3906 2.98438
Q42.3906 1.90625 41.75 0.96875
Q41.1094 0.046875 40.1094 -0.53125
Q39.1094 -1.125 37.9844 -1.125
Q35.3594 -1.125 34.375 3.17188
Q33.4062 7.46875 33.4062 11.5312
Q33.4062 17.2344 34.375 22.5312
Q35.3594 27.8281 37.5 36.9219
L26.6094 36.9219
Q18.7031 4.89062 17.0938 1.60938
Q15.6719 -1.125 13.1875 -1.125
Q11.9688 -1.125 11.0312 -0.3125
Q10.1094 0.484375 10.1094 1.70312" id="Cmmi10-bc"/>
      </defs>
      <g transform="translate(82.3462809917 293.795862069)scale(0.12 -0.12)">
       <use transform="translate(0.0 2.890625)" xlink:href="#Cmsy10-a1"/>
       <use transform="translate(77.685546875 2.890625)" xlink:href="#Cmmi10-bc"/>
      </g>
     </g>
    </g>
    <g id="xtick_2">
     <g id="line2d_6">
      <g>
       <use style="stroke:#000000;stroke-linecap:butt;stroke-width:0.5;" x="182.67768595" xlink:href="#m0012dd4eef" y="284.275862069"/>
      </g>
     </g>
     <g id="text_2">
      <!-- $-\pi/2$ -->
      <defs>
       <path d="
M4.98438 0
L4.98438 2.6875
Q4.98438 2.9375 5.17188 3.21875
L20.7031 20.4062
Q24.2188 24.2188 26.4062 26.7969
Q28.6094 29.3906 30.75 32.7656
Q32.9062 36.1406 34.1562 39.625
Q35.4062 43.1094 35.4062 47.0156
Q35.4062 51.125 33.8906 54.8594
Q32.375 58.5938 29.375 60.8438
Q26.375 63.0938 22.125 63.0938
Q17.7812 63.0938 14.3125 60.4688
Q10.8438 57.8594 9.42188 53.7188
Q9.8125 53.8125 10.5 53.8125
Q12.75 53.8125 14.3281 52.2969
Q15.9219 50.7812 15.9219 48.3906
Q15.9219 46.0938 14.3281 44.5
Q12.75 42.9219 10.5 42.9219
Q8.15625 42.9219 6.5625 44.5469
Q4.98438 46.1875 4.98438 48.3906
Q4.98438 52.1562 6.39062 55.4375
Q7.8125 58.7344 10.4688 61.2969
Q13.1406 63.875 16.4844 65.2344
Q19.8281 66.6094 23.5781 66.6094
Q29.2969 66.6094 34.2188 64.1875
Q39.1562 61.7656 42.0312 57.3438
Q44.9219 52.9375 44.9219 47.0156
Q44.9219 42.6719 43.0156 38.7656
Q41.1094 34.8594 38.125 31.6562
Q35.1562 28.4688 30.5156 24.4062
Q25.875 20.3594 24.4219 19
L13.0938 8.10938
L22.7031 8.10938
Q29.7812 8.10938 34.5469 8.21875
Q39.3125 8.34375 39.5938 8.59375
Q40.7656 9.85938 42 17.8281
L44.9219 17.8281
L42.0938 0
z
" id="Cmr10-32"/>
       <path d="
M5.60938 -23
Q5.60938 -22.7031 5.71875 -22.6094
L40.4844 73.7812
Q40.6719 74.3594 41.1562 74.6719
Q41.6562 75 42.2812 75
Q43.1719 75 43.7188 74.4531
Q44.2812 73.9219 44.2812 73
L44.2812 72.6094
L9.51562 -23.7812
Q8.9375 -25 7.625 -25
Q6.78125 -25 6.1875 -24.4062
Q5.60938 -23.8281 5.60938 -23" id="Cmmi10-3d"/>
      </defs>
      <g transform="translate(168.57768595 300.275862069)scale(0.12 -0.12)">
       <use transform="translate(0.0 25.0)" xlink:href="#Cmsy10-a1"/>
       <use transform="translate(77.685546875 25.0)" xlink:href="#Cmmi10-bc"/>
       <use transform="translate(134.66796875 25.0)" xlink:href="#Cmmi10-3d"/>
       <use transform="translate(184.66796875 25.0)" xlink:href="#Cmr10-32"/>
      </g>
     </g>
    </g>
    <g id="xtick_3">
     <g id="line2d_7">
      <g>
       <use style="stroke:#000000;stroke-linecap:butt;stroke-width:0.5;" x="274.909090909" xlink:href="#m0012dd4eef" y="284.275862069"/>
      </g>
     </g>
     <g id="text_3">
      <!-- $0$ -->
      <defs>
       <path d="
M25 -2.20312
Q12.75 -2.20312 8.32812 7.875
Q3.90625 17.9688 3.90625 31.8906
Q3.90625 40.5781 5.48438 48.2344
Q7.07812 55.9062 11.7812 61.25
Q16.5 66.6094 25 66.6094
Q31.5938 66.6094 35.7812 63.375
Q39.9844 60.1562 42.1875 55.0469
Q44.3906 49.9531 45.1875 44.1094
Q46 38.2812 46 31.8906
Q46 23.2969 44.4062 15.7969
Q42.8281 8.29688 38.1875 3.04688
Q33.5469 -2.20312 25 -2.20312
M25 0.390625
Q30.5625 0.390625 33.2969 6.09375
Q36.0312 11.8125 36.6719 18.75
Q37.3125 25.6875 37.3125 33.5
Q37.3125 41.0156 36.6719 47.3594
Q36.0312 53.7188 33.3125 58.8594
Q30.6094 64.0156 25 64.0156
Q19.3438 64.0156 16.6094 58.8281
Q13.875 53.6562 13.2344 47.3281
Q12.5938 41.0156 12.5938 33.5
Q12.5938 27.9375 12.8594 23
Q13.1406 18.0625 14.3125 12.8125
Q15.4844 7.5625 18.0938 3.96875
Q20.7031 0.390625 25 0.390625" id="Cmr10-30"/>
      </defs>
      <g transform="translate(271.909090909 296.675862069)scale(0.12 -0.12)">
       <use transform="translate(0.0 3.390625)" xlink:href="#Cmr10-30"/>
      </g>
     </g>
    </g>
    <g id="xtick_4">
     <g id="line2d_8">
      <g>
       <use style="stroke:#000000;stroke-linecap:butt;stroke-width:0.5;" x="367.140495868" xlink:href="#m0012dd4eef" y="284.275862069"/>
      </g>
     </g>
     <g id="text_4">
      <!-- $+\pi/2$ -->
      <defs>
       <path d="
M7.51562 23
Q6.6875 23 6.14062 23.625
Q5.60938 24.2656 5.60938 25
Q5.60938 25.7344 6.14062 26.3594
Q6.6875 27 7.51562 27
L36.9219 27
L36.9219 56.5
Q36.9219 57.2812 37.5 57.7812
Q38.0938 58.2969 38.9219 58.2969
Q39.6562 58.2969 40.2812 57.7812
Q40.9219 57.2812 40.9219 56.5
L40.9219 27
L70.3125 27
Q71.0469 27 71.5781 26.3594
Q72.125 25.7344 72.125 25
Q72.125 24.2656 71.5781 23.625
Q71.0469 23 70.3125 23
L40.9219 23
L40.9219 -6.5
Q40.9219 -7.28125 40.2812 -7.78125
Q39.6562 -8.29688 38.9219 -8.29688
Q38.0938 -8.29688 37.5 -7.78125
Q36.9219 -7.28125 36.9219 -6.5
L36.9219 23
z
" id="Cmr10-2b"/>
      </defs>
      <g transform="translate(351.600495868 300.275862069)scale(0.12 -0.12)">
       <use transform="translate(17.55859375 25.0)" xlink:href="#Cmr10-2b"/>
       <use transform="translate(101.6171875 25.0)" xlink:href="#Cmmi10-bc"/>
       <use transform="translate(158.599609375 25.0)" xlink:href="#Cmmi10-3d"/>
       <use transform="translate(208.599609375 25.0)" xlink:href="#Cmr10-32"/>
      </g>
     </g>
    </g>
    <g id="xtick_5">
     <g id="line2d_9">
      <g>
       <use style="stroke:#000000;stroke-linecap:butt;stroke-width:0.5;" x="459.371900826" xlink:href="#m0012dd4eef" y="284.275862069"/>
      </g>
     </g>
     <g id="text_5">
      <!-- $+\pi$ -->
      <g transform="translate(449.831900826 296.435862069)scale(0.12 -0.12)">
       <use transform="translate(17.55859375 9.703125)" xlink:href="#Cmr10-2b"/>
       <use transform="translate(101.6171875 9.703125)" xlink:href="#Cmmi10-bc"/>
      </g>
     </g>
    </g>
    <g id="xtick_6">
     <g id="line2d_10">
      <g>
       <use style="stroke:#000000;stroke-linecap:butt;stroke-width:0.5;" x="297.966942149" xlink:href="#m0012dd4eef" y="284.275862069"/>
      </g>
     </g>
     <g id="text_6">
      <!-- $\phi_0$ -->
      <defs>
       <path d="
M19.3906 -19.4844
L23.875 -1.42188
Q18.7969 -1.42188 14.4062 0.953125
Q10.0156 3.32812 7.34375 7.5625
Q4.6875 11.8125 4.6875 16.7969
Q4.6875 22.2188 7.375 27.1406
Q10.0625 32.0781 14.7188 36.1094
Q19.3906 40.1406 24.75 42.3125
Q30.125 44.4844 35.4062 44.4844
L41.4062 68.7969
Q41.6094 69.3906 42.1875 69.3906
L43.4062 69.3906
Q43.7969 69.3906 44.0312 69.0469
Q44.2812 68.7031 44.2812 68.4062
L38.2812 44.4844
Q42.0469 44.4844 45.5625 43.1094
Q49.0781 41.75 51.7812 39.2812
Q54.5 36.8125 56 33.4688
Q57.5156 30.125 57.5156 26.3125
Q57.5156 20.9062 54.8281 15.9688
Q52.1562 11.0312 47.6094 7.07812
Q43.0625 3.125 37.4688 0.84375
Q31.8906 -1.42188 26.8125 -1.42188
L22.2188 -19.9219
Q22.0156 -20.5156 21.3906 -20.5156
L20.2188 -20.5156
Q19.8281 -20.5156 19.6094 -20.1406
Q19.3906 -19.7812 19.3906 -19.4844
M24.5156 1.21875
L34.7188 41.8906
Q32.1719 41.8906 29.3906 40.8594
Q26.6094 39.8438 24.1406 38.2812
Q21.6875 36.7188 19.6719 34.7188
Q17.2344 32.2812 15.375 28.9531
Q13.5312 25.6406 12.5781 21.9531
Q11.625 18.2656 11.625 14.7031
Q11.625 10.9375 13.2344 7.85938
Q14.8438 4.78125 17.7656 3
Q20.7031 1.21875 24.5156 1.21875
M27.4844 1.21875
Q31.25 1.21875 35.5 3.35938
Q39.75 5.51562 42.4844 8.40625
Q46.2344 12.1094 48.4062 17.5
Q50.5938 22.9062 50.5938 28.4219
Q50.5938 32.125 48.9688 35.2188
Q47.3594 38.3281 44.4219 40.1094
Q41.5 41.8906 37.7031 41.8906
z
" id="Cmmi10-c1"/>
      </defs>
      <g transform="translate(291.366942149 300.035862069)scale(0.12 -0.12)">
       <use transform="translate(0.0 28.609375)" xlink:href="#Cmmi10-c1"/>
       <use transform="translate(59.521484375 3.1)scale(0.7)" xlink:href="#Cmr10-30"/>
      </g>
     </g>
    </g>
   </g>
   <g id="matplotlib.axis_2">
    <g id="ytick_1">
     <g id="line2d_11">
      <defs>
       <path d="
M0 0
L4 0" id="me8a85f7bf6" style="stroke:#000000;stroke-linecap:butt;stroke-width:0.5;"/>
      </defs>
      <g>
       <use style="stroke:#000000;stroke-linecap:butt;stroke-width:0.5;" x="274.909090909" xlink:href="#me8a85f7bf6" y="184.965517241"/>
      </g>
     </g>
     <g id="text_7">
      <!-- $+2$ -->
      <g transform="translate(252.669090909 189.525517241)scale(0.12 -0.12)">
       <use transform="translate(17.55859375 9.390625)" xlink:href="#Cmr10-2b"/>
       <use transform="translate(101.6171875 9.390625)" xlink:href="#Cmr10-32"/>
      </g>
     </g>
    </g>
    <g id="ytick_2">
     <g id="line2d_12">
      <g>
       <use style="stroke:#000000;stroke-linecap:butt;stroke-width:0.5;" x="274.909090909" xlink:href="#me8a85f7bf6" y="234.620689655"/>
      </g>
     </g>
     <g id="text_8">
      <!-- $+1$ -->
      <defs>
       <path d="
M9.28125 0
L9.28125 3.51562
Q21.7812 3.51562 21.7812 6.6875
L21.7812 59.1875
Q16.6094 56.6875 8.6875 56.6875
L8.6875 60.2031
Q20.9531 60.2031 27.2031 66.6094
L28.6094 66.6094
Q28.9531 66.6094 29.2656 66.3281
Q29.5938 66.0625 29.5938 65.7188
L29.5938 6.6875
Q29.5938 3.51562 42.0938 3.51562
L42.0938 0
z
" id="Cmr10-31"/>
      </defs>
      <g transform="translate(252.669090909 239.180689655)scale(0.12 -0.12)">
       <use transform="translate(17.55859375 9.390625)" xlink:href="#Cmr10-2b"/>
       <use transform="translate(101.6171875 9.390625)" xlink:href="#Cmr10-31"/>
      </g>
     </g>
    </g>
    <g id="ytick_3">
     <g id="line2d_13">
      <g>
       <use style="stroke:#000000;stroke-linecap:butt;stroke-width:0.5;" x="274.909090909" xlink:href="#me8a85f7bf6" y="135.310344828"/>
      </g>
     </g>
     <g id="text_9">
      <!-- $+3$ -->
      <defs>
       <path d="
M9.51562 7.71875
Q11.8594 4.29688 15.8125 2.64062
Q19.7812 0.984375 24.3125 0.984375
Q30.125 0.984375 32.5625 5.9375
Q35.0156 10.8906 35.0156 17.1875
Q35.0156 20.0156 34.5 22.8438
Q33.9844 25.6875 32.7656 28.125
Q31.5469 30.5625 29.4219 32.0312
Q27.2969 33.5 24.2188 33.5
L17.5781 33.5
Q16.7031 33.5 16.7031 34.4219
L16.7031 35.2969
Q16.7031 36.0781 17.5781 36.0781
L23.0938 36.5312
Q26.6094 36.5312 28.9219 39.1562
Q31.25 41.7969 32.3281 45.5781
Q33.4062 49.3594 33.4062 52.7812
Q33.4062 57.5625 31.1562 60.6406
Q28.9062 63.7188 24.3125 63.7188
Q20.5156 63.7188 17.0469 62.2812
Q13.5781 60.8438 11.5312 57.9062
Q11.7188 57.9531 11.8594 57.9844
Q12.0156 58.0156 12.2031 58.0156
Q14.4531 58.0156 15.9688 56.4531
Q17.4844 54.8906 17.4844 52.6875
Q17.4844 50.5312 15.9688 48.9688
Q14.4531 47.4062 12.2031 47.4062
Q10.0156 47.4062 8.45312 48.9688
Q6.89062 50.5312 6.89062 52.6875
Q6.89062 56.9844 9.46875 60.1562
Q12.0625 63.3281 16.1406 64.9688
Q20.2188 66.6094 24.3125 66.6094
Q27.3438 66.6094 30.7031 65.7031
Q34.0781 64.7969 36.8125 63.1094
Q39.5469 61.4219 41.2812 58.7812
Q43.0156 56.1562 43.0156 52.7812
Q43.0156 48.5781 41.1406 45.0156
Q39.2656 41.4531 35.9844 38.8594
Q32.7188 36.2812 28.8125 35.0156
Q33.1562 34.1875 37.0625 31.7344
Q40.9688 29.2969 43.3281 25.4844
Q45.7031 21.6875 45.7031 17.2812
Q45.7031 11.7656 42.6719 7.29688
Q39.6562 2.82812 34.7188 0.3125
Q29.7812 -2.20312 24.3125 -2.20312
Q19.625 -2.20312 14.9062 -0.40625
Q10.2031 1.375 7.20312 4.9375
Q4.20312 8.5 4.20312 13.4844
Q4.20312 15.9688 5.85938 17.625
Q7.51562 19.2812 10.0156 19.2812
Q11.625 19.2812 12.9688 18.5312
Q14.3125 17.7812 15.0625 16.4062
Q15.8281 15.0469 15.8281 13.4844
Q15.8281 11.0312 14.1094 9.375
Q12.4062 7.71875 10.0156 7.71875
z
" id="Cmr10-33"/>
      </defs>
      <g transform="translate(252.669090909 139.870344828)scale(0.12 -0.12)">
       <use transform="translate(17.55859375 9.390625)" xlink:href="#Cmr10-2b"/>
       <use transform="translate(101.6171875 9.390625)" xlink:href="#Cmr10-33"/>
      </g>
     </g>
    </g>
   </g>
   <g id="patch_3">
    <path d="
M72 36
L518.4 36" style="fill:none;opacity:0.0;"/>
   </g>
   <g id="patch_4">
    <path d="
M518.4 324
L518.4 36" style="fill:none;opacity:0.0;"/>
   </g>
   <g id="patch_5">
    <path d="
M72 284.276
L518.4 284.276" style="fill:none;stroke:#000000;"/>
   </g>
   <g id="patch_6">
    <path d="
M274.909 324
L274.909 36" style="fill:none;stroke:#000000;"/>
   </g>
   <g id="legend_1">
    <g id="patch_7">
     <path d="
M79.2 114.041
L252.864 114.041
L252.864 43.2
L79.2 43.2
L79.2 114.041
z
" style="fill:#ffffff;stroke:#000000;"/>
    </g>
    <g id="line2d_14">
     <path d="
M89.28 54.8617
L109.44 54.8617" style="fill:none;stroke:#0000ff;stroke-dasharray:6.000000,6.000000;stroke-dashoffset:0.0;stroke-linecap:butt;stroke-width:1.5;"/>
    </g>
    <g id="line2d_15"/>
    <g id="text_10">
     <!-- $V_1 = 1-\cos(\phi-\phi_0)$ -->
     <defs>
      <path d="
M31 -24.8125
Q25.4375 -20.4062 21.4062 -14.7188
Q17.3906 -9.03125 14.8125 -2.57812
Q12.25 3.85938 10.9844 10.8906
Q9.71875 17.9219 9.71875 25
Q9.71875 32.1719 10.9844 39.2031
Q12.25 46.2344 14.8594 52.7344
Q17.4844 59.2344 21.5312 64.8906
Q25.5938 70.5625 31 74.8125
Q31 75 31.5 75
L32.4219 75
Q32.7188 75 32.9531 74.7344
Q33.2031 74.4688 33.2031 74.125
Q33.2031 73.6875 33.0156 73.4844
Q28.125 68.7031 24.875 63.2344
Q21.625 57.7656 19.6406 51.5781
Q17.6719 45.4062 16.7969 38.7812
Q15.9219 32.1719 15.9219 25
Q15.9219 -6.78125 32.9062 -23.2969
Q33.2031 -23.5781 33.2031 -24.125
Q33.2031 -24.3594 32.9375 -24.6719
Q32.6719 -25 32.4219 -25
L31.5 -25
Q31 -25 31 -24.8125" id="Cmr10-28"/>
      <path d="
M6.5 -25
Q5.60938 -25 5.60938 -24.125
Q5.60938 -23.6875 5.8125 -23.4844
Q22.9062 -6.78125 22.9062 25
Q22.9062 56.7812 6 73.2969
Q5.60938 73.5312 5.60938 74.125
Q5.60938 74.4688 5.875 74.7344
Q6.15625 75 6.5 75
L7.42188 75
Q7.71875 75 7.90625 74.8125
Q15.0938 69.1406 19.875 61.0312
Q24.6562 52.9375 26.875 43.75
Q29.1094 34.5781 29.1094 25
Q29.1094 17.9219 27.9062 11.0625
Q26.7031 4.20312 24.0938 -2.45312
Q21.4844 -9.125 17.4844 -14.7656
Q13.4844 -20.4062 7.90625 -24.8125
Q7.71875 -25 7.42188 -25
z
" id="Cmr10-29"/>
      <path d="
M25 -1.125
Q19 -1.125 13.8594 1.92188
Q8.73438 4.98438 5.75 10.1094
Q2.78125 15.2344 2.78125 21.2969
Q2.78125 25.875 4.42188 30.125
Q6.0625 34.375 9.10938 37.7188
Q12.1562 41.0625 16.2031 42.9375
Q20.2656 44.8281 25 44.8281
Q31.1562 44.8281 36.2031 41.5781
Q41.2656 38.3281 44.1875 32.875
Q47.125 27.4375 47.125 21.2969
Q47.125 15.2812 44.1406 10.125
Q41.1562 4.98438 36.0469 1.92188
Q30.9531 -1.125 25 -1.125
M25 1.8125
Q33.0156 1.8125 35.6875 7.60938
Q38.375 13.4219 38.375 22.4062
Q38.375 27.4375 37.8438 30.7344
Q37.3125 34.0312 35.5 36.7188
Q34.375 38.375 32.6406 39.625
Q30.9062 40.875 28.9688 41.5312
Q27.0469 42.1875 25 42.1875
Q21.875 42.1875 19.0625 40.7656
Q16.2656 39.3594 14.4062 36.7188
Q12.5469 33.8906 12.0312 30.4844
Q11.5312 27.0938 11.5312 22.4062
Q11.5312 16.7969 12.5 12.3281
Q13.4844 7.85938 16.4375 4.82812
Q19.3906 1.8125 25 1.8125" id="Cmr10-6f"/>
      <path d="
M22.0156 -1.125
L14.0156 62.5938
Q13.2812 64.7969 6.5 64.7969
Q5.51562 64.7969 5.51562 66.1094
Q5.71875 67.1875 6 67.75
Q6.29688 68.3125 7.17188 68.3125
L31.5938 68.3125
Q32.125 68.3125 32.375 67.9219
Q32.625 67.5312 32.625 67
Q32.2344 64.7969 31.2969 64.7969
Q23.4844 64.7969 23 62.1094
L29.5938 9.8125
L60.4062 58.9844
Q61.2812 60.6406 61.2812 61.625
Q61.2812 63.375 59.6875 64.0781
Q58.1094 64.7969 56 64.7969
Q54.9844 64.7969 54.9844 66.1094
Q55.1719 66.8906 55.3125 67.3281
Q55.4688 67.7812 55.7656 68.0469
Q56.0625 68.3125 56.6875 68.3125
L75.9844 68.3125
Q76.9062 68.3125 76.9062 67
Q76.5156 64.7969 75.5938 64.7969
Q68.0625 64.7969 63.8125 58.2031
Q63.625 58.0156 63.4844 58.0156
L26.6094 -1.125
Q25.875 -2.20312 24.7031 -2.20312
L23.2969 -2.20312
Q22.1719 -2.20312 22.0156 -1.125" id="Cmmi10-56"/>
      <path d="
M7.51562 13.2812
Q6.6875 13.2812 6.14062 13.9062
Q5.60938 14.5469 5.60938 15.2812
Q5.60938 16.1094 6.14062 16.6875
Q6.6875 17.2812 7.51562 17.2812
L70.3125 17.2812
Q71.0469 17.2812 71.5781 16.6875
Q72.125 16.1094 72.125 15.2812
Q72.125 14.5469 71.5781 13.9062
Q71.0469 13.2812 70.3125 13.2812
z

M7.51562 32.7188
Q6.6875 32.7188 6.14062 33.2969
Q5.60938 33.8906 5.60938 34.7188
Q5.60938 35.4531 6.14062 36.0781
Q6.6875 36.7188 7.51562 36.7188
L70.3125 36.7188
Q71.0469 36.7188 71.5781 36.0781
Q72.125 35.4531 72.125 34.7188
Q72.125 33.8906 71.5781 33.2969
Q71.0469 32.7188 70.3125 32.7188
z
" id="Cmr10-3d"/>
      <path d="
M3.32812 -0.296875
L3.32812 16.0156
Q3.32812 16.7969 4.20312 16.7969
L5.42188 16.7969
Q6 16.7969 6.20312 16.0156
Q8.98438 1.51562 19.6719 1.51562
Q24.4219 1.51562 27.6094 3.65625
Q30.8125 5.8125 30.8125 10.2969
Q30.8125 13.5312 28.3125 15.7969
Q25.8281 18.0625 22.4062 18.8906
L15.7188 20.2188
Q12.3594 20.9531 9.59375 22.4531
Q6.84375 23.9688 5.07812 26.4844
Q3.32812 29 3.32812 32.3281
Q3.32812 36.7188 5.64062 39.5156
Q7.95312 42.3281 11.6562 43.5781
Q15.375 44.8281 19.6719 44.8281
Q24.8125 44.8281 28.6094 42.0938
L31.5 44.5781
Q31.5 44.8281 31.9844 44.8281
L32.7188 44.8281
Q33.0156 44.8281 33.25 44.5469
Q33.5 44.2812 33.5 44
L33.5 30.9062
Q33.5 29.9844 32.7188 29.9844
L31.5 29.9844
Q30.6094 29.9844 30.6094 30.9062
Q30.6094 36.1406 27.7031 39.3125
Q24.8125 42.4844 19.5781 42.4844
Q15.0938 42.4844 11.7969 40.8125
Q8.5 39.1562 8.5 35.1094
Q8.5 32.3281 10.8594 30.5469
Q13.2344 28.7656 16.4062 27.9844
L23.1875 26.7031
Q26.6094 25.9219 29.5625 24.0625
Q32.5156 22.2188 34.25 19.375
Q35.9844 16.5469 35.9844 12.9844
Q35.9844 9.375 34.7344 6.70312
Q33.5 4.04688 31.2656 2.28125
Q29.0469 0.53125 26.0156 -0.296875
Q23 -1.125 19.6719 -1.125
Q13.4219 -1.125 8.98438 3.07812
L5.32812 -0.875
Q5.32812 -1.125 4.78125 -1.125
L4.20312 -1.125
Q3.32812 -1.125 3.32812 -0.296875" id="Cmr10-73"/>
      <path d="
M24.9062 -1.125
Q18.8438 -1.125 13.9062 2.01562
Q8.98438 5.17188 6.15625 10.4219
Q3.32812 15.6719 3.32812 21.5781
Q3.32812 27.4844 6.125 32.9062
Q8.9375 38.3281 13.8906 41.5781
Q18.8438 44.8281 24.9062 44.8281
Q30.7656 44.8281 35.5625 42.5312
Q40.375 40.2344 40.375 35.0156
Q40.375 33.0625 38.9844 31.6094
Q37.5938 30.1719 35.5938 30.1719
Q33.5938 30.1719 32.2031 31.6094
Q30.8125 33.0625 30.8125 35.0156
Q30.8125 36.7656 31.9375 38.0625
Q33.0625 39.3594 34.7188 39.7031
Q31.25 41.8906 25 41.8906
Q20.2188 41.8906 17.2812 38.7188
Q14.3594 35.5469 13.1875 30.8594
Q12.0156 26.1719 12.0156 21.5781
Q12.0156 16.75 13.4531 12.2344
Q14.8906 7.71875 18.0938 4.76562
Q21.2969 1.8125 26.125 1.8125
Q30.8594 1.8125 34.1719 4.71875
Q37.5 7.625 38.7188 12.3125
Q38.7188 12.8906 39.5 12.8906
L40.7188 12.8906
Q41.0156 12.8906 41.25 12.625
Q41.5 12.3594 41.5 12.0156
L41.5 11.7188
Q39.9844 5.8125 35.4844 2.34375
Q31 -1.125 24.9062 -1.125" id="Cmr10-63"/>
     </defs>
     <g transform="translate(125.28 63.93375)scale(0.144 -0.144)">
      <use transform="translate(0.0 28.0)" xlink:href="#Cmmi10-56"/>
      <use transform="translate(58.30078125 2.490625)scale(0.7)" xlink:href="#Cmr10-31"/>
      <use transform="translate(125.859375 28.0)" xlink:href="#Cmr10-3d"/>
      <use transform="translate(209.91796875 28.0)" xlink:href="#Cmr10-31"/>
      <use transform="translate(259.91796875 28.0)" xlink:href="#Cmsy10-a1"/>
      <use transform="translate(337.603515625 28.0)" xlink:href="#Cmr10-63"/>
      <use transform="translate(381.98828125 28.0)" xlink:href="#Cmr10-6f"/>
      <use transform="translate(431.98828125 28.0)" xlink:href="#Cmr10-73"/>
      <use transform="translate(471.392578125 28.0)" xlink:href="#Cmr10-28"/>
      <use transform="translate(510.2109375 28.0)" xlink:href="#Cmmi10-c1"/>
      <use transform="translate(569.732421875 28.0)" xlink:href="#Cmsy10-a1"/>
      <use transform="translate(647.41796875 28.0)" xlink:href="#Cmmi10-c1"/>
      <use transform="translate(706.939453125 2.490625)scale(0.7)" xlink:href="#Cmr10-30"/>
      <use transform="translate(756.939453125 28.0)" xlink:href="#Cmr10-29"/>
     </g>
    </g>
    <g id="line2d_16">
     <path d="
M89.28 77.0355
L109.44 77.0355" style="fill:none;stroke:#ff0000;stroke-dasharray:6.000000,6.000000;stroke-dashoffset:0.0;stroke-linecap:butt;stroke-width:1.5;"/>
    </g>
    <g id="line2d_17"/>
    <g id="text_11">
     <!-- $V_3 = 1-\cos 3(\phi-\phi_0)$ -->
     <g transform="translate(125.28 86.1075)scale(0.144 -0.144)">
      <use transform="translate(0.0 28.0)" xlink:href="#Cmmi10-56"/>
      <use transform="translate(58.30078125 2.490625)scale(0.7)" xlink:href="#Cmr10-33"/>
      <use transform="translate(125.859375 28.0)" xlink:href="#Cmr10-3d"/>
      <use transform="translate(209.91796875 28.0)" xlink:href="#Cmr10-31"/>
      <use transform="translate(259.91796875 28.0)" xlink:href="#Cmsy10-a1"/>
      <use transform="translate(337.603515625 28.0)" xlink:href="#Cmr10-63"/>
      <use transform="translate(381.98828125 28.0)" xlink:href="#Cmr10-6f"/>
      <use transform="translate(431.98828125 28.0)" xlink:href="#Cmr10-73"/>
      <use transform="translate(471.392578125 28.0)" xlink:href="#Cmr10-33"/>
      <use transform="translate(521.392578125 28.0)" xlink:href="#Cmr10-28"/>
      <use transform="translate(560.2109375 28.0)" xlink:href="#Cmmi10-c1"/>
      <use transform="translate(619.732421875 28.0)" xlink:href="#Cmsy10-a1"/>
      <use transform="translate(697.41796875 28.0)" xlink:href="#Cmmi10-c1"/>
      <use transform="translate(756.939453125 2.490625)scale(0.7)" xlink:href="#Cmr10-30"/>
      <use transform="translate(806.939453125 28.0)" xlink:href="#Cmr10-29"/>
     </g>
    </g>
    <g id="line2d_18">
     <path d="
M89.28 99.2092
L109.44 99.2092" style="fill:none;stroke:#008000;stroke-width:2.5;"/>
    </g>
    <g id="line2d_19"/>
    <g id="text_12">
     <!-- $V_1 + 0.5 \times V_3$ -->
     <defs>
      <path d="
M14.7031 2.875
Q14.7031 3.65625 15.1875 4.29688
L35.9844 25
L15.1875 45.7969
Q14.7031 46.2969 14.7031 47.125
Q14.7031 47.8594 15.2812 48.4844
Q15.875 49.125 16.7031 49.125
Q17.3906 49.125 18.2188 48.4844
L38.9219 27.7812
L59.5156 48.4844
Q60.3594 49.125 60.9844 49.125
Q61.8125 49.125 62.3906 48.5312
Q62.9844 47.9531 62.9844 47.125
Q62.9844 46.2969 62.5 45.7969
L41.7031 25
L62.5 4.29688
Q62.9844 3.65625 62.9844 2.875
Q62.9844 2.04688 62.3906 1.45312
Q61.8125 0.875 60.9844 0.875
Q60.25 0.875 59.5156 1.60938
L38.9219 22.2188
L18.2188 1.60938
Q17.4844 0.875 16.7031 0.875
Q15.875 0.875 15.2812 1.51562
Q14.7031 2.15625 14.7031 2.875" id="Cmsy10-a3"/>
      <path d="
M8.6875 11.375
Q9.71875 8.45312 11.8438 6.04688
Q13.9688 3.65625 16.875 2.3125
Q19.7812 0.984375 22.9062 0.984375
Q30.125 0.984375 32.8594 6.59375
Q35.5938 12.2031 35.5938 20.2188
Q35.5938 23.6875 35.4688 26.0469
Q35.3594 28.4219 34.8125 30.6094
Q33.8906 34.125 31.5625 36.7656
Q29.25 39.4062 25.875 39.4062
Q22.5156 39.4062 20.0938 38.375
Q17.6719 37.3594 16.1562 35.9844
Q14.6562 34.625 13.4844 33.1094
Q12.3125 31.5938 12.0156 31.5
L10.8906 31.5
Q10.6406 31.5 10.2656 31.8125
Q9.90625 32.125 9.90625 32.4219
L9.90625 65.8281
Q9.90625 66.0625 10.2188 66.3281
Q10.5469 66.6094 10.8906 66.6094
L11.1875 66.6094
Q17.9219 63.375 25.4844 63.375
Q32.9062 63.375 39.7969 66.6094
L40.0938 66.6094
Q40.4375 66.6094 40.7188 66.3594
Q41.0156 66.1094 41.0156 65.8281
L41.0156 64.8906
Q41.0156 64.4062 40.8281 64.4062
Q37.4062 59.8594 32.25 57.3125
Q27.0938 54.7812 21.5781 54.7812
Q17.5781 54.7812 13.375 55.9062
L13.375 37.0156
Q16.7031 39.7031 19.3125 40.8438
Q21.9219 42 25.9844 42
Q31.5 42 35.8594 38.8125
Q40.2344 35.6406 42.5781 30.5312
Q44.9219 25.4375 44.9219 20.125
Q44.9219 14.1094 41.9688 8.98438
Q39.0156 3.85938 33.9375 0.828125
Q28.8594 -2.20312 22.9062 -2.20312
Q17.9688 -2.20312 13.8438 0.328125
Q9.71875 2.875 7.34375 7.17188
Q4.98438 11.4688 4.98438 16.3125
Q4.98438 18.5625 6.4375 19.9688
Q7.90625 21.3906 10.1094 21.3906
Q12.3125 21.3906 13.7969 19.9375
Q15.2812 18.5 15.2812 16.3125
Q15.2812 14.1562 13.7969 12.6719
Q12.3125 11.1875 10.1094 11.1875
Q9.76562 11.1875 9.32812 11.25
Q8.89062 11.3281 8.6875 11.375" id="Cmr10-35"/>
      <path d="
M8.40625 5.51562
Q8.40625 7.76562 10.0625 9.375
Q11.7188 10.9844 13.9219 10.9844
Q15.2812 10.9844 16.5938 10.25
Q17.9219 9.51562 18.6562 8.20312
Q19.3906 6.89062 19.3906 5.51562
Q19.3906 3.32812 17.7656 1.65625
Q16.1562 0 13.9219 0
Q11.7188 0 10.0625 1.65625
Q8.40625 3.32812 8.40625 5.51562" id="Cmmi10-3a"/>
     </defs>
     <g transform="translate(125.28 108.28125)scale(0.144 -0.144)">
      <use transform="translate(0.0 28.6875)" xlink:href="#Cmmi10-56"/>
      <use transform="translate(58.30078125 3.178125)scale(0.7)" xlink:href="#Cmr10-31"/>
      <use transform="translate(125.859375 28.6875)" xlink:href="#Cmr10-2b"/>
      <use transform="translate(209.91796875 28.6875)" xlink:href="#Cmr10-30"/>
      <use transform="translate(259.91796875 28.6875)" xlink:href="#Cmmi10-3a"/>
      <use transform="translate(288.4609375 28.6875)" xlink:href="#Cmr10-35"/>
      <use transform="translate(356.01953125 28.6875)" xlink:href="#Cmsy10-a3"/>
      <use transform="translate(421.859375 28.6875)" xlink:href="#Cmmi10-56"/>
      <use transform="translate(480.16015625 3.178125)scale(0.7)" xlink:href="#Cmr10-33"/>
     </g>
    </g>
   </g>
  </g>
 </g>
 <defs>
  <clipPath id="p44692e4afb">
   <rect height="288.0" width="446.4" x="72.0" y="36.0"/>
  </clipPath>
 </defs>
</svg>
