<?xml version="1.0" encoding="utf-8" standalone="no"?>
<!DOCTYPE svg PUBLIC "-//W3C//DTD SVG 1.1//EN"
  "http://www.w3.org/Graphics/SVG/1.1/DTD/svg11.dtd">
<!-- Created with matplotlib (http://matplotlib.org/) -->
<svg height="360pt" version="1.1" viewBox="0 0 576 360" width="576pt" xmlns="http://www.w3.org/2000/svg" xmlns:xlink="http://www.w3.org/1999/xlink">
 <defs>
  <style type="text/css">
*{stroke-linecap:butt;stroke-linejoin:round;}
  </style>
 </defs>
 <g id="figure_1">
  <g id="patch_1">
   <path d="
M0 360
L576 360
L576 0
L0 0
z
" style="fill:#ffffff;"/>
  </g>
  <g id="axes_1">
   <g id="patch_2">
    <path d="
M72 324
L518.4 324
L518.4 36
L72 36
z
" style="fill:#ffffff;"/>
   </g>
   <g id="line2d_1">
    <path clip-path="url(#p44692e4afb)" d="
M194.931 -1
L196.545 52.5462
L198.851 113.842
L201.157 162.406
L203.464 200.37
L205.77 229.536
L208.076 251.425
L210.383 267.32
L212.689 278.3
L214.996 285.272
L217.302 288.999
L219.608 290.118
L221.915 289.161
L224.221 286.573
L226.528 282.722
L228.834 277.915
L231.14 272.403
L233.447 266.394
L238.059 253.528
L247.285 227.411
L251.898 215.19
L256.51 203.874
L261.123 193.564
L263.43 188.796
L265.736 184.284
L268.042 180.023
L270.349 176.008
L272.655 172.23
L274.962 168.682
L277.268 165.353
L279.574 162.235
L281.881 159.317
L284.187 156.588
L286.493 154.04
L288.8 151.662
L293.413 147.377
L298.025 143.66
L302.638 140.443
L307.251 137.663
L311.864 135.266
L316.476 133.2
L321.089 131.422
L325.702 129.894
L330.315 128.581
L334.927 127.453
L341.847 126.055
L348.766 124.944
L355.685 124.063
L364.91 123.165
L374.136 122.507
L385.668 121.926
L399.506 121.47
L417.957 121.115
L443.327 120.879
L484.842 120.748
L512.519 120.723
L512.519 120.723" style="fill:none;stroke:#008000;stroke-linecap:square;stroke-width:2.5;"/>
   </g>
   <g id="line2d_2">
    <path clip-path="url(#p44692e4afb)" d="
M180.921 -1
L182.706 25.4118
L185.013 57.466
L187.319 87.4522
L189.625 115.37
L191.932 141.221
L194.238 165.003
L196.545 186.717
L198.851 206.363
L201.157 223.941
L203.464 239.451
L205.77 252.893
L208.076 264.267
L210.383 273.574
L212.689 280.812
L214.996 285.982
L217.302 289.084
L219.608 290.118
L221.915 289.084
L224.221 285.982
L226.528 280.812
L228.834 273.574
L231.14 264.267
L233.447 252.893
L235.753 239.451
L238.059 223.941
L240.366 206.363
L242.672 186.717
L244.979 165.003
L247.285 141.221
L249.591 115.37
L251.898 87.4522
L254.204 57.466
L256.51 25.4118
L258.296 -1
L258.296 -1" style="fill:none;stroke:#0000ff;stroke-dasharray:6.000000,6.000000;stroke-dashoffset:0.0;stroke-width:2.5;"/>
   </g>
   <g id="line2d_3">
    <path clip-path="url(#p44692e4afb)" d="
M69.6936 120.706
L512.519 120.706
L512.519 120.706" style="fill:none;stroke:#00ffff;stroke-dasharray:6.000000,6.000000;stroke-dashoffset:0.0;stroke-width:1.5;"/>
   </g>
   <g id="line2d_4">
    <path clip-path="url(#p44692e4afb)" d="
M160.565 290.118
L219.608 290.118" style="fill:none;stroke:#008000;stroke-dasharray:6.000000,6.000000;stroke-dashoffset:0.0;"/>
   </g>
   <g id="matplotlib.axis_1">
    <g id="xtick_1">
     <g id="line2d_5">
      <defs>
       <path d="
M0 0
L0 -4" id="mc7db9fdffb" style="stroke:#000000;stroke-width:0.5;"/>
      </defs>
      <g>
       <use style="stroke:#000000;stroke-width:0.5;" x="160.565021958" xlink:href="#mc7db9fdffb" y="290.117647059"/>
      </g>
     </g>
     <g id="text_1">
      <!-- $0.8r_0$ -->
      <defs>
       <path d="
M7.71875 1.70312
Q7.71875 2.29688 7.8125 2.59375
L15.2812 32.4219
Q16.0156 35.2031 16.0156 37.3125
Q16.0156 41.6094 13.0938 41.6094
Q9.96875 41.6094 8.45312 37.8594
Q6.9375 34.125 5.51562 28.4219
Q5.51562 28.125 5.21875 27.9531
Q4.9375 27.7812 4.6875 27.7812
L3.51562 27.7812
Q3.17188 27.7812 2.92188 28.1406
Q2.6875 28.5156 2.6875 28.8125
Q3.76562 33.1562 4.76562 36.1719
Q5.76562 39.2031 7.89062 41.6875
Q10.0156 44.1875 13.1875 44.1875
Q16.6562 44.1875 19.2656 42.1875
Q21.875 40.1875 22.5156 36.9219
Q25.0469 40.2344 28.2969 42.2031
Q31.5469 44.1875 35.4062 44.1875
Q38.5781 44.1875 40.9844 42.3281
Q43.4062 40.4844 43.4062 37.3125
Q43.4062 34.7656 41.8125 32.875
Q40.2344 31 37.5938 31
Q35.9844 31 34.8906 32
Q33.7969 33.0156 33.7969 34.625
Q33.7969 36.8125 35.4062 38.5469
Q37.0156 40.2812 39.1094 40.2812
Q37.5 41.6094 35.2031 41.6094
Q30.9062 41.6094 27.7344 38.5469
Q24.5625 35.5 22.0156 30.8125
L14.8906 2.20312
Q14.5469 0.828125 13.3438 -0.140625
Q12.1562 -1.125 10.6875 -1.125
Q9.46875 -1.125 8.59375 -0.34375
Q7.71875 0.4375 7.71875 1.70312" id="Cmmi10-72"/>
       <path d="
M25 -2.20312
Q12.75 -2.20312 8.32812 7.875
Q3.90625 17.9688 3.90625 31.8906
Q3.90625 40.5781 5.48438 48.2344
Q7.07812 55.9062 11.7812 61.25
Q16.5 66.6094 25 66.6094
Q31.5938 66.6094 35.7812 63.375
Q39.9844 60.1562 42.1875 55.0469
Q44.3906 49.9531 45.1875 44.1094
Q46 38.2812 46 31.8906
Q46 23.2969 44.4062 15.7969
Q42.8281 8.29688 38.1875 3.04688
Q33.5469 -2.20312 25 -2.20312
M25 0.390625
Q30.5625 0.390625 33.2969 6.09375
Q36.0312 11.8125 36.6719 18.75
Q37.3125 25.6875 37.3125 33.5
Q37.3125 41.0156 36.6719 47.3594
Q36.0312 53.7188 33.3125 58.8594
Q30.6094 64.0156 25 64.0156
Q19.3438 64.0156 16.6094 58.8281
Q13.875 53.6562 13.2344 47.3281
Q12.5938 41.0156 12.5938 33.5
Q12.5938 27.9375 12.8594 23
Q13.1406 18.0625 14.3125 12.8125
Q15.4844 7.5625 18.0938 3.96875
Q20.7031 0.390625 25 0.390625" id="Cmr10-30"/>
       <path d="
M8.40625 5.51562
Q8.40625 7.76562 10.0625 9.375
Q11.7188 10.9844 13.9219 10.9844
Q15.2812 10.9844 16.5938 10.25
Q17.9219 9.51562 18.6562 8.20312
Q19.3906 6.89062 19.3906 5.51562
Q19.3906 3.32812 17.7656 1.65625
Q16.1562 0 13.9219 0
Q11.7188 0 10.0625 1.65625
Q8.40625 3.32812 8.40625 5.51562" id="Cmmi10-3a"/>
       <path d="
M4.20312 15.1875
Q4.20312 21.1875 8.15625 25.7969
Q12.1094 30.4219 18.3125 33.5
L14.5938 35.8906
Q11.1875 38.1406 9.03125 41.875
Q6.89062 45.6094 6.89062 49.7031
Q6.89062 54.5 9.40625 58.3438
Q11.9219 62.2031 16.0938 64.4062
Q20.2656 66.6094 25 66.6094
Q29.4375 66.6094 33.5625 64.7969
Q37.7031 62.9844 40.3594 59.6094
Q43.0156 56.25 43.0156 51.6094
Q43.0156 48.25 41.4219 45.3594
Q39.8438 42.4844 37.0781 40.1875
Q34.3281 37.8906 31.2031 36.2812
L36.9219 32.625
Q40.875 30.0312 43.2812 25.8281
Q45.7031 21.625 45.7031 17
Q45.7031 11.5781 42.7969 7.125
Q39.8906 2.6875 35.1094 0.234375
Q30.3281 -2.20312 25 -2.20312
Q19.8281 -2.20312 15.0156 -0.09375
Q10.2031 2 7.20312 5.98438
Q4.20312 9.96875 4.20312 15.1875
M9.625 15.1875
Q9.625 11.2344 11.7969 7.95312
Q13.9688 4.6875 17.5312 2.82812
Q21.0938 0.984375 25 0.984375
Q30.8125 0.984375 35.5469 4.375
Q40.2812 7.76562 40.2812 13.375
Q40.2812 15.2812 39.5156 17.1562
Q38.7656 19.0469 37.4219 20.5781
Q36.0781 22.125 34.4219 23.0938
L21 31.7812
Q17.875 30.125 15.25 27.5781
Q12.6406 25.0469 11.125 21.875
Q9.625 18.7031 9.625 15.1875
M16.5 45.7031
L28.6094 37.8906
Q32.8125 40.3281 35.5 43.7969
Q38.1875 47.2656 38.1875 51.6094
Q38.1875 54.9844 36.2969 57.7812
Q34.4219 60.5938 31.3906 62.1562
Q28.375 63.7188 24.9062 63.7188
Q21.875 63.7188 18.7969 62.5469
Q15.7188 61.375 13.7188 59.0469
Q11.7188 56.7344 11.7188 53.6094
Q11.7188 48.9219 16.5 45.7031" id="Cmr10-38"/>
      </defs>
      <g transform="translate(147.125021958 302.371397059)scale(0.12 -0.12)">
       <use transform="translate(0.0 0.390625)" xlink:href="#Cmr10-30"/>
       <use transform="translate(50.0 0.390625)" xlink:href="#Cmmi10-3a"/>
       <use transform="translate(78.54296875 0.390625)" xlink:href="#Cmr10-38"/>
       <use transform="translate(128.54296875 0.390625)" xlink:href="#Cmmi10-72"/>
       <use transform="translate(173.66015625 -25.118750000000006)scale(0.7)" xlink:href="#Cmr10-30"/>
      </g>
     </g>
    </g>
    <g id="xtick_2">
     <g id="line2d_6">
      <g>
       <use style="stroke:#000000;stroke-width:0.5;" x="219.60836993" xlink:href="#mc7db9fdffb" y="290.117647059"/>
      </g>
     </g>
     <g id="text_2">
      <!-- $r_0$ -->
      <g transform="translate(213.84836993 302.371397059)scale(0.12 -0.12)">
       <use transform="translate(0.0 0.8125)" xlink:href="#Cmmi10-72"/>
       <use transform="translate(45.1171875 -24.696875000000006)scale(0.7)" xlink:href="#Cmr10-30"/>
      </g>
     </g>
    </g>
   </g>
   <g id="matplotlib.axis_2">
    <g id="ytick_1">
     <g id="line2d_7">
      <defs>
       <path d="
M0 0
L4 0" id="md7965d1ba0" style="stroke:#000000;stroke-width:0.5;"/>
      </defs>
      <g>
       <use style="stroke:#000000;stroke-width:0.5;" x="160.565021958" xlink:href="#md7965d1ba0" y="120.705882353"/>
      </g>
     </g>
     <g id="text_3">
      <!-- 0 -->
      <defs>
       <path d="
M31.7812 66.4062
Q24.1719 66.4062 20.3281 58.9062
Q16.5 51.4219 16.5 36.375
Q16.5 21.3906 20.3281 13.8906
Q24.1719 6.39062 31.7812 6.39062
Q39.4531 6.39062 43.2812 13.8906
Q47.125 21.3906 47.125 36.375
Q47.125 51.4219 43.2812 58.9062
Q39.4531 66.4062 31.7812 66.4062
M31.7812 74.2188
Q44.0469 74.2188 50.5156 64.5156
Q56.9844 54.8281 56.9844 36.375
Q56.9844 17.9688 50.5156 8.26562
Q44.0469 -1.42188 31.7812 -1.42188
Q19.5312 -1.42188 13.0625 8.26562
Q6.59375 17.9688 6.59375 36.375
Q6.59375 54.8281 13.0625 64.5156
Q19.5312 74.2188 31.7812 74.2188" id="BitstreamVeraSans-Roman-30"/>
      </defs>
      <g transform="translate(150.518146958 124.017132353)scale(0.12 -0.12)">
       <use xlink:href="#BitstreamVeraSans-Roman-30"/>
      </g>
     </g>
    </g>
    <g id="ytick_2">
     <g id="line2d_8">
      <g>
       <use style="stroke:#000000;stroke-width:0.5;" x="160.565021958" xlink:href="#md7965d1ba0" y="290.117647059"/>
      </g>
     </g>
     <g id="text_4">
      <!-- $-\varepsilon$ -->
      <defs>
       <path d="
M10.2031 23
Q9.375 23 8.82812 23.625
Q8.29688 24.2656 8.29688 25
Q8.29688 25.7344 8.82812 26.3594
Q9.375 27 10.2031 27
L67.5781 27
Q68.3594 27 68.875 26.3594
Q69.3906 25.7344 69.3906 25
Q69.3906 24.2656 68.875 23.625
Q68.3594 23 67.5781 23
z
" id="Cmsy10-a1"/>
       <path d="
M2.6875 10.4062
Q2.6875 13.1406 3.875 15.7188
Q5.07812 18.3125 7 20.3594
Q8.9375 22.4062 11.5312 24.0312
Q7.71875 26.6562 7.71875 30.8125
Q7.71875 35.25 11.4219 38.5938
Q15.1406 41.9375 20.5 43.625
Q25.875 45.3125 30.1719 45.3125
Q31.9844 45.3125 35.0312 44.5
Q38.0938 43.7031 40.375 42.375
Q42.6719 41.0625 42.6719 39.5
Q42.6719 38.3281 41.7656 37.4219
Q40.875 36.5312 39.7969 36.5312
Q39.3594 36.5312 37.5781 37.5781
Q35.7969 38.625 33.7812 39.4531
Q31.7812 40.2812 29.3906 40.2812
Q25.7812 40.2812 21.4531 39.4219
Q17.1406 38.5781 13.8594 36.4531
Q10.5938 34.3281 10.5938 30.9062
Q10.5938 27.6406 14.3125 25.3906
Q18.5 27.2969 22.9062 27.2969
Q30.7188 27.2969 30.7188 24.5156
Q30.7188 22.3125 28.0469 21.7031
Q25.3906 21.0938 21.9219 21.0938
Q17.2344 21.0938 14.2031 22.5156
Q10.8906 20.75 8.29688 17.5781
Q5.71875 14.4062 5.71875 10.9844
Q5.71875 7.76562 7.89062 5.95312
Q10.0625 4.15625 13.2344 3.46875
Q16.4062 2.78125 19.5781 2.78125
Q25.0938 2.78125 29.3438 3.96875
Q33.5938 5.17188 35.5 8.98438
Q35.7969 9.625 36.625 9.625
Q37.7031 9.28125 37.7031 8.29688
Q37.7031 8.20312 37.4062 7.32812
Q35.7969 4.15625 32.8438 2
Q29.8906 -0.140625 26.25 -1.17188
Q22.6094 -2.20312 18.7969 -2.20312
Q12.5938 -2.20312 7.64062 1.10938
Q2.6875 4.4375 2.6875 10.4062
M18.1094 24.0312
Q19.875 23.6875 22.125 23.6875
Q26.5156 23.6875 27.5938 24.3125
Q26.2188 24.7031 22.7969 24.7031
Q20.3125 24.7031 18.1094 24.0312" id="Cmmi10-22"/>
      </defs>
      <g transform="translate(141.565021958 293.428897059)scale(0.12 -0.12)">
       <use transform="translate(0.0 0.6875)" xlink:href="#Cmsy10-a1"/>
       <use transform="translate(77.685546875 0.6875)" xlink:href="#Cmmi10-22"/>
      </g>
     </g>
    </g>
   </g>
   <g id="patch_3">
    <path d="
M72 290.118
L518.4 290.118" style="fill:none;stroke:#000000;"/>
   </g>
   <g id="patch_4">
    <path d="
M518.4 324
L518.4 36" style="fill:none;"/>
   </g>
   <g id="patch_5">
    <path d="
M160.565 324
L160.565 36" style="fill:none;stroke:#000000;"/>
   </g>
   <g id="patch_6">
    <path d="
M72 36
L518.4 36" style="fill:none;"/>
   </g>
   <g id="legend_1">
    <g id="patch_7">
     <path d="
M277.056 97.776
L511.2 97.776
L511.2 43.2
L277.056 43.2
L277.056 97.776
z
" style="fill:#ffffff;stroke:#000000;"/>
    </g>
    <g id="line2d_9">
     <path d="
M287.136 57.888
L307.296 57.888" style="fill:none;stroke:#008000;stroke-linecap:square;stroke-width:2.5;"/>
    </g>
    <g id="line2d_10"/>
    <g id="text_5">
     <!-- $V_{Morse} = -\varepsilon + \varepsilon(1-e^{-a(r-r_0)})^2$ -->
     <defs>
      <path d="
M22.0156 -1.125
L14.0156 62.5938
Q13.2812 64.7969 6.5 64.7969
Q5.51562 64.7969 5.51562 66.1094
Q5.71875 67.1875 6 67.75
Q6.29688 68.3125 7.17188 68.3125
L31.5938 68.3125
Q32.125 68.3125 32.375 67.9219
Q32.625 67.5312 32.625 67
Q32.2344 64.7969 31.2969 64.7969
Q23.4844 64.7969 23 62.1094
L29.5938 9.8125
L60.4062 58.9844
Q61.2812 60.6406 61.2812 61.625
Q61.2812 63.375 59.6875 64.0781
Q58.1094 64.7969 56 64.7969
Q54.9844 64.7969 54.9844 66.1094
Q55.1719 66.8906 55.3125 67.3281
Q55.4688 67.7812 55.7656 68.0469
Q56.0625 68.3125 56.6875 68.3125
L75.9844 68.3125
Q76.9062 68.3125 76.9062 67
Q76.5156 64.7969 75.5938 64.7969
Q68.0625 64.7969 63.8125 58.2031
Q63.625 58.0156 63.4844 58.0156
L26.6094 -1.125
Q25.875 -2.20312 24.7031 -2.20312
L23.2969 -2.20312
Q22.1719 -2.20312 22.0156 -1.125" id="Cmmi10-56"/>
      <path d="
M6.5 -25
Q5.60938 -25 5.60938 -24.125
Q5.60938 -23.6875 5.8125 -23.4844
Q22.9062 -6.78125 22.9062 25
Q22.9062 56.7812 6 73.2969
Q5.60938 73.5312 5.60938 74.125
Q5.60938 74.4688 5.875 74.7344
Q6.15625 75 6.5 75
L7.42188 75
Q7.71875 75 7.90625 74.8125
Q15.0938 69.1406 19.875 61.0312
Q24.6562 52.9375 26.875 43.75
Q29.1094 34.5781 29.1094 25
Q29.1094 17.9219 27.9062 11.0625
Q26.7031 4.20312 24.0938 -2.45312
Q21.4844 -9.125 17.4844 -14.7656
Q13.4844 -20.4062 7.90625 -24.8125
Q7.71875 -25 7.42188 -25
z
" id="Cmr10-29"/>
      <path d="
M8.6875 6.10938
Q11.375 1.51562 19.4844 1.51562
Q23 1.51562 26.1719 2.70312
Q29.3438 3.90625 31.4219 6.29688
Q33.5 8.6875 33.5 12.1094
Q33.5 14.7031 31.6406 16.3594
Q29.7812 18.0156 27.0938 18.6094
L21.6875 19.6719
Q17.9688 20.6094 15.5781 23.1406
Q13.1875 25.6875 13.1875 29.2969
Q13.1875 33.7344 15.5938 37.1562
Q18.0156 40.5781 21.9688 42.375
Q25.9219 44.1875 30.1719 44.1875
Q34.7188 44.1875 38.2969 42.0156
Q41.8906 39.8438 41.8906 35.5938
Q41.8906 33.2969 40.5938 31.5312
Q39.3125 29.7812 37.0156 29.7812
Q35.6875 29.7812 34.7344 30.6406
Q33.7969 31.5 33.7969 32.8125
Q33.7969 33.9844 34.4531 35.0781
Q35.1094 36.1875 36.2031 36.8438
Q37.3125 37.5 38.4844 37.5
Q37.5938 39.6562 35.1719 40.625
Q32.7656 41.6094 29.9844 41.6094
Q27.4375 41.6094 24.8906 40.5781
Q22.3594 39.5469 20.8125 37.5625
Q19.2812 35.5938 19.2812 32.9062
Q19.2812 31.1094 20.5469 29.7344
Q21.8281 28.375 23.6875 27.7812
L29.5 26.6094
Q32.2812 26.0312 34.5938 24.5312
Q36.9219 23.0469 38.25 20.7656
Q39.5938 18.5 39.5938 15.5781
Q39.5938 11.8594 37.5156 8.25
Q35.4531 4.64062 32.4219 2.48438
Q27.0938 -1.125 19.3906 -1.125
Q14.0625 -1.125 9.60938 1.3125
Q5.17188 3.76562 5.17188 8.59375
Q5.17188 11.3281 6.75 13.3438
Q8.34375 15.375 11.0781 15.375
Q12.7031 15.375 13.7969 14.3906
Q14.8906 13.4219 14.8906 11.8125
Q14.8906 9.51562 13.1719 7.8125
Q11.4688 6.10938 9.1875 6.10938
z
" id="Cmmi10-73"/>
      <path d="
M7.51562 23
Q6.6875 23 6.14062 23.625
Q5.60938 24.2656 5.60938 25
Q5.60938 25.7344 6.14062 26.3594
Q6.6875 27 7.51562 27
L36.9219 27
L36.9219 56.5
Q36.9219 57.2812 37.5 57.7812
Q38.0938 58.2969 38.9219 58.2969
Q39.6562 58.2969 40.2812 57.7812
Q40.9219 57.2812 40.9219 56.5
L40.9219 27
L70.3125 27
Q71.0469 27 71.5781 26.3594
Q72.125 25.7344 72.125 25
Q72.125 24.2656 71.5781 23.625
Q71.0469 23 70.3125 23
L40.9219 23
L40.9219 -6.5
Q40.9219 -7.28125 40.2812 -7.78125
Q39.6562 -8.29688 38.9219 -8.29688
Q38.0938 -8.29688 37.5 -7.78125
Q36.9219 -7.28125 36.9219 -6.5
L36.9219 23
z
" id="Cmr10-2b"/>
      <path d="
M5.07812 0
Q4.10938 0 4.10938 1.3125
Q4.15625 1.5625 4.29688 2.14062
Q4.4375 2.73438 4.6875 3.125
Q4.9375 3.51562 5.42188 3.51562
Q14.9375 3.51562 16.5 9.625
L29.5 61.8125
Q29.6875 62.7969 29.6875 63.1875
Q29.6875 64.2656 28.5156 64.4062
Q26.6094 64.7969 21.2969 64.7969
Q20.3125 64.7969 20.3125 66.1094
Q20.3594 66.3594 20.5 66.9688
Q20.6562 67.5781 20.9219 67.9375
Q21.1875 68.3125 21.5781 68.3125
L39.2031 68.3125
Q40.3281 68.3125 40.4844 67.1875
L48.2969 9.90625
L84.7188 67.1875
Q85.4062 68.3125 86.625 68.3125
L103.609 68.3125
Q104.594 68.3125 104.594 67
Q104.547 66.75 104.391 66.1406
Q104.25 65.5312 103.984 65.1562
Q103.719 64.7969 103.328 64.7969
Q97.2188 64.7969 94.8281 64.1094
Q93.5 63.6719 92.9219 61.375
L79.2031 6.5
Q79 5.51562 79 5.07812
Q79 4.6875 79.125 4.42188
Q79.25 4.15625 79.4688 4.07812
Q79.6875 4 80.1719 3.90625
Q82.0781 3.51562 87.4062 3.51562
Q88.375 3.51562 88.375 2.20312
Q88.0312 0.78125 87.8281 0.390625
Q87.6406 0 86.7188 0
L60.5938 0
Q59.625 0 59.625 1.3125
Q59.6719 1.5625 59.8125 2.17188
Q59.9688 2.78125 60.2344 3.14062
Q60.5 3.51562 60.8906 3.51562
Q67 3.51562 69.3906 4.20312
Q70.7031 4.64062 71.2969 6.89062
L85.6875 64.7969
L45.3125 1.125
Q44.7344 0 43.3125 0
Q42.0469 0 41.8906 1.125
L33.4062 64.0156
L19.6719 9.1875
Q19.5781 8.9375 19.5312 8.5625
Q19.4844 8.20312 19.3906 7.71875
Q19.3906 5.125 21.6562 4.3125
Q23.9219 3.51562 27.2031 3.51562
Q28.2188 3.51562 28.2188 2.20312
Q27.875 0.875 27.6562 0.4375
Q27.4375 0 26.5156 0
z
" id="Cmmi10-4d"/>
      <path d="
M20.125 -1.125
Q15.3281 -1.125 11.7344 1.35938
Q8.15625 3.85938 6.26562 8.07812
Q4.39062 12.3125 4.39062 17
Q4.39062 24.125 7.98438 30.3906
Q11.5781 36.6719 17.7188 40.4219
Q23.875 44.1875 30.9062 44.1875
Q35.2031 44.1875 38.4062 41.9688
Q41.6094 39.75 41.6094 35.5938
Q41.6094 29.8281 37.0156 27.0156
Q32.4219 24.2188 26.6562 23.5625
Q20.9062 22.9062 13.9219 22.9062
L13.625 22.9062
Q12.0156 16.9375 12.0156 12.7031
Q12.0156 8.25 14.0625 4.875
Q16.1094 1.51562 20.3125 1.51562
Q26.2656 1.51562 31.75 4.25
Q37.25 6.98438 40.7188 11.8125
Q41.0156 12.1094 41.5 12.1094
Q42 12.1094 42.5 11.5469
Q43.0156 10.9844 43.0156 10.5
Q43.0156 10.1094 42.8281 9.90625
Q39.1562 4.78125 32.9531 1.82812
Q26.7656 -1.125 20.125 -1.125
M14.2031 25.4844
Q20.0156 25.4844 24.9531 26.0156
Q29.8906 26.5625 33.8906 28.7344
Q37.8906 30.9062 37.8906 35.5
Q37.8906 37.3594 36.8594 38.75
Q35.8438 40.1406 34.2031 40.875
Q32.5625 41.6094 30.8125 41.6094
Q26.5625 41.6094 23.1719 39.3125
Q19.7812 37.0156 17.5781 33.3281
Q15.375 29.6406 14.2031 25.4844" id="Cmmi10-65"/>
      <path d="
M31 -24.8125
Q25.4375 -20.4062 21.4062 -14.7188
Q17.3906 -9.03125 14.8125 -2.57812
Q12.25 3.85938 10.9844 10.8906
Q9.71875 17.9219 9.71875 25
Q9.71875 32.1719 10.9844 39.2031
Q12.25 46.2344 14.8594 52.7344
Q17.4844 59.2344 21.5312 64.8906
Q25.5938 70.5625 31 74.8125
Q31 75 31.5 75
L32.4219 75
Q32.7188 75 32.9531 74.7344
Q33.2031 74.4688 33.2031 74.125
Q33.2031 73.6875 33.0156 73.4844
Q28.125 68.7031 24.875 63.2344
Q21.625 57.7656 19.6406 51.5781
Q17.6719 45.4062 16.7969 38.7812
Q15.9219 32.1719 15.9219 25
Q15.9219 -6.78125 32.9062 -23.2969
Q33.2031 -23.5781 33.2031 -24.125
Q33.2031 -24.3594 32.9375 -24.6719
Q32.6719 -25 32.4219 -25
L31.5 -25
Q31 -25 31 -24.8125" id="Cmr10-28"/>
      <path d="
M4.98438 0
L4.98438 2.6875
Q4.98438 2.9375 5.17188 3.21875
L20.7031 20.4062
Q24.2188 24.2188 26.4062 26.7969
Q28.6094 29.3906 30.75 32.7656
Q32.9062 36.1406 34.1562 39.625
Q35.4062 43.1094 35.4062 47.0156
Q35.4062 51.125 33.8906 54.8594
Q32.375 58.5938 29.375 60.8438
Q26.375 63.0938 22.125 63.0938
Q17.7812 63.0938 14.3125 60.4688
Q10.8438 57.8594 9.42188 53.7188
Q9.8125 53.8125 10.5 53.8125
Q12.75 53.8125 14.3281 52.2969
Q15.9219 50.7812 15.9219 48.3906
Q15.9219 46.0938 14.3281 44.5
Q12.75 42.9219 10.5 42.9219
Q8.15625 42.9219 6.5625 44.5469
Q4.98438 46.1875 4.98438 48.3906
Q4.98438 52.1562 6.39062 55.4375
Q7.8125 58.7344 10.4688 61.2969
Q13.1406 63.875 16.4844 65.2344
Q19.8281 66.6094 23.5781 66.6094
Q29.2969 66.6094 34.2188 64.1875
Q39.1562 61.7656 42.0312 57.3438
Q44.9219 52.9375 44.9219 47.0156
Q44.9219 42.6719 43.0156 38.7656
Q41.1094 34.8594 38.125 31.6562
Q35.1562 28.4688 30.5156 24.4062
Q25.875 20.3594 24.4219 19
L13.0938 8.10938
L22.7031 8.10938
Q29.7812 8.10938 34.5469 8.21875
Q39.3125 8.34375 39.5938 8.59375
Q40.7656 9.85938 42 17.8281
L44.9219 17.8281
L42.0938 0
z
" id="Cmr10-32"/>
      <path d="
M17.3906 -1.125
Q11.0781 -1.125 7.4375 3.64062
Q3.8125 8.40625 3.8125 14.8906
Q3.8125 21.2969 7.125 28.1719
Q10.4531 35.0625 16.0938 39.625
Q21.7344 44.1875 28.2188 44.1875
Q31.2031 44.1875 33.5469 42.5781
Q35.8906 40.9688 37.2031 38.1875
Q38.3281 42.1875 41.6094 42.1875
Q42.875 42.1875 43.7188 41.4219
Q44.5781 40.6719 44.5781 39.4062
Q44.5781 39.1094 44.5469 38.9531
Q44.5312 38.8125 44.4844 38.625
L37.5 10.6875
Q36.8125 7.71875 36.8125 5.8125
Q36.8125 1.51562 39.7031 1.51562
Q42.8281 1.51562 44.4531 5.48438
Q46.0938 9.46875 47.2188 14.7031
Q47.4062 15.2812 48 15.2812
L49.2188 15.2812
Q49.6094 15.2812 49.8438 14.9375
Q50.0938 14.5938 50.0938 14.3125
Q48.3438 7.32812 46.2656 3.09375
Q44.1875 -1.125 39.5 -1.125
Q36.1406 -1.125 33.5469 0.84375
Q30.9531 2.82812 30.3281 6.10938
Q23.875 -1.125 17.3906 -1.125
M17.4844 1.51562
Q21.0938 1.51562 24.4844 4.21875
Q27.875 6.9375 30.3281 10.5938
Q30.4219 10.6875 30.4219 10.8906
L35.7969 32.625
L35.8906 32.9062
Q35.2969 36.4688 33.3125 39.0312
Q31.3438 41.6094 27.9844 41.6094
Q24.6094 41.6094 21.7031 38.8438
Q18.7969 36.0781 16.7969 32.3281
Q14.8438 28.3281 13.0625 21.3438
Q11.2812 14.3594 11.2812 10.5
Q11.2812 7.03125 12.7656 4.26562
Q14.2656 1.51562 17.4844 1.51562" id="Cmmi10-61"/>
      <path d="
M7.51562 13.2812
Q6.6875 13.2812 6.14062 13.9062
Q5.60938 14.5469 5.60938 15.2812
Q5.60938 16.1094 6.14062 16.6875
Q6.6875 17.2812 7.51562 17.2812
L70.3125 17.2812
Q71.0469 17.2812 71.5781 16.6875
Q72.125 16.1094 72.125 15.2812
Q72.125 14.5469 71.5781 13.9062
Q71.0469 13.2812 70.3125 13.2812
z

M7.51562 32.7188
Q6.6875 32.7188 6.14062 33.2969
Q5.60938 33.8906 5.60938 34.7188
Q5.60938 35.4531 6.14062 36.0781
Q6.6875 36.7188 7.51562 36.7188
L70.3125 36.7188
Q71.0469 36.7188 71.5781 36.0781
Q72.125 35.4531 72.125 34.7188
Q72.125 33.8906 71.5781 33.2969
Q71.0469 32.7188 70.3125 32.7188
z
" id="Cmr10-3d"/>
      <path d="
M9.28125 0
L9.28125 3.51562
Q21.7812 3.51562 21.7812 6.6875
L21.7812 59.1875
Q16.6094 56.6875 8.6875 56.6875
L8.6875 60.2031
Q20.9531 60.2031 27.2031 66.6094
L28.6094 66.6094
Q28.9531 66.6094 29.2656 66.3281
Q29.5938 66.0625 29.5938 65.7188
L29.5938 6.6875
Q29.5938 3.51562 42.0938 3.51562
L42.0938 0
z
" id="Cmr10-31"/>
      <path d="
M20.125 -1.125
Q15.375 -1.125 11.6875 1.125
Q8.01562 3.375 6 7.17188
Q4 10.9844 4 15.8281
Q4 22.6094 7.78125 29.25
Q11.5781 35.8906 17.8438 40.0312
Q24.125 44.1875 31 44.1875
Q34.7188 44.1875 37.625 42.9219
Q40.5312 41.6562 42.6719 39.3594
Q44.8281 37.0625 45.9688 33.9844
Q47.125 30.9062 47.125 27.2969
Q47.125 22.0781 44.9219 17.0156
Q42.7188 11.9688 38.8906 7.84375
Q35.0625 3.71875 30.125 1.29688
Q25.2031 -1.125 20.125 -1.125
M20.3125 1.51562
Q24.75 1.51562 28.4375 4.53125
Q32.125 7.5625 34.4844 12.1719
Q36.8594 16.7969 38.125 21.9219
Q39.4062 27.0469 39.4062 31.2031
Q39.4062 35.5469 37.2344 38.5781
Q35.0625 41.6094 30.8125 41.6094
Q24.9531 41.6094 20.5469 36.5938
Q16.1562 31.5938 13.9375 24.625
Q11.7188 17.6719 11.7188 11.9219
Q11.7188 7.5625 13.9375 4.53125
Q16.1562 1.51562 20.3125 1.51562" id="Cmmi10-6f"/>
     </defs>
     <g transform="translate(323.136 62.928)scale(0.144 -0.144)">
      <use transform="translate(0.0 0.8828125)" xlink:href="#Cmmi10-56"/>
      <use transform="translate(58.30078125 -24.626562500000006)scale(0.7)" xlink:href="#Cmmi10-4d"/>
      <use transform="translate(126.21582031250001 -24.626562500000006)scale(0.7)" xlink:href="#Cmmi10-6f"/>
      <use transform="translate(160.08789062500003 -24.626562500000006)scale(0.7)" xlink:href="#Cmmi10-72"/>
      <use transform="translate(191.669921875 -24.626562500000006)scale(0.7)" xlink:href="#Cmmi10-73"/>
      <use transform="translate(224.4140625 -24.626562500000006)scale(0.7)" xlink:href="#Cmmi10-65"/>
      <use transform="translate(274.51171875 0.8828125)" xlink:href="#Cmr10-3d"/>
      <use transform="translate(358.5703125 0.8828125)" xlink:href="#Cmsy10-a1"/>
      <use transform="translate(436.255859375 0.8828125)" xlink:href="#Cmmi10-22"/>
      <use transform="translate(500.396484375 0.8828125)" xlink:href="#Cmr10-2b"/>
      <use transform="translate(584.455078125 0.8828125)" xlink:href="#Cmmi10-22"/>
      <use transform="translate(631.037109375 0.8828125)" xlink:href="#Cmr10-28"/>
      <use transform="translate(669.85546875 0.8828125)" xlink:href="#Cmr10-31"/>
      <use transform="translate(719.85546875 0.8828125)" xlink:href="#Cmsy10-a1"/>
      <use transform="translate(797.541015625 0.8828125)" xlink:href="#Cmmi10-65"/>
      <use transform="translate(844.025390625 43.3984375)scale(0.7)" xlink:href="#Cmsy10-a1"/>
      <use transform="translate(898.4052734375 43.3984375)scale(0.7)" xlink:href="#Cmmi10-61"/>
      <use transform="translate(935.353515625 43.3984375)scale(0.7)" xlink:href="#Cmr10-28"/>
      <use transform="translate(962.5263671875 43.3984375)scale(0.7)" xlink:href="#Cmmi10-72"/>
      <use transform="translate(994.1083984375 43.3984375)scale(0.7)" xlink:href="#Cmsy10-a1"/>
      <use transform="translate(1048.48828125 43.3984375)scale(0.7)" xlink:href="#Cmmi10-72"/>
      <use transform="translate(1080.0703125 25.541875000000005)scale(0.49)" xlink:href="#Cmr10-30"/>
      <use transform="translate(1115.0703125 43.3984375)scale(0.7)" xlink:href="#Cmr10-29"/>
      <use transform="translate(1159.2494140625 0.8828125)" xlink:href="#Cmr10-29"/>
      <use transform="translate(1198.0677734375 50.3734375)scale(0.7)" xlink:href="#Cmr10-32"/>
     </g>
    </g>
    <g id="line2d_11">
     <path d="
M287.136 82.944
L307.296 82.944" style="fill:none;stroke:#0000ff;stroke-dasharray:6.000000,6.000000;stroke-dashoffset:0.0;stroke-width:2.5;"/>
    </g>
    <g id="line2d_12"/>
    <g id="text_6">
     <!-- $V_{Morse} = -\varepsilon + \varepsilon a^2(r-r_0)^2$ -->
     <g transform="translate(323.136 87.984)scale(0.144 -0.144)">
      <use transform="translate(0.0 0.8828125)" xlink:href="#Cmmi10-56"/>
      <use transform="translate(58.30078125 -24.626562500000006)scale(0.7)" xlink:href="#Cmmi10-4d"/>
      <use transform="translate(126.21582031250001 -24.626562500000006)scale(0.7)" xlink:href="#Cmmi10-6f"/>
      <use transform="translate(160.08789062500003 -24.626562500000006)scale(0.7)" xlink:href="#Cmmi10-72"/>
      <use transform="translate(191.669921875 -24.626562500000006)scale(0.7)" xlink:href="#Cmmi10-73"/>
      <use transform="translate(224.4140625 -24.626562500000006)scale(0.7)" xlink:href="#Cmmi10-65"/>
      <use transform="translate(274.51171875 0.8828125)" xlink:href="#Cmr10-3d"/>
      <use transform="translate(358.5703125 0.8828125)" xlink:href="#Cmsy10-a1"/>
      <use transform="translate(436.255859375 0.8828125)" xlink:href="#Cmmi10-22"/>
      <use transform="translate(500.396484375 0.8828125)" xlink:href="#Cmr10-2b"/>
      <use transform="translate(584.455078125 0.8828125)" xlink:href="#Cmmi10-22"/>
      <use transform="translate(631.037109375 0.8828125)" xlink:href="#Cmmi10-61"/>
      <use transform="translate(683.8203125 43.3984375)scale(0.7)" xlink:href="#Cmr10-32"/>
      <use transform="translate(750.8265625 0.8828125)" xlink:href="#Cmr10-28"/>
      <use transform="translate(789.644921875 0.8828125)" xlink:href="#Cmmi10-72"/>
      <use transform="translate(834.762109375 0.8828125)" xlink:href="#Cmsy10-a1"/>
      <use transform="translate(912.44765625 0.8828125)" xlink:href="#Cmmi10-72"/>
      <use transform="translate(957.56484375 -24.626562500000006)scale(0.7)" xlink:href="#Cmr10-30"/>
      <use transform="translate(1007.56484375 0.8828125)" xlink:href="#Cmr10-29"/>
      <use transform="translate(1046.383203125 50.3734375)scale(0.7)" xlink:href="#Cmr10-32"/>
     </g>
    </g>
   </g>
  </g>
 </g>
 <defs>
  <clipPath id="p44692e4afb">
   <rect height="288.0" width="446.4" x="72.0" y="36.0"/>
  </clipPath>
 </defs>
</svg>
