<?xml version="1.0" encoding="UTF-8" standalone="no"?>
<!-- Created with matplotlib (http://matplotlib.org/) -->

<svg
   xmlns:dc="http://purl.org/dc/elements/1.1/"
   xmlns:cc="http://creativecommons.org/ns#"
   xmlns:rdf="http://www.w3.org/1999/02/22-rdf-syntax-ns#"
   xmlns:svg="http://www.w3.org/2000/svg"
   xmlns="http://www.w3.org/2000/svg"
   xmlns:xlink="http://www.w3.org/1999/xlink"
   xmlns:sodipodi="http://sodipodi.sourceforge.net/DTD/sodipodi-0.dtd"
   xmlns:inkscape="http://www.inkscape.org/namespaces/inkscape"
   height="360pt"
   version="1.1"
   viewBox="0 0 576 360"
   width="576pt"
   id="svg2"
   inkscape:version="0.48.4 r9939"
   sodipodi:docname="native.svg">
  <metadata
     id="metadata303">
    <rdf:RDF>
      <cc:Work
         rdf:about="">
        <dc:format>image/svg+xml</dc:format>
        <dc:type
           rdf:resource="http://purl.org/dc/dcmitype/StillImage" />
      </cc:Work>
    </rdf:RDF>
  </metadata>
  <sodipodi:namedview
     pagecolor="#ffffff"
     bordercolor="#666666"
     borderopacity="1"
     objecttolerance="10"
     gridtolerance="10"
     guidetolerance="10"
     inkscape:pageopacity="0"
     inkscape:pageshadow="2"
     inkscape:window-width="640"
     inkscape:window-height="480"
     id="namedview301"
     showgrid="false"
     inkscape:zoom="0.42361111"
     inkscape:cx="360"
     inkscape:cy="225"
     inkscape:window-x="0"
     inkscape:window-y="0"
     inkscape:window-maximized="0"
     inkscape:current-layer="svg2" />
  <defs
     id="defs4">
    <style
       type="text/css"
       id="style6">
*{stroke-linecap:butt;stroke-linejoin:round;}
  </style>
  </defs>
  <g
     style="stroke-linecap:butt;stroke-linejoin:round"
     id="patch_1">
    <path
       inkscape:connector-curvature="0"
       id="path10"
       style="fill:#ffffff;stroke-linecap:butt;stroke-linejoin:round"
       d="M 0,360 576,360 576,0 0,0 z" />
  </g>
  <g
     style="stroke-linecap:butt;stroke-linejoin:round"
     id="axes_1">
    <g
       style="stroke-linecap:butt;stroke-linejoin:round"
       id="patch_2">
      <path
         inkscape:connector-curvature="0"
         id="path14"
         style="fill:#ffffff;stroke-linecap:butt;stroke-linejoin:round"
         d="m 72,324 446.4,0 0,-288 L 72,36 z" />
    </g>
    <g
       style="stroke-linecap:butt;stroke-linejoin:round"
       id="line2d_1">
      <path
         inkscape:connector-curvature="0"
         id="path17"
         style="fill:none;stroke:#008000;stroke-width:2.5;stroke-linecap:square;stroke-linejoin:round"
         d="m 148.125,-1 1.439,26.3836 1.85,29.9293 1.849,26.3926 1.85,23.2495 1.85,20.458 1.85,17.977 1.849,15.772 1.85,13.815 1.85,12.075 1.849,10.532 1.85,9.162 1.85,7.946 1.849,6.867 1.85,5.912 1.85,5.065 1.849,4.316 1.85,3.652 1.85,3.067 1.85,2.549 1.849,2.093 1.85,1.691 1.85,1.339 1.849,1.028 1.85,0.757 1.85,0.519 1.849,0.312 1.85,0.133 1.85,-0.024 1.85,-0.158 3.699,-0.646 3.699,-0.984 3.7,-1.222 5.549,-2.114 11.098,-4.612 9.249,-3.754 7.398,-2.774 7.399,-2.516 7.399,-2.246 7.399,-1.983 7.398,-1.737 7.399,-1.513 7.399,-1.312 9.249,-1.393 9.248,-1.159 11.098,-1.135 11.098,-0.906 12.948,-0.831 14.798,-0.72 16.647,-0.594 20.347,-0.508 25.896,-0.417 35.144,-0.325 49.942,-0.222 5.549,-0.015 0,0"
         clip-path="url(#p44692e4afb)" />
    </g>
    <g
       style="stroke-linecap:butt;stroke-linejoin:round"
       id="line2d_2">
      <path
         inkscape:connector-curvature="0"
         id="path20"
         style="fill:none;stroke:#0000ff;stroke-width:1.5;stroke-linecap:butt;stroke-linejoin:round;stroke-dasharray:6, 6;stroke-dashoffset:0"
         d="m 193.408,-1 0.549,4.66798 1.849,14.56792 1.85,13.4913 1.85,12.4999 1.85,11.5865 1.849,10.7447 1.85,9.9682 1.85,9.2519 1.849,8.5907 1.85,7.9799 1.85,7.416 1.849,6.895 1.85,6.412 1.85,5.967 1.85,5.554 1.849,5.171 1.85,4.818 1.85,4.489 1.849,4.185 1.85,3.904 3.699,7.04 3.7,6.136 3.699,5.357 3.7,4.683 3.699,4.099 3.699,3.593 3.7,3.154 3.699,2.771 3.7,2.439 3.699,2.149 3.699,1.895 3.7,1.674 3.699,1.48 5.549,1.909 5.549,1.593 5.549,1.334 5.55,1.12 7.398,1.221 7.399,0.973 9.249,0.948 9.248,0.721 11.098,0.647 12.948,0.538 16.647,0.463 22.197,0.372 31.445,0.271 49.942,0.169 35.144,0.045 0,0"
         clip-path="url(#p44692e4afb)" />
    </g>
    <g
       style="stroke-linecap:butt;stroke-linejoin:round"
       id="line2d_3">
      <path
         inkscape:connector-curvature="0"
         id="path23"
         style="fill:none;stroke:#ff0000;stroke-width:1.5;stroke-linecap:butt;stroke-linejoin:round;stroke-dasharray:6, 6;stroke-dashoffset:0"
         d="m 211.12,361 3.183,-13.377 3.7,-13.818 3.699,-12.238 3.7,-10.855 3.699,-9.639 3.699,-8.571 3.7,-7.631 3.699,-6.802 3.7,-6.07 3.699,-5.424 3.699,-4.851 3.7,-4.345 3.699,-3.894 3.7,-3.495 3.699,-3.14 3.699,-2.824 3.7,-2.542 3.699,-2.291 3.7,-2.066 3.699,-1.866 3.699,-1.686 5.549,-2.233 5.55,-1.924 5.549,-1.662 5.549,-1.439 5.549,-1.247 7.399,-1.412 7.398,-1.175 9.249,-1.197 9.248,-0.959 11.099,-0.906 12.947,-0.803 14.798,-0.673 18.497,-0.587 22.196,-0.461 29.596,-0.368 40.693,-0.262 12.948,-0.05 0,0"
         clip-path="url(#p44692e4afb)" />
    </g>
    <g
       style="stroke-linecap:butt;stroke-linejoin:round"
       id="line2d_4">
      <path
         inkscape:connector-curvature="0"
         id="path26"
         style="fill:none;stroke:#008000;stroke-linecap:butt;stroke-linejoin:round;stroke-dasharray:6, 6;stroke-dashoffset:0"
         d="m 198.273,216 0,36"
         clip-path="url(#p44692e4afb)" />
    </g>
    <g
       style="stroke-linecap:butt;stroke-linejoin:round"
       id="line2d_5">
      <path
         inkscape:connector-curvature="0"
         id="path29"
         style="fill:none;stroke:#008000;stroke-linecap:butt;stroke-linejoin:round;stroke-dasharray:6, 6;stroke-dashoffset:0"
         d="m 135.136,252 63.137,0"
         clip-path="url(#p44692e4afb)" />
    </g>
    <g
       style="stroke-linecap:butt;stroke-linejoin:round"
       id="matplotlib.axis_1">
      <g
         style="stroke-linecap:butt;stroke-linejoin:round"
         id="xtick_1">
        <g
           style="stroke-linecap:butt;stroke-linejoin:round"
           id="line2d_6">
          <defs
             id="defs34">
            <path
               inkscape:connector-curvature="0"
               style="stroke:#000000;stroke-width:0.5;stroke-linecap:butt;stroke-linejoin:round"
               id="m5a7d422ac3"
               d="M 0,0 0,4" />
          </defs>
          <g
             style="stroke-linecap:butt;stroke-linejoin:round"
             id="g37">
            <use
               height="360"
               width="576"
               id="use39"
               y="216"
               xlink:href="#m5a7d422ac3"
               x="135.13637"
               style="stroke:#000000;stroke-width:0.5;stroke-linecap:butt;stroke-linejoin:round" />
          </g>
        </g>
        <g
           style="stroke-linecap:butt;stroke-linejoin:round"
           id="text_1">
          <!-- $0.8\sigma$ -->
          <defs
             id="defs42">
            <path
               style="stroke-linecap:butt;stroke-linejoin:round"
               inkscape:connector-curvature="0"
               id="Cmmi10-be"
               d="m 18.7031,-1.125 q -4.4375,0 -7.8906,2.125 -3.4375,2.125 -5.32812,5.73438 -1.875,3.62502 -1.875,7.96872 0,4.6407 2.09374,9.7657 2.10938,5.125 5.74998,9.375 3.6407,4.25 8.2188,6.75 4.5937,2.5156 9.4375,2.5156 l 25.1875,0 q 1.0312,0 1.75,-0.6875 0.7343,-0.6719 0.7343,-1.8438 0,-1.4687 -1.0468,-2.5625 -1.0469,-1.0937 -2.5156,-1.0937 l -12.2032,0 q 2.875,-4.2969 2.875,-10.4063 0,-5.0312 -1.9531,-9.9218 Q 39.9844,11.7188 36.5156,7.6875 33.0625,3.65625 28.4375,1.26562 23.8281,-1.125 18.7031,-1.125 m 0.0938,2.64062 q 5.4687,0 9.6875,4.26563 4.2344,4.28125 6.4687,10.45315 2.25,6.1718 2.25,11.4531 0,4.2969 -2.375,6.7656 -2.3593,2.4688 -6.6093,2.4688 -5.8126,0 -9.8907,-3.9063 -4.0625,-3.9062 -6.0937,-9.8281 -2.0313,-5.9063 -2.0313,-11.375 0,-4.29688 2.2657,-7.29688 2.2812,-3 6.3281,-3" />
            <path
               style="stroke-linecap:butt;stroke-linejoin:round"
               inkscape:connector-curvature="0"
               id="Cmmi10-3a"
               d="m 8.40625,5.51562 q 0,2.25 1.65625,3.85938 1.6563,1.6094 3.8594,1.6094 1.3593,0 2.6719,-0.7344 1.3281,-0.73438 2.0624,-2.04688 0.7344,-1.3125 0.7344,-2.6875 0,-2.1875 -1.625,-3.85937 Q 16.1562,0 13.9219,0 11.7188,0 10.0625,1.65625 8.40625,3.32812 8.40625,5.51562" />
            <path
               style="stroke-linecap:butt;stroke-linejoin:round"
               inkscape:connector-curvature="0"
               id="Cmr10-30"
               d="m 25,-2.20312 q -12.25,0 -16.67188,10.07812 -4.42187,10.0938 -4.42187,24.0156 0,8.6875 1.57813,16.3438 Q 7.07812,55.9062 11.7812,61.25 16.5,66.6094 25,66.6094 q 6.5938,0 10.7812,-3.2344 4.2032,-3.2188 6.4063,-8.3281 2.2031,-5.0938 3,-10.9375 Q 46,38.2812 46,31.8906 46,23.2969 44.4062,15.7969 42.8281,8.29688 38.1875,3.04688 33.5469,-2.20312 25,-2.20312 m 0,2.593745 q 5.5625,0 8.2969,5.703125 2.7343,5.71875 3.375,12.65625 0.6406,6.9375 0.6406,14.75 0,7.5156 -0.6406,13.8594 -0.6407,6.3594 -3.3594,11.5 -2.7031,5.1562 -8.3125,5.1562 -5.6562,0 -8.3906,-5.1875 -2.7344,-5.1719 -3.375,-11.5 -0.6406,-6.3125 -0.6406,-13.8281 0,-5.5625 0.2656,-10.5 0.2812,-4.9375 1.4531,-10.1875 1.1719,-5.25 3.7813,-8.84375 Q 20.7031,0.390625 25,0.390625" />
            <path
               style="stroke-linecap:butt;stroke-linejoin:round"
               inkscape:connector-curvature="0"
               id="Cmr10-38"
               d="m 4.20312,15.1875 q 0,6 3.95313,10.6094 3.95315,4.625 10.15625,7.7031 l -3.7187,2.3906 q -3.4063,2.25 -5.56255,5.9844 -2.14063,3.7344 -2.14063,7.8281 0,4.7969 2.51563,8.6407 2.51565,3.8593 6.68755,6.0624 4.1718,2.2032 8.9062,2.2032 4.4375,0 8.5625,-1.8125 4.1406,-1.8125 6.7969,-5.1875 2.6562,-3.3594 2.6562,-8 0,-3.3594 -1.5937,-6.25 -1.5781,-2.875 -4.3438,-5.1719 -2.75,-2.2969 -5.875,-3.9063 L 36.9219,32.625 Q 40.875,30.0312 43.2812,25.8281 45.7031,21.625 45.7031,17 q 0,-5.4219 -2.9062,-9.875 Q 39.8906,2.6875 35.1094,0.234375 30.3281,-2.20312 25,-2.20312 q -5.1719,0 -9.9844,2.10937 Q 10.2031,2 7.20312,5.98438 q -3,3.98437 -3,9.20312 m 5.42188,0 q 0,-3.9531 2.1719,-7.23438 2.1719,-3.26562 5.7343,-5.125 Q 21.0938,0.984375 25,0.984375 q 5.8125,0 10.5469,3.390625 4.7343,3.39062 4.7343,9 0,1.9062 -0.7656,3.7812 -0.75,1.8907 -2.0937,3.4219 -1.3438,1.5469 -3,2.5157 L 21,31.7812 Q 17.875,30.125 15.25,27.5781 12.6406,25.0469 11.125,21.875 9.625,18.7031 9.625,15.1875 M 16.5,45.7031 28.6094,37.8906 q 4.2031,2.4375 6.8906,5.9063 2.6875,3.4687 2.6875,7.8125 0,3.375 -1.8906,6.1718 -1.875,2.8126 -4.9063,4.375 -3.0156,1.5626 -6.4844,1.5626 -3.0312,0 -6.1093,-1.1719 -3.0781,-1.1719 -5.0781,-3.5 -2,-2.3125 -2,-5.4375 0,-4.6875 4.7812,-7.9063" />
          </defs>
          <g
             style="stroke-linecap:butt;stroke-linejoin:round"
             id="g48"
             transform="matrix(0.12,0,0,-0.12,123.97637,209.50437)">
            <use
               height="360"
               width="576"
               y="0"
               x="0"
               style="stroke-linecap:butt;stroke-linejoin:round"
               id="use50"
               xlink:href="#Cmr10-30"
               transform="translate(0,0.390625)" />
            <use
               height="360"
               width="576"
               y="0"
               x="0"
               style="stroke-linecap:butt;stroke-linejoin:round"
               id="use52"
               xlink:href="#Cmmi10-3a"
               transform="translate(50,0.390625)" />
            <use
               height="360"
               width="576"
               y="0"
               x="0"
               style="stroke-linecap:butt;stroke-linejoin:round"
               id="use54"
               xlink:href="#Cmr10-38"
               transform="translate(78.542969,0.390625)" />
            <use
               height="360"
               width="576"
               y="0"
               x="0"
               style="stroke-linecap:butt;stroke-linejoin:round"
               id="use56"
               xlink:href="#Cmmi10-be"
               transform="translate(128.54297,0.390625)" />
          </g>
        </g>
      </g>
      <g
         style="stroke-linecap:butt;stroke-linejoin:round"
         id="xtick_2">
        <g
           style="stroke-linecap:butt;stroke-linejoin:round"
           id="line2d_7">
          <g
             style="stroke-linecap:butt;stroke-linejoin:round"
             id="g60">
            <use
               height="360"
               width="576"
               id="use62"
               y="216"
               xlink:href="#m5a7d422ac3"
               x="198.27274"
               style="stroke:#000000;stroke-width:0.5;stroke-linecap:butt;stroke-linejoin:round" />
          </g>
        </g>
        <g
           style="stroke-linecap:butt;stroke-linejoin:round"
           id="text_2">
          <!-- $\sigma$ -->
          <g
             style="stroke-linecap:butt;stroke-linejoin:round"
             id="g65"
             transform="matrix(0.12,0,0,-0.12,194.79273,209.50437)">
            <use
               height="360"
               width="576"
               y="0"
               x="0"
               style="stroke-linecap:butt;stroke-linejoin:round"
               id="use67"
               xlink:href="#Cmmi10-be"
               transform="translate(0,0.890625)" />
          </g>
        </g>
      </g>
    </g>
    <g
       style="stroke-linecap:butt;stroke-linejoin:round"
       id="matplotlib.axis_2">
      <g
         style="stroke-linecap:butt;stroke-linejoin:round"
         id="ytick_1">
        <g
           style="stroke-linecap:butt;stroke-linejoin:round"
           id="line2d_8">
          <defs
             id="defs72">
            <path
               inkscape:connector-curvature="0"
               style="stroke:#000000;stroke-width:0.5;stroke-linecap:butt;stroke-linejoin:round"
               id="md7965d1ba0"
               d="M 0,0 4,0" />
          </defs>
          <g
             style="stroke-linecap:butt;stroke-linejoin:round"
             id="g75">
            <use
               height="360"
               width="576"
               id="use77"
               y="252"
               xlink:href="#md7965d1ba0"
               x="135.13637"
               style="stroke:#000000;stroke-width:0.5;stroke-linecap:butt;stroke-linejoin:round" />
          </g>
        </g>
        <g
           style="stroke-linecap:butt;stroke-linejoin:round"
           id="text_3">
          <!-- $-\varepsilon$ -->
          <defs
             id="defs80">
            <path
               style="stroke-linecap:butt;stroke-linejoin:round"
               inkscape:connector-curvature="0"
               id="Cmsy10-a1"
               d="M 10.2031,23 Q 9.375,23 8.82812,23.625 8.29688,24.2656 8.29688,25 q 0,0.7344 0.53124,1.3594 Q 9.375,27 10.2031,27 l 57.375,0 q 0.7813,0 1.2969,-0.6406 0.5156,-0.625 0.5156,-1.3594 0,-0.7344 -0.5156,-1.375 Q 68.3594,23 67.5781,23 z" />
            <path
               style="stroke-linecap:butt;stroke-linejoin:round"
               inkscape:connector-curvature="0"
               id="Cmmi10-22"
               d="m 2.6875,10.4062 q 0,2.7344 1.1875,5.3126 1.20312,2.5937 3.125,4.6406 1.9375,2.0468 4.5312,3.6718 -3.81245,2.625 -3.81245,6.7813 0,4.4375 3.70315,7.7813 3.7187,3.3437 9.0781,5.0312 5.375,1.6875 9.6719,1.6875 1.8125,0 4.8593,-0.8125 3.0626,-0.7969 5.3438,-2.125 2.2969,-1.3125 2.2969,-2.875 0,-1.1719 -0.9063,-2.0781 -0.8906,-0.8907 -1.9687,-0.8907 -0.4375,0 -2.2188,1.0469 -1.7812,1.0469 -3.7969,1.875 -2,0.8281 -4.3906,0.8281 -3.6094,0 -7.9375,-0.8593 -4.3125,-0.8438 -7.5937,-2.9688 -3.2656,-2.125 -3.2656,-5.5469 0,-3.2656 3.7187,-5.5156 4.1875,1.9063 8.5937,1.9063 7.8126,0 7.8126,-2.7813 0,-2.2031 -2.6719,-2.8125 -2.6563,-0.6093 -6.125,-0.6093 -4.6875,0 -7.7188,1.4218 Q 10.8906,20.75 8.29688,17.5781 5.71875,14.4062 5.71875,10.9844 q 0,-3.21878 2.17187,-5.03128 2.17188,-1.79687 5.34378,-2.48437 3.1718,-0.6875 6.3437,-0.6875 5.5157,0 9.7657,1.1875 4.25,1.20313 6.1562,5.01563 0.2969,0.64062 1.125,0.64062 1.0781,-0.34375 1.0781,-1.32812 0,-0.09376 -0.2969,-0.96876 Q 35.7969,4.15625 32.8438,2 29.8906,-0.140625 26.25,-1.17188 q -3.6406,-1.03124 -7.4531,-1.03124 -6.2031,0 -11.15628,3.3125 Q 2.6875,4.4375 2.6875,10.4062 m 15.4219,13.625 q 1.7656,-0.3437 4.0156,-0.3437 4.3906,0 5.4688,0.625 -1.375,0.3906 -4.7969,0.3906 -2.4844,0 -4.6875,-0.6719" />
          </defs>
          <g
             style="stroke-linecap:butt;stroke-linejoin:round"
             id="g84"
             transform="matrix(0.12,0,0,-0.12,116.13637,255.31125)">
            <use
               height="360"
               width="576"
               y="0"
               x="0"
               style="stroke-linecap:butt;stroke-linejoin:round"
               id="use86"
               xlink:href="#Cmsy10-a1"
               transform="translate(0,0.6875)" />
            <use
               height="360"
               width="576"
               y="0"
               x="0"
               style="stroke-linecap:butt;stroke-linejoin:round"
               id="use88"
               xlink:href="#Cmmi10-22"
               transform="translate(77.685547,0.6875)" />
          </g>
        </g>
      </g>
    </g>
    <g
       style="stroke-linecap:butt;stroke-linejoin:round"
       id="patch_3">
      <path
         inkscape:connector-curvature="0"
         id="path91"
         style="fill:none;stroke-linecap:butt;stroke-linejoin:round"
         d="m 518.4,324 0,-288" />
    </g>
    <g
       style="stroke-linecap:butt;stroke-linejoin:round"
       id="patch_4">
      <path
         inkscape:connector-curvature="0"
         id="path94"
         style="fill:none;stroke:#000000;stroke-linecap:butt;stroke-linejoin:round"
         d="m 135.136,324 0,-288" />
    </g>
    <g
       style="stroke-linecap:butt;stroke-linejoin:round"
       id="patch_5">
      <path
         inkscape:connector-curvature="0"
         id="path97"
         style="fill:none;stroke:#000000;stroke-linecap:butt;stroke-linejoin:round"
         d="m 72,216 446.4,0" />
    </g>
    <g
       style="stroke-linecap:butt;stroke-linejoin:round"
       id="patch_6">
      <path
         inkscape:connector-curvature="0"
         id="path100"
         style="fill:none;stroke-linecap:butt;stroke-linejoin:round"
         d="m 72,324 446.4,0" />
    </g>
    <g
       style="stroke-linecap:butt;stroke-linejoin:round"
       id="legend_1">
      <g
         style="stroke-linecap:butt;stroke-linejoin:round"
         id="patch_7">
        <path
           inkscape:connector-curvature="0"
           id="path104"
           style="fill:#ffffff;stroke:#000000;stroke-linecap:butt;stroke-linejoin:round"
           d="m 305.424,124.56 205.776,0 0,-81.36 -205.776,0 0,81.36 z" />
      </g>
      <g
         style="stroke-linecap:butt;stroke-linejoin:round"
         id="line2d_9">
        <path
           inkscape:connector-curvature="0"
           id="path107"
           style="fill:none;stroke:#008000;stroke-width:2.5;stroke-linecap:square;stroke-linejoin:round"
           d="m 315.504,57.888 20.16,0" />
      </g>
      <g
         style="stroke-linecap:butt;stroke-linejoin:round"
         id="line2d_10" />
      <g
         style="stroke-linecap:butt;stroke-linejoin:round"
         id="text_4">
        <!-- $V_{native} = \varepsilon [5(\frac{\sigma}{r})^{12} - 6(\frac{\sigma}{r})^{10} ]$ -->
        <defs
           id="defs111">
          <path
             style="stroke-linecap:butt;stroke-linejoin:round"
             inkscape:connector-curvature="0"
             id="Cmr10-5b"
             d="m 11.8125,-25 0,100 13.6719,0 0,-4 -9.6563,0 0,-92 9.6563,0 0,-4 z" />
          <path
             style="stroke-linecap:butt;stroke-linejoin:round"
             inkscape:connector-curvature="0"
             id="Cmmi10-72"
             d="m 7.71875,1.70312 q 0,0.59376 0.09375,0.89063 l 7.4687,29.82815 q 0.7344,2.7812 0.7344,4.8906 0,4.2969 -2.9218,4.2969 -3.12505,0 -4.64068,-3.75 -1.51562,-3.7344 -2.9375,-9.4375 0,-0.2969 -0.29687,-0.4688 Q 4.9375,27.7812 4.6875,27.7812 l -1.17188,0 q -0.34374,0 -0.59374,0.3594 -0.23438,0.375 -0.23438,0.6719 1.07812,4.3437 2.07812,7.3594 1,3.0312 3.125,5.5156 2.12498,2.5 5.29688,2.5 3.4687,0 6.0781,-2 2.6094,-2 3.25,-5.2656 2.5313,3.3125 5.7813,5.2812 3.25,1.9844 7.1093,1.9844 3.1719,0 5.5782,-1.8594 2.4218,-1.8437 2.4218,-5.0156 0,-2.5469 -1.5937,-4.4375 Q 40.2344,31 37.5938,31 q -1.6094,0 -2.7032,1 -1.0937,1.0156 -1.0937,2.625 0,2.1875 1.6093,3.9219 1.6094,1.7343 3.7032,1.7343 -1.6094,1.3282 -3.9063,1.3282 -4.2969,0 -7.4687,-3.0625 Q 24.5625,35.5 22.0156,30.8125 L 14.8906,2.20312 Q 14.5469,0.828125 13.3438,-0.140625 12.1562,-1.125 10.6875,-1.125 q -1.21875,0 -2.09375,0.78125 -0.875,0.78125 -0.875,2.04687" />
          <path
             style="stroke-linecap:butt;stroke-linejoin:round"
             inkscape:connector-curvature="0"
             id="Cmmi10-74"
             d="m 6.20312,8.10938 q 0,1.46874 0.29688,2.78122 l 7.2188,28.7032 -10.50005,0 q -1.01563,0 -1.01563,1.3281 0.39063,2.1875 1.3125,2.1875 l 11.07818,0 4.0156,16.3125 q 0.3906,1.3281 1.5625,2.25 1.1719,0.9219 2.625,0.9219 1.2812,0 2.125,-0.7657 0.8593,-0.75 0.8593,-2.0156 0,-0.2969 -0.0312,-0.4687 -0.0156,-0.1563 -0.0625,-0.3594 l -4,-15.875 10.2969,0 q 1.0312,0 1.0312,-1.3125 -0.0625,-0.25 -0.2031,-0.8438 -0.1406,-0.5781 -0.3906,-0.9687 -0.25,-0.3906 -0.7344,-0.3906 l -10.8906,0 -7.1719,-28.9063 q -0.7344,-2.82812 -0.7344,-4.875 0,-4.29688 2.9375,-4.29688 4.3907,0 7.7813,4.125 3.3906,4.125 5.2031,9.06248 0.3906,0.5781 0.7813,0.5781 l 1.2187,0 q 0.3906,0 0.625,-0.2656 0.25,-0.2656 0.25,-0.6094 0,-0.2031 -0.0937,-0.2968 Q 29.3906,8.0625 25.1875,3.46875 21,-1.125 15.5781,-1.125 11.625,-1.125 8.90625,1.45312 6.20312,4.04688 6.20312,8.10938" />
          <path
             style="stroke-linecap:butt;stroke-linejoin:round"
             inkscape:connector-curvature="0"
             id="Cmmi10-61"
             d="m 17.3906,-1.125 q -6.3125,0 -9.9531,4.76562 -3.625,4.76563 -3.625,11.24998 0,6.4063 3.3125,13.2813 3.3281,6.8906 8.9688,11.4531 5.6406,4.5625 12.125,4.5625 2.9843,0 5.3281,-1.6094 2.3437,-1.6093 3.6562,-4.3906 1.125,4 4.4063,4 1.2656,0 2.1094,-0.7656 0.8593,-0.75 0.8593,-2.0157 0,-0.2968 -0.0312,-0.4531 -0.0157,-0.1406 -0.0625,-0.3281 L 37.5,10.6875 q -0.6875,-2.96875 -0.6875,-4.875 0,-4.29688 2.8906,-4.29688 3.125,0 4.75,3.96876 1.6407,3.98437 2.7657,9.21872 0.1874,0.5781 0.7812,0.5781 l 1.2188,0 q 0.3906,0 0.625,-0.3437 0.25,-0.3437 0.25,-0.625 Q 48.3438,7.32812 46.2656,3.09375 44.1875,-1.125 39.5,-1.125 q -3.3594,0 -5.9531,1.96875 Q 30.9531,2.82812 30.3281,6.10938 23.875,-1.125 17.3906,-1.125 m 0.0938,2.64062 q 3.6094,0 7,2.70313 3.3906,2.71875 5.8437,6.37505 0.0938,0.0937 0.0938,0.2968 l 5.375,21.7344 0.0937,0.2812 q -0.5937,3.5626 -2.5781,6.125 -1.9687,2.5782 -5.3281,2.5782 -3.375,0 -6.2813,-2.7656 -2.9062,-2.7657 -4.9062,-6.5157 -1.9531,-4 -3.7344,-10.9843 -1.7813,-6.9844 -1.7813,-10.8438 0,-3.46875 1.4844,-6.23438 1.5,-2.75 4.7188,-2.75" />
          <path
             style="stroke-linecap:butt;stroke-linejoin:round"
             inkscape:connector-curvature="0"
             id="Cmr10-5d"
             d="m 2.20312,-25 0,4 9.71878,0 0,92 -9.71878,0 0,4 13.71878,0 0,-100 z" />
          <path
             style="stroke-linecap:butt;stroke-linejoin:round"
             inkscape:connector-curvature="0"
             id="Cmmi10-76"
             d="m 10.6875,11.2812 q 0,2.25 0.5313,4.9219 0.5468,2.6875 1.0781,4.4219 0.5469,1.7344 2.4531,6.7656 1.9062,5.0313 1.9531,5.2344 1.3125,3.6562 1.3125,6 0,2.9844 -2.1875,2.9844 -3.9687,0 -6.53122,-4.0782 Q 6.73438,33.4531 5.51562,28.4219 5.32812,27.7812 4.6875,27.7812 l -1.17188,0 q -0.82812,0 -0.82812,0.9376 l 0,0.2812 q 1.60938,5.9688 4.92188,10.5781 3.32812,4.6094 8.40622,4.6094 3.5625,0 6.0313,-2.3437 2.4687,-2.3438 2.4687,-5.9532 0,-1.8594 -0.8281,-3.9062 -1.9531,-5.0782 -3.0781,-8.1406 -1.125,-3.0469 -2.0782,-6.8282 -0.9531,-3.7812 -0.9531,-7 0,-3.7656 1.7344,-6.1406 1.7344,-2.35938 5.3906,-2.35938 6.9375,0 12.5,10.68748 1.7657,3.4688 3.3281,8.1563 1.5626,4.6875 1.5626,7.625 0,3.0156 -0.9844,4.7031 -0.9688,1.6875 -2.5313,3.5156 -1.5625,1.8281 -1.5625,2.9063 0,1.9531 1.6094,3.5625 1.6094,1.6093 3.5625,1.6093 2.3906,0 3.4375,-2.2031 1.0625,-2.1875 1.0625,-4.9687 0,-3.3125 -0.9531,-7.9063 Q 44.7812,24.6094 43.0938,19.6719 41.4062,14.75 39.9844,11.9219 33.4062,-1.125 24.6094,-1.125 18.3125,-1.125 14.5,2.01562 10.6875,5.17188 10.6875,11.2812" />
          <path
             style="stroke-linecap:butt;stroke-linejoin:round"
             inkscape:connector-curvature="0"
             id="Cmmi10-6e"
             d="m 7.71875,1.70312 q 0,0.59376 0.09375,0.89063 l 7.4687,29.82815 q 0.7344,2.7812 0.7344,4.8906 0,4.2969 -2.9218,4.2969 -3.12505,0 -4.64068,-3.75 -1.51562,-3.7344 -2.9375,-9.4375 0,-0.2969 -0.29687,-0.4688 Q 4.9375,27.7812 4.6875,27.7812 l -1.17188,0 q -0.34374,0 -0.59374,0.3594 -0.23438,0.375 -0.23438,0.6719 1.07812,4.3437 2.07812,7.3594 1,3.0312 3.125,5.5156 2.12498,2.5 5.29688,2.5 3.75,0 6.625,-2.375 2.8906,-2.3594 2.8906,-6.0156 2.9844,3.9062 6.9844,6.1406 4,2.25 8.5,2.25 3.5625,0 6.1406,-1.2187 2.5938,-1.2188 4.0313,-3.6876 1.4531,-2.4687 1.4531,-5.875 0,-4.1093 -1.8437,-9.9218 Q 46.1406,17.6719 43.4062,10.5 42,7.23438 42,4.5 q 0,-2.98438 2.2812,-2.98438 3.9063,0 6.5157,4.1875 2.625,4.20313 3.7031,8.99998 0.1875,0.5781 0.8281,0.5781 l 1.1719,0 q 0.3906,0 0.6562,-0.25 0.2657,-0.2343 0.2657,-0.625 0,-0.0937 -0.0938,-0.2968 Q 55.9531,8.45312 52.5625,3.65625 49.1719,-1.125 44.0938,-1.125 q -3.5157,0 -6.0157,2.42188 -2.4843,2.42187 -2.4843,5.875 0,1.85937 0.7812,3.90622 1.2656,3.2813 2.9062,7.8125 1.6407,4.5469 2.6876,8.6875 1.0468,4.1563 1.0468,7.3281 0,2.7969 -1.1562,4.75 -1.1406,1.9532 -3.875,1.9532 -3.6563,0 -6.7344,-1.625 -3.0781,-1.6094 -5.375,-4.2656 -2.2969,-2.6563 -4.1875,-6.3282 L 14.8906,2.20312 Q 14.5469,0.828125 13.3438,-0.140625 12.1562,-1.125 10.6875,-1.125 q -1.21875,0 -2.09375,0.78125 -0.875,0.78125 -0.875,2.04687" />
          <path
             style="stroke-linecap:butt;stroke-linejoin:round"
             inkscape:connector-curvature="0"
             id="Cmr10-32"
             d="m 4.98438,0 0,2.6875 q 0,0.25 0.1875,0.53125 L 20.7031,20.4062 q 3.5157,3.8126 5.7031,6.3907 2.2032,2.5937 4.3438,5.9687 2.1562,3.375 3.4062,6.8594 1.25,3.4844 1.25,7.3906 0,4.1094 -1.5156,7.8438 -1.5156,3.7344 -4.5156,5.9844 -3,2.25 -7.25,2.25 -4.3438,0 -7.8125,-2.625 -3.4687,-2.6094 -4.89062,-6.75 0.39062,0.0937 1.07812,0.0937 2.25,0 3.8281,-1.5156 1.5938,-1.5157 1.5938,-3.9063 0,-2.2968 -1.5938,-3.8906 Q 12.75,42.9219 10.5,42.9219 q -2.34375,0 -3.9375,1.625 -1.57812,1.6406 -1.57812,3.8437 0,3.7656 1.40624,7.0469 1.42188,3.2969 4.07818,5.8594 2.6718,2.5781 6.0156,3.9375 3.3437,1.375 7.0937,1.375 5.7188,0 10.6407,-2.4219 4.9374,-2.4219 7.8124,-6.8437 2.8907,-4.4063 2.8907,-10.3282 0,-4.3437 -1.9063,-8.25 -1.9062,-3.9062 -4.8906,-7.1094 -2.9688,-3.1874 -7.6094,-7.25 Q 25.875,20.3594 24.4219,19 L 13.0938,8.10938 l 9.6093,0 q 7.0781,0 11.8438,0.10937 4.7656,0.125 5.0469,0.375 Q 40.7656,9.85938 42,17.8281 l 2.9219,0 L 42.0938,0 z" />
          <path
             style="stroke-linecap:butt;stroke-linejoin:round"
             inkscape:connector-curvature="0"
             id="Cmr10-28"
             d="m 31,-24.8125 q -5.5625,4.4063 -9.5938,10.0937 -4.0156,5.68755 -6.5937,12.14068 Q 12.25,3.85938 10.9844,10.8906 9.71875,17.9219 9.71875,25 q 0,7.1719 1.26565,14.2031 1.2656,7.0313 3.875,13.5313 2.625,6.5 6.6718,12.1562 Q 25.5938,70.5625 31,74.8125 31,75 31.5,75 l 0.9219,0 q 0.2969,0 0.5312,-0.2656 0.25,-0.2656 0.25,-0.6094 0,-0.4375 -0.1875,-0.6406 Q 28.125,68.7031 24.875,63.2344 21.625,57.7656 19.6406,51.5781 17.6719,45.4062 16.7969,38.7812 15.9219,32.1719 15.9219,25 q 0,-31.78125 16.9843,-48.2969 0.2969,-0.2812 0.2969,-0.8281 0,-0.2344 -0.2656,-0.5469 Q 32.6719,-25 32.4219,-25 L 31.5,-25 q -0.5,0 -0.5,0.1875" />
          <path
             style="stroke-linecap:butt;stroke-linejoin:round"
             inkscape:connector-curvature="0"
             id="Cmmi10-65"
             d="m 20.125,-1.125 q -4.7969,0 -8.3906,2.48438 -3.57815,2.5 -5.46878,6.71874 -1.875,4.23438 -1.875,8.92188 0,7.125 3.59376,13.3906 3.59372,6.2813 9.73442,10.0313 6.1562,3.7656 13.1874,3.7656 4.2969,0 7.5,-2.2187 3.2032,-2.2188 3.2032,-6.375 0,-5.7657 -4.5938,-8.5782 -4.5937,-2.7968 -10.3594,-3.4531 -5.75,-0.6563 -12.7343,-0.6563 l -0.2969,0 q -1.6094,-5.9687 -1.6094,-10.2031 0,-4.4531 2.0469,-7.8281 2.0469,-3.35938 6.25,-3.35938 5.9531,0 11.4375,2.73438 5.5,2.73438 8.9688,7.5625 0.2968,0.2969 0.7812,0.2969 0.5,0 1,-0.5625 0.5156,-0.5625 0.5156,-1.0469 0,-0.3906 -0.1875,-0.59375 -3.6719,-5.125 -9.875,-8.07813 Q 26.7656,-1.125 20.125,-1.125 m -5.9219,26.6094 q 5.8125,0 10.75,0.5312 4.9375,0.5469 8.9375,2.7188 4,2.1718 4,6.7656 0,1.8594 -1.0312,3.25 -1.0156,1.3906 -2.6563,2.125 -1.6406,0.7344 -3.3906,0.7344 -4.25,0 -7.6406,-2.2969 -3.3907,-2.2969 -5.5938,-5.9844 -2.2031,-3.6875 -3.375,-7.8437" />
          <path
             style="stroke-linecap:butt;stroke-linejoin:round"
             inkscape:connector-curvature="0"
             id="Cmr10-29"
             d="m 6.5,-25 q -0.89062,0 -0.89062,0.875 0,0.4375 0.20312,0.6406 Q 22.9062,-6.78125 22.9062,25 22.9062,56.7812 6,73.2969 5.60938,73.5312 5.60938,74.125 q 0,0.3438 0.26562,0.6094 Q 6.15625,75 6.5,75 l 0.92188,0 q 0.29687,0 0.48437,-0.1875 7.18755,-5.6719 11.96875,-13.7813 4.7812,-8.0937 7,-17.2812 2.2344,-9.1719 2.2344,-18.75 0,-7.0781 -1.2032,-13.9375 Q 26.7031,4.20312 24.0938,-2.45312 21.4844,-9.125 17.4844,-14.7656 q -4,-5.6406 -9.57815,-10.0469 Q 7.71875,-25 7.42188,-25 z" />
          <path
             style="stroke-linecap:butt;stroke-linejoin:round"
             inkscape:connector-curvature="0"
             id="Cmr10-3d"
             d="m 7.51562,13.2812 q -0.82812,0 -1.375,0.625 -0.53124,0.6407 -0.53124,1.375 0,0.8282 0.53124,1.4063 0.54688,0.5937 1.375,0.5937 l 62.79688,0 q 0.7344,0 1.2656,-0.5937 0.5469,-0.5781 0.5469,-1.4063 0,-0.7343 -0.5469,-1.375 -0.5312,-0.625 -1.2656,-0.625 z m 0,19.4376 q -0.82812,0 -1.375,0.5781 -0.53124,0.5937 -0.53124,1.4219 0,0.7343 0.53124,1.3593 0.54688,0.6407 1.375,0.6407 l 62.79688,0 q 0.7344,0 1.2656,-0.6407 0.5469,-0.625 0.5469,-1.3593 0,-0.8282 -0.5469,-1.4219 -0.5312,-0.5781 -1.2656,-0.5781 z" />
          <path
             style="stroke-linecap:butt;stroke-linejoin:round"
             inkscape:connector-curvature="0"
             id="Cmr10-31"
             d="m 9.28125,0 0,3.51562 q 12.49995,0 12.49995,3.17188 l 0,52.5 q -5.1718,-2.5 -13.0937,-2.5 l 0,3.5156 q 12.2656,0 18.5156,6.4063 l 1.4063,0 q 0.3437,0 0.6562,-0.2813 0.3282,-0.2656 0.3282,-0.6093 l 0,-59.0313 q 0,-3.17188 12.5,-3.17188 L 42.0938,0 z" />
          <path
             style="stroke-linecap:butt;stroke-linejoin:round"
             inkscape:connector-curvature="0"
             id="Cmr10-36"
             d="m 25,-2.20312 q -6.2031,0 -10.3594,3.29687 Q 10.5,4.39062 8.21875,9.64062 5.95312,14.8906 5.07812,20.6562 q -0.875,5.7657 -0.875,11.6719 0,7.9063 3.07813,15.8594 3.07815,7.9687 9.04685,13.1875 5.9844,5.2344 14.1875,5.2344 3.4219,0 6.375,-1.2969 2.9532,-1.2969 4.6406,-3.8125 1.6876,-2.5156 1.6876,-6.0781 0,-2.0469 -1.3907,-3.4375 -1.3906,-1.3906 -3.4531,-1.3906 -1.9531,0 -3.375,1.4062 -1.4062,1.4219 -1.4062,3.4219 0,1.9531 1.4062,3.3593 1.4219,1.4219 3.375,1.4219 l 0.5469,0 q -1.2813,1.8125 -3.5938,2.6563 -2.3125,0.8594 -4.8125,0.8594 -3.0312,0 -5.5937,-1.3282 -2.5625,-1.3125 -4.6094,-3.5625 -2.0469,-2.2343 -3.4219,-4.9531 -1.3594,-2.7031 -2.125,-6.1719 -0.75,-3.4687 -0.9531,-6.5 -0.1875,-3.0156 -0.1875,-7.6093 1.75,4.1093 4.9688,6.7187 3.2343,2.6094 7.2812,2.6094 4.4531,0 8.1094,-1.8125 3.6562,-1.7969 6.2968,-5 2.6407,-3.2032 4.0313,-7.3125 1.3906,-4.0938 1.3906,-8.2813 0,-5.8594 -2.6093,-11.17185 Q 40.4844,4.04688 35.7344,0.921875 31,-2.20312 25,-2.20312 m 0,3.187495 q 3.8594,0 6.2031,1.750005 2.3438,1.76562 3.4375,4.65624 1.1094,2.90628 1.375,5.85938 0.2656,2.9688 0.2656,7.2656 0,5.6563 -0.5468,9.6563 -0.5313,4.0156 -2.9219,7.0625 -2.3906,3.0468 -7.3281,3.0468 -4.0469,0 -6.6563,-2.7343 -2.6093,-2.7344 -3.8125,-6.9063 -1.2031,-4.1718 -1.2031,-8.0312 0,-1.3125 0.1094,-2 0,-0.1563 -0.0313,-0.25 -0.0156,-0.0938 -0.0781,-0.2344 0,-4.2969 0.875,-8.7031 Q 15.5781,7.03125 18.0625,4 20.5625,0.984375 25,0.984375" />
          <path
             style="stroke-linecap:butt;stroke-linejoin:round"
             inkscape:connector-curvature="0"
             id="Cmmi10-69"
             d="m 7.8125,7.17188 q 0,1.85937 0.78125,3.90622 L 16.7031,32.625 q 1.3125,3.6562 1.3125,6 0,2.9844 -2.1875,2.9844 -3.9687,0 -6.53122,-4.0782 Q 6.73438,33.4531 5.51562,28.4219 5.32812,27.7812 4.6875,27.7812 l -1.17188,0 q -0.82812,0 -0.82812,0.9376 l 0,0.2812 q 1.60938,5.9688 4.92188,10.5781 3.32812,4.6094 8.40622,4.6094 3.5625,0 6.0313,-2.3437 2.4687,-2.3438 2.4687,-5.9532 0,-1.8594 -0.8281,-3.9062 L 15.5781,10.5 q -1.375,-3.32812 -1.375,-6 0,-2.98438 2.2969,-2.98438 3.9062,0 6.5156,4.17188 2.625,4.17188 3.6875,9.0156 0.2031,0.5781 0.7813,0.5781 l 1.2344,0 q 0.3906,0 0.625,-0.2656 0.25,-0.2656 0.25,-0.6094 0,-0.0937 -0.0938,-0.2968 Q 28.125,8.45312 24.7344,3.65625 21.3438,-1.125 16.3125,-1.125 q -3.5156,0 -6.0156,2.42188 -2.4844,2.42187 -2.4844,5.875 M 19.0938,60.5938 q 0,2.1093 1.75,3.8124 1.7656,1.7032 3.8593,1.7032 1.7188,0 2.8125,-1.0469 1.0938,-1.0469 1.0938,-2.6563 0,-2.25 -1.7813,-3.9374 -1.7812,-1.6876 -3.9219,-1.6876 -1.6093,0 -2.7187,1.0938 -1.0937,1.1094 -1.0937,2.7188" />
          <path
             style="stroke-linecap:butt;stroke-linejoin:round"
             inkscape:connector-curvature="0"
             id="Cmmi10-56"
             d="m 22.0156,-1.125 -8,63.7188 q -0.7344,2.2031 -7.5156,2.2031 -0.98438,0 -0.98438,1.3125 Q 5.71875,67.1875 6,67.75 q 0.29688,0.5625 1.17188,0.5625 l 24.42192,0 q 0.5312,0 0.7812,-0.3906 0.25,-0.3907 0.25,-0.9219 -0.3906,-2.2031 -1.3281,-2.2031 -7.8125,0 -8.2969,-2.6875 L 29.5938,9.8125 60.4062,58.9844 q 0.875,1.6562 0.875,2.6406 0,1.75 -1.5937,2.4531 -1.5781,0.7188 -3.6875,0.7188 -1.0156,0 -1.0156,1.3125 0.1875,0.7812 0.3281,1.2187 0.1563,0.4531 0.4531,0.7188 0.2969,0.2656 0.9219,0.2656 l 19.2969,0 q 0.9218,0 0.9218,-1.3125 -0.3906,-2.2031 -1.3124,-2.2031 -7.5313,0 -11.7813,-6.5938 -0.1875,-0.1875 -0.3281,-0.1875 L 26.6094,-1.125 Q 25.875,-2.20312 24.7031,-2.20312 l -1.4062,0 q -1.125,0 -1.2813,1.07812" />
          <path
             style="stroke-linecap:butt;stroke-linejoin:round"
             inkscape:connector-curvature="0"
             id="Cmr10-35"
             d="m 8.6875,11.375 q 1.03125,-2.92188 3.1563,-5.32812 2.125,-2.39063 5.0312,-3.73438 2.9062,-1.328125 6.0312,-1.328125 7.2188,0 9.9532,5.609375 2.7344,5.60935 2.7344,13.62505 0,3.4687 -0.125,5.8281 -0.1094,2.375 -0.6563,4.5625 -0.9219,3.5156 -3.25,6.1562 -2.3125,2.6406 -5.6875,2.6406 -3.3594,0 -5.7812,-1.0312 -2.4219,-1.0156 -3.9376,-2.3906 -1.5,-1.3594 -2.6718,-2.875 Q 12.3125,31.5938 12.0156,31.5 l -1.125,0 q -0.25,0 -0.625,0.3125 -0.35935,0.3125 -0.35935,0.6094 l 0,33.4062 q 0,0.2344 0.31255,0.5 0.3281,0.2813 0.6718,0.2813 l 0.2969,0 q 6.7344,-3.2344 14.2969,-3.2344 7.4218,0 14.3125,3.2344 l 0.2969,0 q 0.3437,0 0.625,-0.25 0.2968,-0.25 0.2968,-0.5313 l 0,-0.9375 q 0,-0.4844 -0.1875,-0.4844 -3.4219,-4.5468 -8.5781,-7.0937 -5.1562,-2.5313 -10.6719,-2.5313 -4,0 -8.2031,1.125 l 0,-18.8906 q 3.3281,2.6875 5.9375,3.8282 Q 21.9219,42 25.9844,42 q 5.5156,0 9.875,-3.1875 4.375,-3.1719 6.7187,-8.2813 2.3438,-5.0937 2.3438,-10.4062 0,-6.0156 -2.9531,-11.14062 -2.9532,-5.125 -8.0313,-8.156255 -5.0781,-3.031245 -11.0313,-3.031245 -4.9374,0 -9.0624,2.531245 Q 9.71875,2.875 7.34375,7.17188 4.98438,11.4688 4.98438,16.3125 q 0,2.25 1.45312,3.6563 1.46875,1.4218 3.6719,1.4218 2.2031,0 3.6875,-1.4531 1.4843,-1.4375 1.4843,-3.625 0,-2.1563 -1.4843,-3.6406 -1.4844,-1.4844 -3.6875,-1.4844 -0.34378,0 -0.78128,0.0625 -0.4375,0.0781 -0.64062,0.125" />
        </defs>
        <g
           style="stroke-linecap:butt;stroke-linejoin:round"
           id="g130"
           transform="matrix(0.144,0,0,-0.144,351.504,62.928)">
          <use
             height="360"
             width="576"
             y="0"
             x="0"
             style="stroke-linecap:butt;stroke-linejoin:round"
             id="use132"
             xlink:href="#Cmmi10-56"
             transform="translate(0,0.8828125)" />
          <use
             height="360"
             width="576"
             y="0"
             x="0"
             style="stroke-linecap:butt;stroke-linejoin:round"
             id="use134"
             xlink:href="#Cmmi10-6e"
             transform="matrix(0.7,0,0,0.7,58.300781,-24.626563)" />
          <use
             height="360"
             width="576"
             y="0"
             x="0"
             style="stroke-linecap:butt;stroke-linejoin:round"
             id="use136"
             xlink:href="#Cmmi10-61"
             transform="matrix(0.7,0,0,0.7,100.30762,-24.626563)" />
          <use
             height="360"
             width="576"
             y="0"
             x="0"
             style="stroke-linecap:butt;stroke-linejoin:round"
             id="use138"
             xlink:href="#Cmmi10-74"
             transform="matrix(0.7,0,0,0.7,137.25586,-24.626563)" />
          <use
             height="360"
             width="576"
             y="0"
             x="0"
             style="stroke-linecap:butt;stroke-linejoin:round"
             id="use140"
             xlink:href="#Cmmi10-69"
             transform="matrix(0.7,0,0,0.7,162.51465,-24.626563)" />
          <use
             height="360"
             width="576"
             y="0"
             x="0"
             style="stroke-linecap:butt;stroke-linejoin:round"
             id="use142"
             xlink:href="#Cmmi10-76"
             transform="matrix(0.7,0,0,0.7,186.61133,-24.626563)" />
          <use
             height="360"
             width="576"
             y="0"
             x="0"
             style="stroke-linecap:butt;stroke-linejoin:round"
             id="use144"
             xlink:href="#Cmmi10-65"
             transform="matrix(0.7,0,0,0.7,220.4834,-24.626563)" />
          <use
             height="360"
             width="576"
             y="0"
             x="0"
             style="stroke-linecap:butt;stroke-linejoin:round"
             id="use146"
             xlink:href="#Cmr10-3d"
             transform="translate(270.58105,0.8828125)" />
          <use
             height="360"
             width="576"
             y="0"
             x="0"
             style="stroke-linecap:butt;stroke-linejoin:round"
             id="use148"
             xlink:href="#Cmmi10-22"
             transform="translate(354.63965,0.8828125)" />
          <use
             height="360"
             width="576"
             y="0"
             x="0"
             style="stroke-linecap:butt;stroke-linejoin:round"
             id="use150"
             xlink:href="#Cmr10-5b"
             transform="translate(401.22168,0.8828125)" />
          <use
             height="360"
             width="576"
             y="0"
             x="0"
             style="stroke-linecap:butt;stroke-linejoin:round"
             id="use152"
             xlink:href="#Cmr10-35"
             transform="translate(428.90723,0.8828125)" />
          <use
             height="360"
             width="576"
             y="0"
             x="0"
             style="stroke-linecap:butt;stroke-linejoin:round"
             id="use154"
             xlink:href="#Cmr10-28"
             transform="translate(478.90723,0.8828125)" />
          <use
             height="360"
             width="576"
             y="0"
             x="0"
             style="stroke-linecap:butt;stroke-linejoin:round"
             id="use156"
             xlink:href="#Cmmi10-be"
             transform="matrix(0.7,0,0,0.7,517.72559,39.170312)" />
          <use
             height="360"
             width="576"
             y="0"
             x="0"
             style="stroke-linecap:butt;stroke-linejoin:round"
             id="use158"
             xlink:href="#Cmmi10-72"
             transform="matrix(0.7,0,0,0.7,521.72559,-23.798438)" />
          <use
             height="360"
             width="576"
             y="0"
             x="0"
             style="stroke-linecap:butt;stroke-linejoin:round"
             id="use160"
             xlink:href="#Cmr10-29"
             transform="translate(570.18164,0.8828125)" />
          <use
             height="360"
             width="576"
             y="0"
             x="0"
             style="stroke-linecap:butt;stroke-linejoin:round"
             id="use162"
             xlink:href="#Cmr10-31"
             transform="matrix(0.7,0,0,0.7,609,50.373438)" />
          <use
             height="360"
             width="576"
             y="0"
             x="0"
             style="stroke-linecap:butt;stroke-linejoin:round"
             id="use164"
             xlink:href="#Cmr10-32"
             transform="matrix(0.7,0,0,0.7,644,50.373438)" />
          <use
             height="360"
             width="576"
             y="0"
             x="0"
             style="stroke-linecap:butt;stroke-linejoin:round"
             id="use166"
             xlink:href="#Cmsy10-a1"
             transform="translate(696.00625,0.8828125)" />
          <use
             height="360"
             width="576"
             y="0"
             x="0"
             style="stroke-linecap:butt;stroke-linejoin:round"
             id="use168"
             xlink:href="#Cmr10-36"
             transform="translate(773.6918,0.8828125)" />
          <use
             height="360"
             width="576"
             y="0"
             x="0"
             style="stroke-linecap:butt;stroke-linejoin:round"
             id="use170"
             xlink:href="#Cmr10-28"
             transform="translate(823.6918,0.8828125)" />
          <use
             height="360"
             width="576"
             y="0"
             x="0"
             style="stroke-linecap:butt;stroke-linejoin:round"
             id="use172"
             xlink:href="#Cmmi10-be"
             transform="matrix(0.7,0,0,0.7,862.51016,39.170312)" />
          <use
             height="360"
             width="576"
             y="0"
             x="0"
             style="stroke-linecap:butt;stroke-linejoin:round"
             id="use174"
             xlink:href="#Cmmi10-72"
             transform="matrix(0.7,0,0,0.7,866.51016,-23.798438)" />
          <use
             height="360"
             width="576"
             y="0"
             x="0"
             style="stroke-linecap:butt;stroke-linejoin:round"
             id="use176"
             xlink:href="#Cmr10-29"
             transform="translate(914.96621,0.8828125)" />
          <use
             height="360"
             width="576"
             y="0"
             x="0"
             style="stroke-linecap:butt;stroke-linejoin:round"
             id="use178"
             xlink:href="#Cmr10-31"
             transform="matrix(0.7,0,0,0.7,953.78457,50.373438)" />
          <use
             height="360"
             width="576"
             y="0"
             x="0"
             style="stroke-linecap:butt;stroke-linejoin:round"
             id="use180"
             xlink:href="#Cmr10-30"
             transform="matrix(0.7,0,0,0.7,988.78457,50.373438)" />
          <use
             height="360"
             width="576"
             y="0"
             x="0"
             style="stroke-linecap:butt;stroke-linejoin:round"
             id="use182"
             xlink:href="#Cmr10-5d"
             transform="translate(1040.7908,0.8828125)" />
          <path
             style="stroke-linecap:butt;stroke-linejoin:round"
             inkscape:connector-curvature="0"
             id="path184"
             d="m 517.726,13.3828 0,6.25 39.956,0 0,-6.25 -39.956,0 z" />
          <path
             style="stroke-linecap:butt;stroke-linejoin:round"
             inkscape:connector-curvature="0"
             id="path186"
             d="m 862.51,13.3828 0,6.25 39.956,0 0,-6.25 -39.956,0 z" />
        </g>
      </g>
      <g
         style="stroke-linecap:butt;stroke-linejoin:round"
         id="line2d_11">
        <path
           inkscape:connector-curvature="0"
           id="path189"
           style="fill:none;stroke:#0000ff;stroke-width:1.5;stroke-linecap:butt;stroke-linejoin:round;stroke-dasharray:6, 6;stroke-dashoffset:0"
           d="m 315.504,82.944 20.16,0" />
      </g>
      <g
         style="stroke-linecap:butt;stroke-linejoin:round"
         id="line2d_12" />
      <g
         style="stroke-linecap:butt;stroke-linejoin:round"
         id="text_5">
        <!-- $V_{repulsion} = 5 \varepsilon (\frac{\sigma}{r})^{12}$ -->
        <defs
           id="defs193">
          <path
             style="stroke-linecap:butt;stroke-linejoin:round"
             inkscape:connector-curvature="0"
             id="Cmmi10-70"
             d="m -2.48438,-19.3906 q -0.9375,0 -0.9375,1.2812 0.34376,2.1875 1.32813,2.1875 3.125,0 4.35937,0.5625 1.25,0.5625 1.9375,2.8594 L 15.4844,32.5156 q 0.7344,1.8594 0.7344,4.7969 0,4.2969 -2.9376,4.2969 -3.125,0 -4.64058,-3.75 Q 7.125,34.125 5.71875,28.4219 q 0,-0.6407 -0.82813,-0.6407 l -1.17187,0 q -0.25,0 -0.54687,0.3594 -0.29688,0.375 -0.29688,0.6719 1.07812,4.3437 2.07812,7.3594 1,3.0312 3.125,5.5156 2.12498,2.5 5.29688,2.5 3.4219,0 6,-1.9375 2.5938,-1.9219 3.3281,-5.2344 2.7344,3.1719 6.0469,5.1719 3.3281,2 6.8438,2 4.2031,0 7.2968,-2.25 3.1094,-2.2344 4.6719,-5.875 1.5625,-3.6406 1.5625,-7.8437 0,-6.4376 -3.2969,-13.3282 Q 42.5312,8.01562 36.8906,3.4375 31.25,-1.125 24.8125,-1.125 21.875,-1.125 19.5,0.53125 17.1406,2.20312 15.8281,4.89062 L 11.2812,-12.8906 q -0.25,-1.4688 -0.2968,-1.7032 0,-1.3281 6.5937,-1.3281 1.0313,0 1.0313,-1.2656 -0.3438,-1.3125 -0.5625,-1.75 -0.2188,-0.4531 -1.1563,-0.4531 z M 24.9062,1.51562 q 3.4688,0 6.4376,2.85938 2.9843,2.85938 4.8437,6.4219 1.3594,2.6875 2.5469,6.5625 1.2031,3.875 2.0781,8.2656 0.8906,4.4062 0.8906,7 0,2.2812 -0.6093,4.2812 -0.6094,2.0157 -2,3.3594 -1.3907,1.3438 -3.6876,1.3438 -3.6718,0 -6.9218,-2.625 -3.2344,-2.6094 -5.875,-6.4688 l 0,-0.3437 -5.5156,-22.0625 q 0.6874,-3.56252 2.6406,-6.07815 1.9531,-2.51563 5.1718,-2.51563" />
          <path
             style="stroke-linecap:butt;stroke-linejoin:round"
             inkscape:connector-curvature="0"
             id="Cmmi10-6f"
             d="m 20.125,-1.125 q -4.75,0 -8.4375,2.25 Q 8.01562,3.375 6,7.17188 4,10.9844 4,15.8281 4,22.6094 7.78125,29.25 11.5781,35.8906 17.8438,40.0312 24.125,44.1875 31,44.1875 q 3.7188,0 6.625,-1.2656 2.9062,-1.2657 5.0469,-3.5625 2.1562,-2.2969 3.2969,-5.375 1.1562,-3.0782 1.1562,-6.6875 0,-5.2188 -2.2031,-10.2813 Q 42.7188,11.9688 38.8906,7.84375 35.0625,3.71875 30.125,1.29688 25.2031,-1.125 20.125,-1.125 m 0.1875,2.64062 q 4.4375,0 8.125,3.01563 3.6875,3.03125 6.0469,7.64065 2.375,4.625 3.6406,9.75 1.2812,5.125 1.2812,9.2812 0,4.3438 -2.1718,7.375 -2.1719,3.0313 -6.4219,3.0313 -5.8594,0 -10.2656,-5.0156 -4.3907,-5 -6.6094,-11.9688 -2.2187,-6.9531 -2.2187,-12.7031 0,-4.3594 2.2187,-7.39065 2.2187,-3.01563 6.375,-3.01563" />
          <path
             style="stroke-linecap:butt;stroke-linejoin:round"
             inkscape:connector-curvature="0"
             id="Cmmi10-6c"
             d="m 4.39062,8.10938 q 0,0.29687 0.07813,0.875 0.07813,0.59374 0.14063,1.14062 0.07812,0.5625 0.07812,0.8594 L 17.0938,60.5 q 0.3906,1.7031 0.4843,2.6875 0,1.6094 -6.5,1.6094 -0.9687,0 -0.9687,1.3125 0.0468,0.25 0.2187,0.875 0.1719,0.6406 0.4375,0.9844 0.2656,0.3437 0.7656,0.3437 L 25,69.3906 q 1.2188,0 1.2188,-1.2812 L 11.8125,10.5938 q -0.7344,-1.60942 -0.7344,-4.7813 0,-4.29688 2.9375,-4.29688 3.0782,0 4.6094,3.82813 1.5469,3.84375 2.7656,9.35935 0.1875,0.5781 0.8282,0.5781 l 1.1718,0 q 0.3906,0 0.6563,-0.3124 0.2656,-0.3126 0.2656,-0.6563 Q 23.1406,9.46875 22.1875,6.65625 21.2344,3.85938 19.1406,1.35938 17.0469,-1.125 13.8125,-1.125 q -4,0 -6.71875,2.57812 -2.70313,2.59376 -2.70313,6.65626" />
          <path
             style="stroke-linecap:butt;stroke-linejoin:round"
             inkscape:connector-curvature="0"
             id="Cmmi10-73"
             d="m 8.6875,6.10938 q 2.6875,-4.59376 10.7969,-4.59376 3.5156,0 6.6875,1.1875 3.1719,1.20313 5.25,3.59376 Q 33.5,8.6875 33.5,12.1094 q 0,2.5937 -1.8594,4.25 -1.8594,1.6562 -4.5468,2.25 l -5.4063,1.0625 q -3.7187,0.9375 -6.1094,3.4687 -2.3906,2.5469 -2.3906,6.1563 0,4.4375 2.4063,7.8593 2.4218,3.4219 6.375,5.2188 3.9531,1.8125 8.2031,1.8125 4.5469,0 8.125,-2.1719 3.5937,-2.1718 3.5937,-6.4218 0,-2.2969 -1.2968,-4.0626 -1.2813,-1.75 -3.5782,-1.75 -1.3281,0 -2.2812,0.8594 -0.9375,0.8594 -0.9375,2.1719 0,1.1719 0.6562,2.2656 0.6563,1.1094 1.75,1.7657 1.1094,0.6562 2.2813,0.6562 -0.8906,2.1562 -3.3125,3.125 -2.4063,0.9844 -5.1875,0.9844 -2.5469,0 -5.0938,-1.0313 -2.5312,-1.0312 -4.0781,-3.0156 -1.5313,-1.9687 -1.5313,-4.6563 0,-1.7968 1.2657,-3.1718 1.2812,-1.3594 3.1406,-1.9532 L 29.5,26.6094 q 2.7812,-0.5782 5.0938,-2.0782 2.3281,-1.4843 3.6562,-3.7656 1.3438,-2.2656 1.3438,-5.1875 0,-3.7187 -2.0782,-7.3281 Q 35.4531,4.64062 32.4219,2.48438 27.0938,-1.125 19.3906,-1.125 q -5.3281,0 -9.78122,2.4375 -4.4375,2.45312 -4.4375,7.28125 0,2.73435 1.57812,4.75005 1.59375,2.0312 4.3281,2.0312 1.625,0 2.7188,-0.9844 1.0937,-0.9687 1.0937,-2.5781 0,-2.29688 -1.7187,-4 Q 11.4688,6.10938 9.1875,6.10938 z" />
          <path
             style="stroke-linecap:butt;stroke-linejoin:round"
             inkscape:connector-curvature="0"
             id="Cmmi10-75"
             d="m 10.5938,10.8906 q 0,3.2656 0.875,6.7032 0.8906,3.4531 2.4687,7.6718 1.5937,4.2344 2.7656,7.3594 1.3125,3.6562 1.3125,6 0,2.9844 -2.1875,2.9844 -3.9687,0 -6.53122,-4.0782 Q 6.73438,33.4531 5.51562,28.4219 5.32812,27.7812 4.6875,27.7812 l -1.17188,0 q -0.82812,0 -0.82812,0.9376 l 0,0.2812 q 1.60938,5.9688 4.92188,10.5781 3.32812,4.6094 8.40622,4.6094 3.5625,0 6.0313,-2.3437 2.4687,-2.3438 2.4687,-5.9532 0,-1.8594 -0.8281,-3.9062 -0.4375,-1.2188 -2,-5.3282 -1.5625,-4.0937 -2.4063,-6.7812 -0.8281,-2.6875 -1.3593,-5.2812 -0.5313,-2.5782 -0.5313,-5.17192 0,-3.3125 1.4063,-5.60938 1.4219,-2.29688 4.5937,-2.29688 6.3906,0 11.2344,7.90626 0.0938,0.39062 0.1562,0.75002 0.0782,0.375 0.125,0.7187 l 7.1876,29 q 0.3437,1.3282 1.5624,2.2656 1.2188,0.9532 2.6407,0.9532 1.2187,0 2.1093,-0.7813 0.9063,-0.7812 0.9063,-2.0469 0,-0.5781 -0.0937,-0.7812 L 42,10.6875 q -0.6875,-2.96875 -0.6875,-4.875 0,-4.29688 2.875,-4.29688 3.2187,0 4.8125,3.96876 1.5938,3.98437 2.7031,9.21872 0.2031,0.5781 0.7813,0.5781 l 1.2344,0 q 0.3906,0 0.625,-0.3437 0.25,-0.3437 0.25,-0.625 -1.0782,-4.2969 -2.0782,-7.375 -1,-3.07812 -3.1562,-5.57812 Q 47.2188,-1.125 44,-1.125 q -3.1719,0 -5.6875,1.734375 Q 35.7969,2.34375 34.9062,5.32812 32.625,2.39062 29.5938,0.625 q -3.0313,-1.75 -6.4063,-1.75 -5.75,0 -9.1719,3.14062 -3.4218,3.15626 -3.4218,8.87498" />
        </defs>
        <g
           style="stroke-linecap:butt;stroke-linejoin:round"
           id="g200"
           transform="matrix(0.144,0,0,-0.144,351.504,87.984)">
          <use
             height="360"
             width="576"
             y="0"
             x="0"
             style="stroke-linecap:butt;stroke-linejoin:round"
             id="use202"
             xlink:href="#Cmmi10-56"
             transform="translate(0,0.8828125)" />
          <use
             height="360"
             width="576"
             y="0"
             x="0"
             style="stroke-linecap:butt;stroke-linejoin:round"
             id="use204"
             xlink:href="#Cmmi10-72"
             transform="matrix(0.7,0,0,0.7,58.300781,-24.626563)" />
          <use
             height="360"
             width="576"
             y="0"
             x="0"
             style="stroke-linecap:butt;stroke-linejoin:round"
             id="use206"
             xlink:href="#Cmmi10-65"
             transform="matrix(0.7,0,0,0.7,89.882812,-24.626563)" />
          <use
             height="360"
             width="576"
             y="0"
             x="0"
             style="stroke-linecap:butt;stroke-linejoin:round"
             id="use208"
             xlink:href="#Cmmi10-70"
             transform="matrix(0.7,0,0,0.7,122.42188,-24.626563)" />
          <use
             height="360"
             width="576"
             y="0"
             x="0"
             style="stroke-linecap:butt;stroke-linejoin:round"
             id="use210"
             xlink:href="#Cmmi10-75"
             transform="matrix(0.7,0,0,0.7,157.62695,-24.626563)" />
          <use
             height="360"
             width="576"
             y="0"
             x="0"
             style="stroke-linecap:butt;stroke-linejoin:round"
             id="use212"
             xlink:href="#Cmmi10-6c"
             transform="matrix(0.7,0,0,0.7,197.65137,-24.626563)" />
          <use
             height="360"
             width="576"
             y="0"
             x="0"
             style="stroke-linecap:butt;stroke-linejoin:round"
             id="use214"
             xlink:href="#Cmmi10-73"
             transform="matrix(0.7,0,0,0.7,218.50098,-24.626563)" />
          <use
             height="360"
             width="576"
             y="0"
             x="0"
             style="stroke-linecap:butt;stroke-linejoin:round"
             id="use216"
             xlink:href="#Cmmi10-69"
             transform="matrix(0.7,0,0,0.7,251.24512,-24.626563)" />
          <use
             height="360"
             width="576"
             y="0"
             x="0"
             style="stroke-linecap:butt;stroke-linejoin:round"
             id="use218"
             xlink:href="#Cmmi10-6f"
             transform="matrix(0.7,0,0,0.7,275.3418,-24.626563)" />
          <use
             height="360"
             width="576"
             y="0"
             x="0"
             style="stroke-linecap:butt;stroke-linejoin:round"
             id="use220"
             xlink:href="#Cmmi10-6e"
             transform="matrix(0.7,0,0,0.7,309.21387,-24.626563)" />
          <use
             height="360"
             width="576"
             y="0"
             x="0"
             style="stroke-linecap:butt;stroke-linejoin:round"
             id="use222"
             xlink:href="#Cmr10-3d"
             transform="translate(368.7793,0.8828125)" />
          <use
             height="360"
             width="576"
             y="0"
             x="0"
             style="stroke-linecap:butt;stroke-linejoin:round"
             id="use224"
             xlink:href="#Cmr10-35"
             transform="translate(452.83789,0.8828125)" />
          <use
             height="360"
             width="576"
             y="0"
             x="0"
             style="stroke-linecap:butt;stroke-linejoin:round"
             id="use226"
             xlink:href="#Cmmi10-22"
             transform="translate(502.83789,0.8828125)" />
          <use
             height="360"
             width="576"
             y="0"
             x="0"
             style="stroke-linecap:butt;stroke-linejoin:round"
             id="use228"
             xlink:href="#Cmr10-28"
             transform="translate(549.41992,0.8828125)" />
          <use
             height="360"
             width="576"
             y="0"
             x="0"
             style="stroke-linecap:butt;stroke-linejoin:round"
             id="use230"
             xlink:href="#Cmmi10-be"
             transform="matrix(0.7,0,0,0.7,588.23828,39.170312)" />
          <use
             height="360"
             width="576"
             y="0"
             x="0"
             style="stroke-linecap:butt;stroke-linejoin:round"
             id="use232"
             xlink:href="#Cmmi10-72"
             transform="matrix(0.7,0,0,0.7,592.23828,-23.798438)" />
          <use
             height="360"
             width="576"
             y="0"
             x="0"
             style="stroke-linecap:butt;stroke-linejoin:round"
             id="use234"
             xlink:href="#Cmr10-29"
             transform="translate(640.69434,0.8828125)" />
          <use
             height="360"
             width="576"
             y="0"
             x="0"
             style="stroke-linecap:butt;stroke-linejoin:round"
             id="use236"
             xlink:href="#Cmr10-31"
             transform="matrix(0.7,0,0,0.7,679.5127,50.373438)" />
          <use
             height="360"
             width="576"
             y="0"
             x="0"
             style="stroke-linecap:butt;stroke-linejoin:round"
             id="use238"
             xlink:href="#Cmr10-32"
             transform="matrix(0.7,0,0,0.7,714.5127,50.373438)" />
          <path
             style="stroke-linecap:butt;stroke-linejoin:round"
             inkscape:connector-curvature="0"
             id="path240"
             d="m 588.238,13.3828 0,6.25 39.956,0 0,-6.25 -39.956,0 z" />
        </g>
      </g>
      <g
         style="stroke-linecap:butt;stroke-linejoin:round"
         id="line2d_13">
        <path
           inkscape:connector-curvature="0"
           id="path243"
           style="fill:none;stroke:#ff0000;stroke-width:1.5;stroke-linecap:butt;stroke-linejoin:round;stroke-dasharray:6, 6;stroke-dashoffset:0"
           d="m 315.504,109.872 20.16,0" />
      </g>
      <g
         style="stroke-linecap:butt;stroke-linejoin:round"
         id="line2d_14" />
      <g
         style="stroke-linecap:butt;stroke-linejoin:round"
         id="text_6">
        <!-- $V_{attraction} = - 6 \varepsilon (\frac{\sigma}{r})^{10}$ -->
        <defs
           id="defs247">
          <path
             style="stroke-linecap:butt;stroke-linejoin:round"
             inkscape:connector-curvature="0"
             id="Cmmi10-63"
             d="m 11.7188,11.9219 q 0,-4.3594 2.2187,-7.39065 2.2187,-3.01563 6.375,-3.01563 5.9531,0 11.4375,2.73438 5.5,2.73438 8.9688,7.5625 0.2968,0.2969 0.7812,0.2969 0.5,0 1,-0.5625 0.5156,-0.5625 0.5156,-1.0469 0,-0.3906 -0.1875,-0.59375 -3.6719,-5.125 -9.875,-8.07813 Q 26.7656,-1.125 20.125,-1.125 q -4.7969,0 -8.4531,2.26562 Q 8.01562,3.42188 6,7.21875 4,11.0312 4,15.8281 q 0,6.7344 3.76562,13.375 3.76558,6.6407 10.01558,10.8125 6.25,4.1719 13.125,4.1719 4.5,0 8.0782,-2.1719 3.5937,-2.1718 3.5937,-6.4218 0,-2.7344 -1.5937,-4.6719 Q 39.4062,29 36.7188,29 35.1094,29 34,30 q -1.0938,1 -1.0938,2.625 0,2.3438 1.7032,4 1.7187,1.6562 4.0156,1.6562 l 0.1875,0 q -1.1719,1.7032 -3.3906,2.5157 -2.2188,0.8125 -4.6094,0.8125 -5.8594,0 -10.2656,-5.0156 -4.3907,-5 -6.6094,-11.9688 -2.2187,-6.9531 -2.2187,-12.7031" />
        </defs>
        <g
           style="stroke-linecap:butt;stroke-linejoin:round"
           id="g250"
           transform="matrix(0.144,0,0,-0.144,351.504,114.912)">
          <use
             height="360"
             width="576"
             y="0"
             x="0"
             style="stroke-linecap:butt;stroke-linejoin:round"
             id="use252"
             xlink:href="#Cmmi10-56"
             transform="translate(0,0.8828125)" />
          <use
             height="360"
             width="576"
             y="0"
             x="0"
             style="stroke-linecap:butt;stroke-linejoin:round"
             id="use254"
             xlink:href="#Cmmi10-61"
             transform="matrix(0.7,0,0,0.7,58.300781,-24.626563)" />
          <use
             height="360"
             width="576"
             y="0"
             x="0"
             style="stroke-linecap:butt;stroke-linejoin:round"
             id="use256"
             xlink:href="#Cmmi10-74"
             transform="matrix(0.7,0,0,0.7,95.249023,-24.626563)" />
          <use
             height="360"
             width="576"
             y="0"
             x="0"
             style="stroke-linecap:butt;stroke-linejoin:round"
             id="use258"
             xlink:href="#Cmmi10-74"
             transform="matrix(0.7,0,0,0.7,120.50781,-24.626563)" />
          <use
             height="360"
             width="576"
             y="0"
             x="0"
             style="stroke-linecap:butt;stroke-linejoin:round"
             id="use260"
             xlink:href="#Cmmi10-72"
             transform="matrix(0.7,0,0,0.7,145.7666,-24.626563)" />
          <use
             height="360"
             width="576"
             y="0"
             x="0"
             style="stroke-linecap:butt;stroke-linejoin:round"
             id="use262"
             xlink:href="#Cmmi10-61"
             transform="matrix(0.7,0,0,0.7,177.34863,-24.626563)" />
          <use
             height="360"
             width="576"
             y="0"
             x="0"
             style="stroke-linecap:butt;stroke-linejoin:round"
             id="use264"
             xlink:href="#Cmmi10-63"
             transform="matrix(0.7,0,0,0.7,214.29687,-24.626563)" />
          <use
             height="360"
             width="576"
             y="0"
             x="0"
             style="stroke-linecap:butt;stroke-linejoin:round"
             id="use266"
             xlink:href="#Cmmi10-74"
             transform="matrix(0.7,0,0,0.7,244.5459,-24.626563)" />
          <use
             height="360"
             width="576"
             y="0"
             x="0"
             style="stroke-linecap:butt;stroke-linejoin:round"
             id="use268"
             xlink:href="#Cmmi10-69"
             transform="matrix(0.7,0,0,0.7,269.80469,-24.626563)" />
          <use
             height="360"
             width="576"
             y="0"
             x="0"
             style="stroke-linecap:butt;stroke-linejoin:round"
             id="use270"
             xlink:href="#Cmmi10-6f"
             transform="matrix(0.7,0,0,0.7,293.90137,-24.626563)" />
          <use
             height="360"
             width="576"
             y="0"
             x="0"
             style="stroke-linecap:butt;stroke-linejoin:round"
             id="use272"
             xlink:href="#Cmmi10-6e"
             transform="matrix(0.7,0,0,0.7,327.77344,-24.626563)" />
          <use
             height="360"
             width="576"
             y="0"
             x="0"
             style="stroke-linecap:butt;stroke-linejoin:round"
             id="use274"
             xlink:href="#Cmr10-3d"
             transform="translate(387.33887,0.8828125)" />
          <use
             height="360"
             width="576"
             y="0"
             x="0"
             style="stroke-linecap:butt;stroke-linejoin:round"
             id="use276"
             xlink:href="#Cmsy10-a1"
             transform="translate(471.39746,0.8828125)" />
          <use
             height="360"
             width="576"
             y="0"
             x="0"
             style="stroke-linecap:butt;stroke-linejoin:round"
             id="use278"
             xlink:href="#Cmr10-36"
             transform="translate(549.08301,0.8828125)" />
          <use
             height="360"
             width="576"
             y="0"
             x="0"
             style="stroke-linecap:butt;stroke-linejoin:round"
             id="use280"
             xlink:href="#Cmmi10-22"
             transform="translate(599.08301,0.8828125)" />
          <use
             height="360"
             width="576"
             y="0"
             x="0"
             style="stroke-linecap:butt;stroke-linejoin:round"
             id="use282"
             xlink:href="#Cmr10-28"
             transform="translate(645.66504,0.8828125)" />
          <use
             height="360"
             width="576"
             y="0"
             x="0"
             style="stroke-linecap:butt;stroke-linejoin:round"
             id="use284"
             xlink:href="#Cmmi10-be"
             transform="matrix(0.7,0,0,0.7,684.4834,39.170312)" />
          <use
             height="360"
             width="576"
             y="0"
             x="0"
             style="stroke-linecap:butt;stroke-linejoin:round"
             id="use286"
             xlink:href="#Cmmi10-72"
             transform="matrix(0.7,0,0,0.7,688.4834,-23.798438)" />
          <use
             height="360"
             width="576"
             y="0"
             x="0"
             style="stroke-linecap:butt;stroke-linejoin:round"
             id="use288"
             xlink:href="#Cmr10-29"
             transform="translate(736.93945,0.8828125)" />
          <use
             height="360"
             width="576"
             y="0"
             x="0"
             style="stroke-linecap:butt;stroke-linejoin:round"
             id="use290"
             xlink:href="#Cmr10-31"
             transform="matrix(0.7,0,0,0.7,775.75781,50.373438)" />
          <use
             height="360"
             width="576"
             y="0"
             x="0"
             style="stroke-linecap:butt;stroke-linejoin:round"
             id="use292"
             xlink:href="#Cmr10-30"
             transform="matrix(0.7,0,0,0.7,810.75781,50.373438)" />
          <path
             style="stroke-linecap:butt;stroke-linejoin:round"
             inkscape:connector-curvature="0"
             id="path294"
             d="m 684.483,13.3828 0,6.25 39.956,0 0,-6.25 -39.956,0 z" />
        </g>
      </g>
    </g>
  </g>
  <defs
     id="defs296">
    <clipPath
       id="p44692e4afb">
      <rect
         height="288.0"
         width="446.4"
         x="72.0"
         y="36.0"
         id="rect299" />
    </clipPath>
  </defs>
</svg>
